Preview_144-400-50-wght_419.61.ufo
<glyph name="quotedbl" format="2">
  <advance width="578"/>
  <unicode hex="0022"/>
  <outline>
    <contour>
      <point x="150.8272693452381" y="898.1219122023809" type="line"/>
      <point x="83.83143601190476" y="1432.2002232142856" type="line" smooth="yes"/>
      <point x="82.67064732142858" y="1496.1099702380952"/>
      <point x="123.16856398809524" y="1558.0"/>
      <point x="164.28214285714284" y="1558.0" type="qcurve" smooth="yes"/>
      <point x="205.39572172619046" y="1558.0"/>
      <point x="245.47403273809522" y="1496.1099702380952"/>
      <point x="244.31324404761904" y="1432.2002232142856" type="qcurve" smooth="yes"/>
      <point x="177.4781994047619" y="898.1219122023809" type="line"/>
    </contour>
    <contour>
      <point x="398.95223214285716" y="898.1219122023809" type="line"/>
      <point x="332.1171875" y="1432.2002232142856" type="line" smooth="yes"/>
      <point x="330.9563988095238" y="1496.1099702380952"/>
      <point x="371.0347098214286" y="1558.0"/>
      <point x="412.5678943452381" y="1558.0" type="qcurve" smooth="yes"/>
      <point x="454.1010788690476" y="1558.0"/>
      <point x="493.59899553571427" y="1496.1099702380952"/>
      <point x="492.4382068452381" y="1432.2002232142856" type="qcurve" smooth="yes"/>
      <point x="425.603162202381" y="898.1219122023809" type="line"/>
    </contour>
  </outline>
</glyph>
<glyph name="percent" format="2">
  <advance width="1230"/>
  <unicode hex="0025"/>
  <outline>
    <contour>
      <point x="29.153013392857144" y="1113.8392113095238" type="qcurve"/>
      <point x="29.153013392857144" y="1287.3568452380953"/>
      <point x="186.8272693452381" y="1520.5803943452381"/>
      <point x="302.9133556547619" y="1520.5803943452381" type="qcurve" smooth="yes"/>
      <point x="429.4190476190476" y="1520.5803943452381"/>
      <point x="579.0933035714286" y="1298.2313244047618"/>
      <point x="579.0933035714286" y="1116.6784226190475" type="qcurve" smooth="yes"/>
      <point x="579.0933035714286" y="930.4823660714286"/>
      <point x="431.2582589285714" y="682.4196056547619"/>
      <point x="305.1721726190476" y="682.4196056547619" type="qcurve" smooth="yes"/>
      <point x="179.0860863095238" y="682.4196056547619"/>
      <point x="29.153013392857144" y="942.18828125"/>
    </contour>
    <contour>
      <point x="204.5798363095238" y="1114.4823660714285" type="qcurve" smooth="yes"/>
      <point x="205.1602306547619" y="876.2199404761905"/>
      <point x="250.79561011904764" y="693.6156622023809"/>
      <point x="302.49375" y="693.6156622023809" type="qcurve" smooth="yes"/>
      <point x="354.1918898809524" y="693.6156622023809"/>
      <point x="400.9880580357143" y="852.1494047619047"/>
      <point x="400.9880580357143" y="1111.803943452381" type="qcurve" smooth="yes"/>
      <point x="400.9880580357143" y="1370.066369047619"/>
      <point x="354.35267857142856" y="1508.2235491071428"/>
      <point x="302.49375" y="1508.2235491071428" type="qcurve" smooth="yes"/>
      <point x="249.79561011904764" y="1508.2235491071428"/>
      <point x="203.5798363095238" y="1355.9408482142858"/>
    </contour>
    <contour>
      <point x="263.80755208333335" y="2.4626488095238095" type="line"/>
      <point x="916.3521205357142" y="1526.6431547619047" type="line"/>
      <point x="953.7872767857143" y="1502.9216889880952" type="line"/>
      <point x="299.9838913690476" y="-23.937239583333334" type="line"/>
    </contour>
    <contour>
      <point x="650.8936383928572" y="417.6706473214286" type="qcurve" smooth="yes"/>
      <point x="650.8936383928572" y="590.6078869047619"/>
      <point x="808.5678943452381" y="818.0274925595238"/>
      <point x="924.6539806547619" y="818.0274925595238" type="qcurve" smooth="yes"/>
      <point x="1051.7400669642857" y="818.0274925595238"/>
      <point x="1200.8339285714285" y="601.4823660714286"/>
      <point x="1200.8339285714285" y="420.5098586309524" type="qcurve" smooth="yes"/>
      <point x="1200.8339285714285" y="222.70591517857142"/>
      <point x="1052.9988839285713" y="-20.13329613095238"/>
      <point x="926.9127976190476" y="-20.13329613095238" type="qcurve" smooth="yes"/>
      <point x="801.4071056547618" y="-20.13329613095238"/>
      <point x="650.8936383928572" y="234.41183035714286"/>
    </contour>
    <contour>
      <point x="826.9008556547619" y="417.15301339285713" type="qcurve" smooth="yes"/>
      <point x="827.48125" y="168.44348958333333"/>
      <point x="873.6970238095238" y="-9.517633928571428"/>
      <point x="924.234375" y="-9.517633928571428" type="qcurve" smooth="yes"/>
      <point x="976.5129092261905" y="-9.517633928571428"/>
      <point x="1022.7286830357143" y="144.37295386904762"/>
      <point x="1022.7286830357143" y="415.0549851190476" type="qcurve" smooth="yes"/>
      <point x="1022.7286830357143" y="673.8978050595238"/>
      <point x="976.0933035714286" y="806.2510416666667"/>
      <point x="924.234375" y="806.2510416666667" type="qcurve" smooth="yes"/>
      <point x="872.1166294642858" y="806.2510416666667"/>
      <point x="825.9008556547619" y="658.6114955357143"/>
    </contour>
  </outline>
</glyph>
<glyph name="parenleft" format="2">
  <advance width="558"/>
  <unicode hex="0028"/>
  <outline>
    <contour>
      <point x="55.21577380952381" y="664.0274925595238" type="qcurve" smooth="yes"/>
      <point x="55.21577380952381" y="965.3921130952381"/>
      <point x="316.32518601190475" y="1398.043043154762"/>
      <point x="492.8189360119047" y="1513.007775297619" type="qcurve"/>
      <point x="513.2815848214286" y="1485.7686755952382" type="line"/>
      <point x="393.85420386904764" y="1369.7411830357144"/>
      <point x="288.3168526785714" y="962.0627604166667"/>
      <point x="288.3168526785714" y="665.0274925595238" type="qcurve" smooth="yes"/>
      <point x="288.3168526785714" y="367.15301339285713"/>
      <point x="405.28158482142857" y="-30.588169642857142"/>
      <point x="520.3168526785714" y="-146.70591517857142" type="qcurve"/>
      <point x="497.5953869047619" y="-174.20383184523808" type="line"/>
      <point x="302.4507068452381" y="-63.56845238095238"/>
      <point x="55.21577380952381" y="370.9844494047619"/>
    </contour>
  </outline>
</glyph>
<glyph name="parenright" format="2">
  <advance width="558"/>
  <unicode hex="0029"/>
  <outline>
    <contour>
      <point x="502.86197916666663" y="675.3568452380953" type="qcurve" smooth="yes"/>
      <point x="502.86197916666663" y="379.7961681547619"/>
      <point x="242.3329613095238" y="-58.07831101190476"/>
      <point x="64.67842261904762" y="-174.20383184523808" type="qcurve"/>
      <point x="43.63537946428572" y="-147.54512648809524" type="line"/>
      <point x="160.74118303571427" y="-28.035267857142856"/>
      <point x="269.18050595238094" y="378.48236607142854"/>
      <point x="269.18050595238094" y="675.5176339285714" type="qcurve" smooth="yes"/>
      <point x="269.18050595238094" y="973.3921130952381"/>
      <point x="155.11774553571428" y="1372.8744791666666"/>
      <point x="38.34129464285714" y="1484.9294642857142" type="qcurve"/>
      <point x="61.06276041666667" y="1513.007775297619" type="line"/>
      <point x="253.8858630952381" y="1403.5331845238095"/>
      <point x="502.86197916666663" y="974.2038318452381"/>
    </contour>
  </outline>
</glyph>
<glyph name="hyphen" format="2">
  <advance width="707"/>
  <unicode hex="002D"/>
  <outline>
    <contour>
      <point x="68.70591517857143" y="564.8786458333334" type="line"/>
      <point x="68.70591517857143" y="717.1016369047619" type="line"/>
      <point x="354.33690356182797" y="717.1016369047619" type="line"/>
      <point x="639.9678919450845" y="717.1016369047619" type="line"/>
      <point x="639.9678919450845" y="564.8786458333334" type="line"/>
      <point x="354.33690356182797" y="564.8786458333334" type="line"/>
    </contour>
  </outline>
</glyph>
<glyph name="four" format="2">
  <advance width="657"/>
  <unicode hex="0034"/>
  <outline>
    <contour>
      <point x="-31.65093005952381" y="530.6078869047619" type="line"/>
      <point x="397.70952380952383" y="1516.615662202381" type="line"/>
      <point x="516.8619791666666" y="1511.8392113095238" type="line"/>
      <point x="534.1560639880952" y="1472.8392113095238" type="line"/>
      <point x="531.1560639880952" y="529.4823660714286" type="line"/>
      <point x="530.7364583333333" y="61.36462053571428" type="line"/>
      <point x="642.4268229166667" y="28.105803571428574" type="line"/>
      <point x="642.4268229166667" y="0.0" type="line"/>
      <point x="218.6389880952381" y="0.0" type="line"/>
      <point x="218.6389880952381" y="28.105803571428574" type="line"/>
      <point x="356.3998883928571" y="61.36462053571428" type="line"/>
      <point x="354.0430431547619" y="532.4823660714286" type="line"/>
      <point x="352.8822544642857" y="1347.686755952381" type="line"/>
      <point x="31.631212797619046" y="568.1058035714286" type="line"/>
      <point x="32.69397321428571" y="556.5881696428571" type="line"/>
      <point x="660.6659226190476" y="560.81171875" type="line"/>
      <point x="660.6659226190476" y="502.2157738095238" type="line"/>
      <point x="-26.231324404761907" y="498.76090029761906" type="line"/>
    </contour>
  </outline>
</glyph>
<glyph name="at" format="2">
  <advance width="1074"/>
  <unicode hex="0040"/>
  <outline>
    <contour>
      <point x="25.13329613095238" y="749.5098586309524" type="qcurve" smooth="yes"/>
      <point x="25.13329613095238" y="1105.3568452380953"/>
      <point x="351.1410714285714" y="1494.0197172619048"/>
      <point x="556.7997767857142" y="1494.0197172619048" type="qcurve" smooth="yes"/>
      <point x="783.5212425595238" y="1494.0197172619048"/>
      <point x="1058.921130952381" y="1132.3646205357143"/>
      <point x="1058.921130952381" y="816.43515625" type="qcurve" smooth="yes"/>
      <point x="1058.921130952381" y="592.8941964285714"/>
      <point x="901.0036086309524" y="361.8667038690476"/>
      <point x="785.1566220238095" y="361.8667038690476" type="qcurve" smooth="yes"/>
      <point x="710.5409598214286" y="361.8667038690476"/>
      <point x="635.7292410714285" y="438.4040550595238"/>
      <point x="630.43515625" y="497.9844494047619" type="qcurve"/>
      <point x="616.6234375" y="444.4040550595238"/>
      <point x="528.0783110119048" y="369.96473214285714"/>
      <point x="460.9175223214286" y="369.96473214285714" type="qcurve" smooth="yes"/>
      <point x="390.95279017857143" y="369.96473214285714"/>
      <point x="279.3998883928571" y="460.70591517857144"/>
      <point x="279.3998883928571" y="561.4823660714286" type="qcurve" smooth="yes"/>
      <point x="279.3998883928571" y="679.5803943452381"/>
      <point x="479.40766369047617" y="827.4118303571429"/>
      <point x="663.6664806547619" y="846.231324404762" type="qcurve"/>
      <point x="666.4429315476191" y="825.6784226190476" type="line"/>
      <point x="521.0113839285714" y="809.8589285714286"/>
      <point x="402.86614583333335" y="652.6431547619047"/>
      <point x="402.86614583333335" y="535.4040550595238" type="qcurve" smooth="yes"/>
      <point x="402.86614583333335" y="461.96473214285714"/>
      <point x="448.7250744047619" y="407.8822544642857"/>
      <point x="496.68203125" y="407.8822544642857" type="qcurve" smooth="yes"/>
      <point x="549.9605654761905" y="407.8822544642857"/>
      <point x="616.7489583333333" y="478.3765625"/>
      <point x="625.3018601190477" y="555.8433779761905" type="qcurve" smooth="yes"/>
      <point x="627.7214657738095" y="931.9605654761905" type="line" smooth="yes"/>
      <point x="627.7214657738095" y="1040.5176339285715"/>
      <point x="558.1841145833333" y="1128.8941964285714"/>
      <point x="498.9252976190476" y="1128.8941964285714" type="qcurve" smooth="yes"/>
      <point x="453.6037202380952" y="1128.8941964285714"/>
      <point x="382.99583333333334" y="1075.607886904762"/>
      <point x="374.4781994047619" y="1035.4470982142857" type="qcurve"/>
      <point x="406.7722842261905" y="1030.7686755952382"/>
      <point x="467.03887648809524" y="990.572619047619"/>
      <point x="467.03887648809524" y="953.8236607142857" type="qcurve" smooth="yes"/>
      <point x="466.6192708333333" y="918.3962797619048"/>
      <point x="426.4154389880952" y="884.0669270833333"/>
      <point x="394.40766369047617" y="884.0669270833333" type="qcurve" smooth="yes"/>
      <point x="356.81949404761906" y="884.0669270833333"/>
      <point x="314.7136904761905" y="940.2707589285715"/>
      <point x="315.1332961309524" y="988.1805059523809" type="qcurve" smooth="yes"/>
      <point x="315.5529017857143" y="1062.411830357143"/>
      <point x="432.0155505952381" y="1161.6784226190475"/>
      <point x="530.8703125" y="1161.6784226190475" type="qcurve" smooth="yes"/>
      <point x="628.4034970238096" y="1161.6784226190475"/>
      <point x="749.7053571428571" y="1045.3568452380953"/>
      <point x="750.7053571428571" y="903.9372395833333" type="qcurve" smooth="yes"/>
      <point x="754.124962797619" y="515.9569568452381" type="line" smooth="yes"/>
      <point x="754.7053571428571" y="464.77645089285716"/>
      <point x="796.1799479166666" y="419.8822544642857"/>
      <point x="824.921130952381" y="419.8822544642857" type="qcurve" smooth="yes"/>
      <point x="908.2976934523809" y="419.8822544642857"/>
      <point x="1000.9605654761905" y="609.9647321428571"/>
      <point x="1000.9605654761905" y="813.5959449404762" type="qcurve" smooth="yes"/>
      <point x="1000.9605654761905" y="1126.803943452381"/>
      <point x="759.8780877976191" y="1470.0119419642858"/>
      <point x="554.5409598214286" y="1470.0119419642858" type="qcurve" smooth="yes"/>
      <point x="359.07831101190476" y="1470.0119419642858"/>
      <point x="95.36045386904762" y="1096.5176339285715"/>
      <point x="95.36045386904762" y="745.992224702381" type="qcurve" smooth="yes"/>
      <point x="95.36045386904762" y="357.3765625"/>
      <point x="343.8978050595238" y="16.533184523809524"/>
      <point x="544.3251860119047" y="16.533184523809524" type="qcurve" smooth="yes"/>
      <point x="651.485974702381" y="16.533184523809524"/>
      <point x="824.689806547619" y="106.77645089285714"/>
      <point x="861.8936383928572" y="155.03526785714286" type="qcurve"/>
      <point x="875.0269345238095" y="139.0274925595238" type="line"/>
      <point x="838.5642857142857" y="87.70591517857143"/>
      <point x="656.8780877976191" y="-6.5373511904761905"/>
      <point x="539.0311011904762" y="-6.5373511904761905" type="qcurve" smooth="yes"/>
      <point x="314.72146577380954" y="-6.5373511904761905"/>
      <point x="25.13329613095238" y="361.80394345238096"/>
    </contour>
  </outline>
</glyph>
<glyph name="B" format="2">
  <advance width="939"/>
  <unicode hex="0042"/>
  <outline>
    <contour>
      <point x="14.286309523809525" y="0.0" type="line"/>
      <point x="14.286309523809525" y="29.525409226190476" type="line"/>
      <point x="119.91391369047619" y="63.525409226190476" type="line"/>
      <point x="121.91391369047619" y="744.8941964285714" type="line"/>
      <point x="119.91391369047619" y="1434.4745907738095" type="line"/>
      <point x="14.286309523809525" y="1468.4745907738095" type="line"/>
      <point x="14.286309523809525" y="1500.0" type="line"/>
      <point x="497.8147693452381" y="1500.0" type="line" smooth="yes"/>
      <point x="663.8853050595238" y="1500.0"/>
      <point x="828.8930803571428" y="1321.8667038690476"/>
      <point x="828.8930803571428" y="1173.8314360119048" type="qcurve" smooth="yes"/>
      <point x="828.8930803571428" y="1037.6353794642857"/>
      <point x="704.9205729166666" y="866.1530133928571"/>
      <point x="601.9127976190476" y="840.4118303571429" type="qcurve"/>
      <point x="601.9127976190476" y="834.572619047619" type="line"/>
      <point x="725.0108258928572" y="816.4745907738095"/>
      <point x="904.1363467261905" y="622.5451264880952"/>
      <point x="904.1363467261905" y="437.96473214285714" type="qcurve" smooth="yes"/>
      <point x="904.1363467261905" y="244.19605654761904"/>
      <point x="703.038318452381" y="0.0"/>
      <point x="525.4776413690477" y="0.0" type="qcurve" smooth="yes"/>
    </contour>
    <contour>
      <point x="346.5326264880953" y="54.882254464285715" type="line"/>
      <point x="364.0149925595238" y="37.36462053571428" type="line"/>
      <point x="464.3760044642857" y="36.2038318452381" type="line" smooth="yes"/>
      <point x="557.0036086309524" y="35.043043154761904"/>
      <point x="663.8392113095238" y="212.80394345238096"/>
      <point x="663.8392113095238" y="453.19605654761904" type="qcurve" smooth="yes"/>
      <point x="663.8392113095238" y="663.7489583333333"/>
      <point x="534.7095238095238" y="810.4040550595238"/>
      <point x="436.7053571428571" y="810.4040550595238" type="qcurve" smooth="yes"/>
      <point x="345.7286830357143" y="810.4040550595238" type="line"/>
      <point x="342.5326264880953" y="800.9844494047619" type="line"/>
    </contour>
    <contour>
      <point x="344.5326264880953" y="852.1530133928571" type="line"/>
      <point x="345.3090773809524" y="841.5098586309524" type="line"/>
      <point x="436.9916666666667" y="841.5098586309524" type="line" smooth="yes"/>
      <point x="516.3957217261905" y="841.5098586309524"/>
      <point x="603.5684523809524" y="992.5845610119047"/>
      <point x="603.5684523809524" y="1172.4745907738095" type="qcurve" smooth="yes"/>
      <point x="603.5684523809524" y="1353.8469866071428"/>
      <point x="515.9408482142857" y="1461.4745907738095"/>
      <point x="420.45431547619046" y="1461.4745907738095" type="qcurve" smooth="yes"/>
      <point x="363.23854166666666" y="1461.4745907738095" type="line"/>
      <point x="346.5326264880953" y="1444.0902529761904" type="line"/>
    </contour>
  </outline>
</glyph>
<glyph name="C" format="2">
  <advance width="847"/>
  <unicode hex="0043"/>
  <outline>
    <contour>
      <point x="45.02749255952381" y="747.2940848214286" type="qcurve" smooth="yes"/>
      <point x="45.02749255952381" y="1105.5254092261905"/>
      <point x="299.1841145833333" y="1513.9372395833334"/>
      <point x="493.20744047619047" y="1513.9372395833334" type="qcurve" smooth="yes"/>
      <point x="607.0191592261905" y="1513.9372395833334"/>
      <point x="732.7328497023809" y="1426.203831845238"/>
      <point x="760.6073288690476" y="1384.819494047619" type="qcurve"/>
      <point x="789.3837797619047" y="1492.6431547619047" type="line"/>
      <point x="819.1052455357143" y="1492.6431547619047" type="line"/>
      <point x="817.8464285714285" y="1009.1805059523809" type="line"/>
      <point x="778.8308779761904" y="1009.1805059523809" type="line"/>
      <point x="749.2779761904762" y="1226.7489583333333" type="line" smooth="yes"/>
      <point x="734.4387648809524" y="1339.9725074404762"/>
      <point x="618.1877232142857" y="1477.0902529761904"/>
      <point x="526.0699776785714" y="1477.0902529761904" type="qcurve" smooth="yes"/>
      <point x="415.34434523809523" y="1477.0902529761904"/>
      <point x="301.3049107142857" y="1185.0072172619048"/>
      <point x="300.14412202380953" y="750.9802827380952" type="qcurve" smooth="yes"/>
      <point x="298.98333333333335" y="336.29047619047617"/>
      <point x="433.88947172619044" y="34.98028273809524"/>
      <point x="561.8464285714285" y="34.98028273809524" type="qcurve" smooth="yes"/>
      <point x="653.8111607142857" y="34.98028273809524"/>
      <point x="789.8386532738095" y="195.6939732142857"/>
      <point x="812.3562872023809" y="318.6587053571429" type="qcurve"/>
      <point x="842.3993303571428" y="311.8822544642857" type="line"/>
      <point x="823.6228794642857" y="165.0705357142857"/>
      <point x="650.2229910714286" y="-16.482366071428572"/>
      <point x="500.6545386904762" y="-16.482366071428572" type="qcurve" smooth="yes"/>
      <point x="303.6389880952381" y="-16.482366071428572"/>
      <point x="45.02749255952381" y="365.8744791666667"/>
    </contour>
  </outline>
</glyph>
<glyph name="D" format="2">
  <advance width="983"/>
  <unicode hex="0044"/>
  <outline>
    <contour>
      <point x="14.286309523809525" y="0.0" type="line"/>
      <point x="14.286309523809525" y="28.525409226190476" type="line"/>
      <point x="119.91391369047619" y="67.52540922619048" type="line"/>
      <point x="121.91391369047619" y="759.0" type="line"/>
      <point x="119.91391369047619" y="1431.8228273809523" type="line"/>
      <point x="14.286309523809525" y="1468.8228273809523" type="line"/>
      <point x="14.286309523809525" y="1500.0" type="line"/>
      <point x="466.6425967261905" y="1501.7411830357144" type="line" smooth="yes"/>
      <point x="692.3090773809524" y="1502.9019717261904"/>
      <point x="934.7011904761905" y="1165.0"/>
      <point x="934.7011904761905" y="777.0" type="qcurve" smooth="yes"/>
      <point x="934.7011904761905" y="403.1255208333333"/>
      <point x="708.9522321428572" y="0.0"/>
      <point x="510.748400297619" y="0.0" type="qcurve" smooth="yes"/>
    </contour>
    <contour>
      <point x="351.9875" y="52.392113095238095" type="line"/>
      <point x="361.21104910714286" y="46.65093005952381"/>
      <point x="431.544568452381" y="34.00777529761905"/>
      <point x="473.2427083333333" y="34.00777529761905" type="qcurve" smooth="yes"/>
      <point x="589.9527901785714" y="34.00777529761905"/>
      <point x="694.5001083069317" y="280.0841370247696"/>
      <point x="695.6639292914747" y="762.2439601934524" type="qcurve" smooth="yes"/>
      <point x="696.2473559307796" y="1217.9229407882103"/>
      <point x="576.0938616071428" y="1467.0549851190476"/>
      <point x="461.8308779761905" y="1467.0549851190476" type="qcurve" smooth="yes"/>
      <point x="427.5798363095238" y="1467.0549851190476"/>
      <point x="365.24875822052616" y="1458.0597061011906"/>
      <point x="352.151320984543" y="1450.7404892113095" type="qcurve"/>
      <point x="349.5678943452381" y="760.1255208333333" type="line"/>
    </contour>
  </outline>
</glyph>
<glyph name="E" format="2">
  <advance width="858"/>
  <unicode hex="0045"/>
  <outline>
    <contour>
      <point x="14.286309523809525" y="0.0" type="line"/>
      <point x="14.286309523809525" y="29.525409226190476" type="line"/>
      <point x="120.49430803571428" y="62.2038318452381" type="line"/>
      <point x="122.49430803571428" y="743.4118303571429" type="line"/>
      <point x="120.49430803571428" y="1436.2157738095239" type="line"/>
      <point x="14.286309523809525" y="1470.2157738095239" type="line"/>
      <point x="14.286309523809525" y="1500.0" type="line"/>
      <point x="769.6348214285714" y="1500.0" type="line"/>
      <point x="769.6348214285714" y="1129.5020833333333" type="line"/>
      <point x="740.689806547619" y="1129.5020833333333" type="line"/>
      <point x="659.1016369047619" y="1464.3765625" type="line"/>
      <point x="385.1482886904762" y="1464.3765625" type="line"/>
      <point x="352.5678943452381" y="1439.1177455357142" type="line"/>
      <point x="351.4071056547619" y="785.7411830357142" type="line"/>
      <point x="352.5678943452381" y="63.78422619047619" type="line"/>
      <point x="382.2738095238095" y="35.043043154761904" type="line"/>
      <point x="689.3251860119047" y="35.043043154761904" type="line"/>
      <point x="800.0113839285714" y="402.10580357142857" type="line"/>
      <point x="826.9563988095238" y="402.10580357142857" type="line"/>
      <point x="800.7956101190476" y="0.0" type="line"/>
    </contour>
    <contour>
      <point x="263.0311011904762" y="771.4470982142857" type="line"/>
      <point x="263.0311011904762" y="798.231324404762" type="line"/>
      <point x="594.5290178571429" y="805.231324404762" type="line"/>
      <point x="663.8936383928572" y="1006.8392113095238" type="line"/>
      <point x="689.9994419642857" y="1006.8392113095238" type="line"/>
      <point x="689.9994419642857" y="560.4823660714286" type="line"/>
      <point x="663.8936383928572" y="560.4823660714286" type="line"/>
      <point x="594.5290178571429" y="767.3490699404762" type="line"/>
    </contour>
  </outline>
</glyph>
<glyph name="F" format="2">
  <advance width="754"/>
  <unicode hex="0046"/>
  <outline>
    <contour>
      <point x="14.286309523809525" y="0.0" type="line"/>
      <point x="14.286309523809525" y="29.525409226190476" type="line"/>
      <point x="120.49430803571428" y="62.525409226190476" type="line"/>
      <point x="122.49430803571428" y="760.2235491071428" type="line"/>
      <point x="120.49430803571428" y="1434.4745907738095" type="line"/>
      <point x="14.286309523809525" y="1468.4745907738095" type="line"/>
      <point x="14.286309523809525" y="1500.0" type="line"/>
      <point x="734.8308779761904" y="1500.0" type="line"/>
      <point x="734.8308779761904" y="1119.5020833333333" type="line"/>
      <point x="705.9486235119048" y="1119.5020833333333" type="line"/>
      <point x="619.3604538690477" y="1463.796168154762" type="line"/>
      <point x="370.96000744047615" y="1463.796168154762" type="line"/>
      <point x="348.4071056547619" y="1429.411830357143" type="line"/>
      <point x="348.7286830357143" y="794.8589285714286" type="line"/>
      <point x="350.7286830357143" y="66.52540922619048" type="line"/>
      <point x="477.8739211309524" y="29.945014880952378" type="line"/>
      <point x="477.8739211309524" y="0.0" type="line"/>
    </contour>
    <contour>
      <point x="252.67425595238095" y="771.6078869047619" type="line"/>
      <point x="252.67425595238095" y="805.3921130952381" type="line"/>
      <point x="571.3407366071428" y="806.0705357142857" type="line"/>
      <point x="639.0896949404762" y="998.0980282738095" type="line"/>
      <point x="668.7758928571428" y="998.0980282738095" type="line"/>
      <point x="668.7758928571428" y="547.9725074404762" type="line"/>
      <point x="639.0896949404762" y="547.9725074404762" type="line"/>
      <point x="571.3407366071428" y="766.2863095238096" type="line"/>
    </contour>
  </outline>
</glyph>
<glyph name="G" format="2">
  <advance width="966"/>
  <unicode hex="0047"/>
  <outline>
    <contour>
      <point x="46.18828125" y="755.1607886904762" type="qcurve" smooth="yes"/>
      <point x="46.18828125" y="1113.9450148809524"/>
      <point x="311.7017485119048" y="1517.5803943452381"/>
      <point x="505.17994791666666" y="1517.5803943452381" type="qcurve" smooth="yes"/>
      <point x="609.3760044642858" y="1517.5803943452381"/>
      <point x="744.7053571428571" y="1429.0783110119048"/>
      <point x="769.3562872023809" y="1391.3018601190477" type="qcurve"/>
      <point x="798.8386532738095" y="1490.3215773809525" type="line"/>
      <point x="829.8189360119047" y="1489.7411830357144" type="line"/>
      <point x="829.8189360119047" y="1024.2863095238095" type="line"/>
      <point x="791.9014136904761" y="1024.2863095238095" type="line"/>
      <point x="758.313244047619" y="1222.3371279761905" type="line" smooth="yes"/>
      <point x="735.8936383928572" y="1368.6431547619047"/>
      <point x="622.6503720238095" y="1485.3765625"/>
      <point x="545.2032738095238" y="1485.3765625" type="qcurve" smooth="yes"/>
      <point x="436.28158482142857" y="1485.3765625"/>
      <point x="295.7872767857143" y="1223.0036086309524"/>
      <point x="295.7872767857143" y="764.3490699404762" type="qcurve" smooth="yes"/>
      <point x="295.7872767857143" y="290.16134672619046"/>
      <point x="412.26603422619047" y="19.945014880952378"/>
      <point x="518.2976934523809" y="19.945014880952378" type="qcurve" smooth="yes"/>
      <point x="568.7370163690476" y="19.945014880952378"/>
      <point x="649.3293526785715" y="68.22354910714286"/>
      <point x="660.9725074404762" y="85.18828125" type="qcurve"/>
      <point x="660.9725074404762" y="627.8158854166667" type="line"/>
      <point x="558.7920014880953" y="656.0747023809524" type="line"/>
      <point x="558.7920014880953" y="684.0197172619048" type="line"/>
      <point x="970.9247395833333" y="684.0197172619048" type="line"/>
      <point x="970.9247395833333" y="656.0747023809524" type="line"/>
      <point x="875.2618675595238" y="627.8158854166667" type="line"/>
      <point x="875.2618675595238" y="113.39988839285715" type="line"/>
      <point x="817.1913318452381" y="59.16856398809524"/>
      <point x="607.7758928571428" y="-15.32157738095238"/>
      <point x="500.9133556547619" y="-15.32157738095238" type="qcurve" smooth="yes"/>
      <point x="309.05081845238095" y="-15.32157738095238"/>
      <point x="46.18828125" y="366.99222470238095"/>
    </contour>
  </outline>
</glyph>
<glyph name="I" format="2">
  <advance width="503"/>
  <unicode hex="0049"/>
  <outline>
    <contour>
      <point x="20.090252976190477" y="0.0" type="line"/>
      <point x="20.090252976190477" y="29.525409226190476" type="line"/>
      <point x="134.20799851190475" y="64.52540922619048" type="line"/>
      <point x="136.20799851190475" y="754.0" type="line"/>
      <point x="134.20799851190475" y="1434.5616499255952" type="line"/>
      <point x="20.090252976190477" y="1468.5616499255952" type="line"/>
      <point x="20.090252976190477" y="1500.0" type="line"/>
      <point x="482.97972470238096" y="1500.0" type="line"/>
      <point x="482.97972470238096" y="1468.5616499255952" type="line"/>
      <point x="368.86197916666663" y="1434.5616499255952" type="line"/>
      <point x="366.86197916666663" y="754.0" type="line"/>
      <point x="368.86197916666663" y="63.525409226190476" type="line"/>
      <point x="482.97972470238096" y="29.525409226190476" type="line"/>
      <point x="482.97972470238096" y="0.0" type="line"/>
    </contour>
  </outline>
</glyph>
<glyph name="K" format="2">
  <advance width="927"/>
  <unicode hex="004B"/>
  <outline>
    <contour>
      <point x="14.286309523809525" y="0.0" type="line"/>
      <point x="14.286309523809525" y="29.525409226190476" type="line"/>
      <point x="119.91391369047619" y="64.52540922619048" type="line"/>
      <point x="121.91391369047619" y="754.0" type="line"/>
      <point x="119.91391369047619" y="1434.4745907738095" type="line"/>
      <point x="14.286309523809525" y="1468.4745907738095" type="line"/>
      <point x="14.286309523809525" y="1500.0" type="line"/>
      <point x="458.35628720238094" y="1500.0" type="line"/>
      <point x="458.35628720238094" y="1468.4745907738095" type="line"/>
      <point x="352.5678943452381" y="1434.4745907738095" type="line"/>
      <point x="349.3090773809524" y="754.0" type="line"/>
      <point x="352.5678943452381" y="64.52540922619048" type="line"/>
      <point x="454.1602306547619" y="29.525409226190476" type="line"/>
      <point x="454.1602306547619" y="0.0" type="line"/>
    </contour>
    <contour>
      <point x="228.89780505952382" y="434.1966145833333" type="line"/>
      <point x="227.05859375" y="498.5690104166667" type="line"/>
      <point x="756.2385416666666" y="1429.2510416666667" type="line"/>
      <point x="629.3443452380952" y="1468.8941964285714" type="line"/>
      <point x="629.3443452380952" y="1500.0" type="line"/>
      <point x="953.6384300595238" y="1500.0" type="line"/>
      <point x="953.6384300595238" y="1468.8941964285714" type="line"/>
      <point x="803.9325148809523" y="1428.6706473214285" type="line"/>
      <point x="502.2463169642857" y="894.427380952381" type="line"/>
      <point x="485.0777529761905" y="873.2588169642858" type="line"/>
    </contour>
    <contour>
      <point x="421.92113095238096" y="794.933630952381" type="line"/>
      <point x="567.1166294642858" y="1037.4268229166667" type="line"/>
      <point x="923.1674479166667" y="63.525409226190476" type="line"/>
      <point x="1039.822544642857" y="29.525409226190476" type="line"/>
      <point x="1039.822544642857" y="0.0" type="line"/>
      <point x="598.0466517857143" y="0.0" type="line"/>
      <point x="598.0466517857143" y="29.525409226190476" type="line"/>
      <point x="680.8978050595238" y="63.525409226190476" type="line"/>
    </contour>
  </outline>
</glyph>
<glyph name="L" format="2">
  <advance width="789"/>
  <unicode hex="004C"/>
  <outline>
    <contour>
      <point x="19.32157738095238" y="0.0" type="line"/>
      <point x="19.32157738095238" y="29.525409226190476" type="line"/>
      <point x="120.49430803571428" y="67.52540922619048" type="line"/>
      <point x="121.91391369047619" y="754.0" type="line"/>
      <point x="119.91391369047619" y="1434.4745907738095" type="line"/>
      <point x="14.286309523809525" y="1468.4745907738095" type="line"/>
      <point x="14.286309523809525" y="1500.0" type="line"/>
      <point x="488.93668154761906" y="1500.0" type="line"/>
      <point x="488.93668154761906" y="1468.4745907738095" type="line"/>
      <point x="355.2463169642857" y="1434.4745907738095" type="line"/>
      <point x="351.5678943452381" y="754.0" type="line"/>
      <point x="352.4071056547619" y="58.94501488095238" type="line"/>
      <point x="384.95223214285716" y="37.94501488095238" type="line"/>
      <point x="644.4309895833334" y="37.94501488095238" type="line"/>
      <point x="751.3760044642858" y="422.07831101190476" type="line"/>
      <point x="781.0269345238095" y="422.07831101190476" type="line"/>
      <point x="753.124962797619" y="0.0" type="line"/>
    </contour>
  </outline>
</glyph>
<glyph name="S" format="2">
  <advance width="747"/>
  <unicode hex="0053"/>
  <outline>
    <contour>
      <point x="31.21577380952381" y="0.5803943452380953" type="line"/>
      <point x="31.21577380952381" y="453.16856398809523" type="line"/>
      <point x="66.13329613095237" y="453.16856398809523" type="line"/>
      <point x="102.90197172619048" y="266.6664806547619" type="line" smooth="yes"/>
      <point x="125.64315476190477" y="146.49791666666667"/>
      <point x="261.09025297619047" y="12.239099702380951"/>
      <point x="349.06276041666666" y="12.239099702380951" type="qcurve" smooth="yes"/>
      <point x="435.9019717261905" y="12.239099702380951"/>
      <point x="555.9294642857143" y="163.44709821428572"/>
      <point x="555.9294642857143" y="285.01971726190476" type="qcurve" smooth="yes"/>
      <point x="555.9294642857143" y="401.85115327380953"/>
      <point x="463.22354910714284" y="559.3454613095238"/>
      <point x="305.03526785714286" y="673.1494047619047" type="qcurve" smooth="yes"/>
      <point x="133.74895833333332" y="796.6317708333333"/>
      <point x="37.69813988095238" y="1011.2199404761905"/>
      <point x="37.69813988095238" y="1161.2354910714287" type="qcurve" smooth="yes"/>
      <point x="37.69813988095238" y="1316.6981398809523"/>
      <point x="218.95279017857143" y="1515.3568452380953"/>
      <point x="341.3879464285714" y="1514.9372395833334" type="qcurve" smooth="yes"/>
      <point x="439.36822916666665" y="1514.5176339285715"/>
      <point x="565.5093005952381" y="1432.7136904761905"/>
      <point x="593.7681175595238" y="1378.3018601190477" type="qcurve"/>
      <point x="623.8661458333333" y="1496.0627604166666" type="line"/>
      <point x="648.3915550595239" y="1496.0627604166666" type="line"/>
      <point x="648.3915550595239" y="1080.145238095238" type="line"/>
      <point x="613.2152157738095" y="1080.145238095238" type="line"/>
      <point x="572.313244047619" y="1277.56484375" type="line" smooth="yes"/>
      <point x="552.1524553571428" y="1375.0824776785714"/>
      <point x="439.9563988095238" y="1476.537351190476"/>
      <point x="357.7250744047619" y="1476.537351190476" type="qcurve" smooth="yes"/>
      <point x="274.6270461309524" y="1476.537351190476"/>
      <point x="166.8308779761905" y="1341.4273809523809"/>
      <point x="166.8308779761905" y="1234.8272693452382" type="qcurve" smooth="yes"/>
      <point x="166.8308779761905" y="1137.9330729166666"/>
      <point x="266.5798363095238" y="1001.2349330357143"/>
      <point x="433.2582589285714" y="882.8780877976191" type="qcurve" smooth="yes"/>
      <point x="607.0269345238095" y="760.0741443452381"/>
      <point x="723.7561755952381" y="529.9683407738095"/>
      <point x="723.7561755952381" y="373.6037202380952" type="qcurve" smooth="yes"/>
      <point x="723.7561755952381" y="195.11357886904761"/>
      <point x="528.4034970238096" y="-24.901971726190474"/>
      <point x="389.86253720238096" y="-24.901971726190474" type="qcurve" smooth="yes"/>
      <point x="282.26659226190475" y="-24.901971726190474"/>
      <point x="138.83921130952382" y="61.15301339285715"/>
      <point x="100.1607886904762" y="126.01194196428571" type="qcurve"/>
      <point x="54.64315476190476" y="0.5803943452380953" type="line"/>
    </contour>
  </outline>
</glyph>
<glyph name="T" format="2">
  <advance width="888"/>
  <unicode hex="0054"/>
  <outline>
    <contour>
      <point x="11.16078869047619" y="1148.0669270833334" type="line"/>
      <point x="11.16078869047619" y="1500.0" type="line"/>
      <point x="877.17578125" y="1500.0" type="line"/>
      <point x="877.17578125" y="1148.0669270833334" type="line"/>
      <point x="848.55234375" y="1148.0669270833334" type="line"/>
      <point x="758.7681175595238" y="1464.3765625" type="line"/>
      <point x="597.6306547619048" y="1464.3765625" type="line"/>
      <point x="567.379613095238" y="1461.0197172619048" type="line"/>
      <point x="567.0580357142858" y="754.0" type="line"/>
      <point x="570.2188244047619" y="62.525409226190476" type="line"/>
      <point x="680.2307663690476" y="28.525409226190476" type="line"/>
      <point x="680.2307663690476" y="0.0" type="line"/>
      <point x="214.3921130952381" y="0.0" type="line"/>
      <point x="214.3921130952381" y="28.525409226190476" type="line"/>
      <point x="332.66287202380954" y="62.525409226190476" type="line"/>
      <point x="336.66287202380954" y="754.0" type="line"/>
      <point x="337.92168898809524" y="1459.8589285714286" type="line"/>
      <point x="305.09025297619047" y="1464.3765625" type="line"/>
      <point x="126.11357886904761" y="1464.3765625" type="line"/>
      <point x="40.525409226190476" y="1148.0669270833334" type="line"/>
    </contour>
  </outline>
</glyph>
<glyph name="U" format="2">
  <advance width="923"/>
  <unicode hex="0055"/>
  <outline>
    <contour>
      <point x="13.866703869047619" y="1469.4745907738095" type="line"/>
      <point x="13.866703869047619" y="1500.0" type="line"/>
      <point x="461.8464285714286" y="1500.0" type="line"/>
      <point x="461.8464285714286" y="1469.4745907738095" type="line"/>
      <point x="355.7639508928571" y="1435.4745907738095" type="line"/>
      <point x="353.34434523809523" y="797.4823660714286" type="line"/>
      <point x="353.34434523809523" y="377.18828125" type="line" smooth="yes"/>
      <point x="353.34434523809523" y="200.87447916666667"/>
      <point x="434.4620907738095" y="43.70174851190476"/>
      <point x="550.4112723214286" y="43.70174851190476" type="qcurve" smooth="yes"/>
      <point x="654.1721726190476" y="43.70174851190476"/>
      <point x="759.05859375" y="197.6234375"/>
      <point x="759.2193824404762" y="390.7136904761905" type="qcurve" smooth="yes"/>
      <point x="759.5409598214286" y="794.0" type="line"/>
      <point x="758.2821428571428" y="1431.992224702381" type="line"/>
      <point x="618.4584821428572" y="1470.0549851190476" type="line"/>
      <point x="618.4584821428572" y="1500.0" type="line"/>
      <point x="908.7370163690476" y="1500.0" type="line"/>
      <point x="908.7370163690476" y="1470.0549851190476" type="line"/>
      <point x="794.5212425595238" y="1431.992224702381" type="line"/>
      <point x="794.9408482142857" y="794.0" type="line"/>
      <point x="796.5212425595238" y="383.03526785714286" type="line" smooth="yes"/>
      <point x="797.5212425595238" y="165.96473214285714"/>
      <point x="633.254650297619" y="-13.32157738095238"/>
      <point x="473.0155505952381" y="-13.32157738095238" type="qcurve" smooth="yes"/>
      <point x="300.32157738095236" y="-13.32157738095238"/>
      <point x="115.85115327380953" y="176.10580357142857"/>
      <point x="116.85115327380953" y="383.69397321428573" type="qcurve" smooth="yes"/>
      <point x="119.43154761904762" y="796.9019717261905" type="line"/>
      <point x="118.5923363095238" y="1435.4745907738095" type="line"/>
    </contour>
  </outline>
</glyph>
<glyph name="V" format="2">
  <advance width="908"/>
  <unicode hex="0056"/>
  <outline>
    <contour>
      <point x="-17.50985863095238" y="1471.8941964285714" type="line"/>
      <point x="-18.34906994047619" y="1500.0" type="line"/>
      <point x="457.6073288690476" y="1500.0" type="line"/>
      <point x="457.6073288690476" y="1471.8941964285714" type="line"/>
      <point x="329.9875" y="1443.8941964285714" type="line"/>
      <point x="437.3013020833333" y="805.7489583333333" type="line"/>
      <point x="551.3837797619047" y="133.57206101190476" type="line"/>
      <point x="665.6623139880952" y="813.3371279761905" type="line"/>
      <point x="769.9761160714286" y="1437.4393229166667" type="line"/>
      <point x="633.3562872023809" y="1471.8941964285714" type="line"/>
      <point x="633.3562872023809" y="1500.0" type="line"/>
      <point x="940.289918154762" y="1500.0" type="line"/>
      <point x="940.289918154762" y="1471.8941964285714" type="line"/>
      <point x="812.1171875" y="1438.0197172619048" type="line"/>
      <point x="705.2229910714286" y="806.9802827380952" type="line"/>
      <point x="569.3562872023809" y="-2.9019717261904763" type="line"/>
      <point x="351.9688988095238" y="-2.9019717261904763" type="line"/>
      <point x="216.03943452380952" y="772.0902529761905" type="line"/>
      <point x="98.1727306547619" y="1441.8941964285714" type="line"/>
    </contour>
  </outline>
</glyph>
<glyph name="W" format="2">
  <advance width="1273"/>
  <unicode hex="0057"/>
  <outline>
    <contour>
      <point x="-12.545126488095239" y="1471.8941964285714" type="line"/>
      <point x="-13.384337797619047" y="1500.0" type="line"/>
      <point x="400.3640625" y="1500.0" type="line"/>
      <point x="400.3640625" y="1471.8941964285714" type="line"/>
      <point x="317.3796130952381" y="1454.341294642857" type="line"/>
      <point x="403.7286830357143" y="799.9097470238095" type="line"/>
      <point x="489.52485119047617" y="172.50930059523807" type="line"/>
      <point x="580.1327380952381" y="716.9527901785714" type="line"/>
      <point x="658.4543154761905" y="1191.3215773809525" type="line"/>
      <point x="688.9522321428572" y="1146.2665922619049" type="line"/>
      <point x="614.6934151785714" y="707.8547619047619" type="line"/>
      <point x="493.4620907738095" y="-1.7411830357142857" type="line"/>
      <point x="292.4315476190476" y="-1.7411830357142857" type="line"/>
      <point x="185.78839285714287" y="759.3490699404762" type="line"/>
      <point x="87.40405505952381" y="1450.760900297619" type="line"/>
    </contour>
    <contour>
      <point x="466.5798363095238" y="1466.6706473214285" type="line"/>
      <point x="466.5798363095238" y="1500.0" type="line"/>
      <point x="889.0694196428572" y="1500.0" type="line"/>
      <point x="889.0694196428572" y="1468.3490699404763" type="line"/>
      <point x="792.2810267857143" y="1453.537351190476" type="line"/>
      <point x="871.2379836309524" y="780.0783110119048" type="line"/>
      <point x="944.3204613095238" y="201.32879464285713" type="line"/>
      <point x="1043.697023809524" y="854.3096354166667" type="line"/>
      <point x="1132.3676711309524" y="1439.2510416666667" type="line"/>
      <point x="1002.9008556547619" y="1471.3138020833333" type="line"/>
      <point x="1002.9008556547619" y="1500.0" type="line"/>
      <point x="1295.1363467261904" y="1500.0" type="line"/>
      <point x="1295.1363467261904" y="1471.3138020833333" type="line"/>
      <point x="1172.704799107143" y="1439.1530133928572" type="line"/>
      <point x="1081.0341517857144" y="844.6939732142857" type="line"/>
      <point x="952.7125744047619" y="-1.7411830357142857" type="line"/>
      <point x="760.8153273809523" y="-1.7411830357142857" type="line"/>
      <point x="664.0741443452381" y="737.8469866071429" type="line"/>
      <point x="568.885863095238" y="1448.2785342261905" type="line"/>
    </contour>
  </outline>
</glyph>
<glyph name="X" format="2">
  <advance width="865"/>
  <unicode hex="0058"/>
  <outline>
    <contour>
      <point x="-17.054985119047622" y="0.0" type="line"/>
      <point x="-17.054985119047622" y="30.525409226190476" type="line"/>
      <point x="130.18050595238094" y="55.72146577380953" type="line"/>
      <point x="396.83143601190477" y="820.9252976190476" type="line"/>
      <point x="490.94862351190477" y="820.9252976190476" type="line"/>
      <point x="696.8075520833333" y="1435.2785342261905" type="line"/>
      <point x="570.7956101190476" y="1470.0549851190476" type="line"/>
      <point x="570.7956101190476" y="1500.0" type="line"/>
      <point x="862.2193824404762" y="1500.0" type="line"/>
      <point x="862.2193824404762" y="1470.0549851190476" type="line"/>
      <point x="736.0466517857143" y="1438.537351190476" type="line"/>
      <point x="514.3760044642858" y="792.5606770833333" type="line"/>
      <point x="424.45487351190474" y="792.5606770833333" type="line"/>
      <point x="173.29408482142858" y="59.14107142857143" type="line"/>
      <point x="319.1727306547619" y="30.525409226190476" type="line"/>
      <point x="319.1727306547619" y="0.0" type="line"/>
    </contour>
    <contour>
      <point x="19.70591517857143" y="1470.0549851190476" type="line"/>
      <point x="19.70591517857143" y="1500.0" type="line"/>
      <point x="463.4895833333333" y="1500.0" type="line"/>
      <point x="463.4895833333333" y="1470.0549851190476" type="line"/>
      <point x="369.4071056547619" y="1433.8941964285714" type="line"/>
      <point x="545.1327380952381" y="821.196056547619" type="line"/>
      <point x="767.30546875" y="59.46264880952381" type="line"/>
      <point x="881.9605654761905" y="30.525409226190476" type="line"/>
      <point x="881.9605654761905" y="0.0" type="line"/>
      <point x="418.7650669642857" y="0.0" type="line"/>
      <point x="418.7650669642857" y="30.525409226190476" type="line"/>
      <point x="529.651488095238" y="59.46264880952381" type="line"/>
      <point x="334.1846726190476" y="737.803943452381" type="line"/>
      <point x="129.55706845238095" y="1431.8941964285714" type="line"/>
    </contour>
  </outline>
</glyph>
<glyph name="Y" format="2">
  <advance width="852"/>
  <unicode hex="0059"/>
  <outline>
    <contour>
      <point x="-16.741183035714286" y="1471.3138020833333" type="line"/>
      <point x="-16.741183035714286" y="1500.0" type="line"/>
      <point x="451.740625" y="1500.0" type="line"/>
      <point x="451.740625" y="1471.3138020833333" type="line"/>
      <point x="332.4071056547619" y="1437.7334077380951" type="line"/>
      <point x="421.6856398809524" y="1090.4823660714285" type="line"/>
      <point x="527.1877232142857" y="696.5959449404762" type="line"/>
      <point x="633.8583705357142" y="1090.1607886904762" type="line"/>
      <point x="726.6270461309524" y="1439.5726190476191" type="line"/>
      <point x="587.9014136904761" y="1471.3138020833333" type="line"/>
      <point x="587.9014136904761" y="1500.0" type="line"/>
      <point x="895.1996651785714" y="1500.0" type="line"/>
      <point x="895.1996651785714" y="1470.0549851190476" type="line"/>
      <point x="761.92890625" y="1438.7334077380951" type="line"/>
      <point x="665.2229910714286" y="1079.384337797619" type="line"/>
      <point x="550.3562872023809" y="644.4823660714286" type="line"/>
      <point x="550.3562872023809" y="64.10580357142857" type="line"/>
      <point x="686.5290178571429" y="31.525409226190476" type="line"/>
      <point x="686.5290178571429" y="0.0" type="line"/>
      <point x="179.27075892857144" y="0.0" type="line"/>
      <point x="179.27075892857144" y="31.525409226190476" type="line"/>
      <point x="314.4434895833333" y="64.10580357142857" type="line"/>
      <point x="316.4434895833333" y="639.8667038690476" type="line"/>
      <point x="203.90613839285714" y="1049.600111607143" type="line"/>
      <point x="97.65509672619048" y="1432.796168154762" type="line"/>
    </contour>
  </outline>
</glyph>
<glyph name="asciicircum" format="2">
  <advance width="768"/>
  <unicode hex="005E"/>
  <outline>
    <contour>
      <point x="43.19605654761905" y="1038.0394345238096" type="line"/>
      <point x="89.54512648809524" y="1111.8720886136712"/>
      <point x="373.99007296466976" y="1511.7764508928572"/>
      <point x="376.27638248847927" y="1522.803943452381" type="qcurve"/>
      <point x="385.1430863575269" y="1507.7136904761905"/>
      <point x="681.0351310483871" y="1106.0919378840247"/>
      <point x="728.9998631912442" y="1036.137462797619" type="qcurve"/>
      <point x="690.2074404761904" y="1023.5570684523809" type="line"/>
      <point x="623.68203125" y="1101.2982514880953"/>
      <point x="383.4781994047619" y="1340.3807291666667"/>
      <point x="371.80755208333335" y="1357.7925595238096" type="qcurve"/>
      <point x="356.3329613095238" y="1333.9963913690476"/>
      <point x="151.44293154761905" y="1104.94140625"/>
      <point x="82.59594494047619" y="1023.7178571428572" type="qcurve"/>
    </contour>
  </outline>
</glyph>
<glyph name="grave" format="2">
  <advance width="896"/>
  <unicode hex="0060"/>
  <outline>
    <contour>
      <point x="261.4040550595238" y="1189.7292410714285" type="qcurve" smooth="yes"/>
      <point x="261.4040550595238" y="1220.5134672619047"/>
      <point x="302.48236607142854" y="1256.458482142857"/>
      <point x="335.5254092261905" y="1256.458482142857" type="qcurve" smooth="yes"/>
      <point x="370.8272693452381" y="1256.458482142857"/>
      <point x="411.674255952381" y="1215.9958333333334"/>
      <point x="434.32518601190475" y="1185.7920014880951" type="qcurve" smooth="yes"/>
      <point x="600.3449032738096" y="995.6234375" type="line"/>
      <point x="585.2116071428571" y="978.0705357142857" type="line"/>
      <point x="335.9019717261905" y="1100.8392113095238" type="line" smooth="yes"/>
      <point x="296.76090029761906" y="1118.2940848214287"/>
      <point x="261.4040550595238" y="1157.6234375"/>
    </contour>
  </outline>
</glyph>
<glyph name="a" format="2">
  <advance width="753"/>
  <unicode hex="0061"/>
  <outline>
    <contour>
      <point x="17.85892857142857" y="215.9725074404762" type="qcurve" smooth="yes"/>
      <point x="17.85892857142857" y="354.8822544642857"/>
      <point x="207.17247443836405" y="535.4729058659755"/>
      <point x="465.83678925451227" y="592.2588169642858" type="qcurve"/>
      <point x="467.6760005640361" y="555.7609002976191" type="line"/>
      <point x="312.1168715797811" y="508.1574047739055"/>
      <point x="223.46986607142858" y="337.7842261904762"/>
      <point x="223.88947172619046" y="251.75673363095237" type="qcurve" smooth="yes"/>
      <point x="224.30907738095237" y="147.00777529761905"/>
      <point x="285.42682291666665" y="63.18411458333333"/>
      <point x="338.12496279761905" y="63.18411458333333" type="qcurve" smooth="yes"/>
      <point x="379.5367931547619" y="63.18411458333333"/>
      <point x="430.75256696428573" y="105.89002976190476"/>
      <point x="446.0036086309524" y="150.3449032738095" type="qcurve"/>
      <point x="444.22715773809523" y="682.4040550595238" type="line" smooth="yes"/>
      <point x="443.3879464285714" y="808.768675595238"/>
      <point x="370.5487351190476" y="917.0274925595238"/>
      <point x="298.96834077380953" y="917.0274925595238" type="qcurve" smooth="yes"/>
      <point x="247.3879464285714" y="917.0274925595238"/>
      <point x="168.7095238095238" y="875.3215773809524"/>
      <point x="163.25465029761904" y="861.4196056547619" type="qcurve" smooth="yes"/>
      <point x="177.1016369047619" y="846.3215773809524"/>
      <point x="229.87808779761906" y="789.9569568452381"/>
      <point x="229.87808779761906" y="749.8864211309524" type="qcurve" smooth="yes"/>
      <point x="229.87808779761906" y="710.6825892857142"/>
      <point x="183.99583333333334" y="663.4434895833333"/>
      <point x="145.5959449404762" y="663.4434895833333" type="qcurve" smooth="yes"/>
      <point x="106.77645089285714" y="663.4434895833333"/>
      <point x="56.21577380952381" y="713.3610119047619"/>
      <point x="57.05498511904762" y="766.56484375" type="qcurve" smooth="yes"/>
      <point x="58.313802083333336" y="850.768675595238"/>
      <point x="213.9880580357143" y="961.9802827380952"/>
      <point x="359.45431547619046" y="961.9802827380952" type="qcurve" smooth="yes"/>
      <point x="522.5912202380953" y="961.9802827380952"/>
      <point x="663.9438988095238" y="815.6784226190476"/>
      <point x="665.3635044642857" y="671.6903645833333" type="qcurve" smooth="yes"/>
      <point x="670.7831101190476" y="56.36462053571428" type="line"/>
      <point x="744.6773065476191" y="28.945014880952378" type="line"/>
      <point x="744.6773065476191" y="0.0" type="line"/>
      <point x="477.5290178571429" y="0.0" type="line"/>
      <point x="451.9408482142857" y="24.32935267857143" type="line"/>
      <point x="445.7447916666667" y="85.09025297619047" type="line"/>
      <point x="415.7722842261905" y="46.57261904761905"/>
      <point x="307.1841145833333" y="-8.294084821428571"/>
      <point x="225.56067708333333" y="-8.294084821428571" type="qcurve" smooth="yes"/>
      <point x="137.03526785714286" y="-8.294084821428571"/>
      <point x="17.85892857142857" y="100.0"/>
    </contour>
  </outline>
</glyph>
<glyph name="e" format="2">
  <advance width="696"/>
  <unicode hex="0065"/>
  <outline>
    <contour>
      <point x="32.12552083333333" y="467.7842261904762" type="qcurve" smooth="yes"/>
      <point x="32.12552083333333" y="718.2743675595239"/>
      <point x="230.64676339285714" y="962.0783110119048"/>
      <point x="374.4465401785714" y="962.0783110119048" type="qcurve" smooth="yes"/>
      <point x="513.379613095238" y="962.0783110119048"/>
      <point x="684.5715029761905" y="733.7214657738095"/>
      <point x="683.9283482142857" y="541.0705357142857" type="qcurve"/>
      <point x="685.1871651785714" y="500.0274925595238" type="line"/>
      <point x="210.1913318452381" y="500.0274925595238" type="line"/>
      <point x="210.1913318452381" y="537.1685639880952" type="line"/>
      <point x="491.7172991071428" y="537.1685639880952" type="line"/>
      <point x="495.78005952380954" y="764.4584821428572"/>
      <point x="442.9563988095238" y="925.0"/>
      <point x="381.55234375" y="925.0" type="qcurve" smooth="yes"/>
      <point x="331.5326264880953" y="925.0"/>
      <point x="260.52068452380956" y="771.8780877976191"/>
      <point x="260.52068452380956" y="494.81949404761906" type="qcurve" smooth="yes"/>
      <point x="259.94029017857144" y="242.51763392857143"/>
      <point x="352.2893601190476" y="54.4781994047619"/>
      <point x="445.2188244047619" y="54.4781994047619" type="qcurve" smooth="yes"/>
      <point x="523.6109375" y="54.4781994047619"/>
      <point x="640.2618675595238" y="174.6664806547619"/>
      <point x="669.2971354166666" y="266.1841145833333" type="qcurve"/>
      <point x="694.661755952381" y="253.6939732142857" type="line"/>
      <point x="666.7245163690476" y="138.52540922619048"/>
      <point x="494.4071056547619" y="-12.482366071428572"/>
      <point x="376.6425967261905" y="-12.482366071428572" type="qcurve" smooth="yes"/>
      <point x="229.64676339285714" y="-12.482366071428572"/>
      <point x="32.12552083333333" y="233.71369047619046"/>
    </contour>
  </outline>
</glyph>
<glyph name="g" format="2">
  <advance width="673"/>
  <unicode hex="0067"/>
  <outline>
    <contour>
      <point x="-0.5331845238095241" y="-224.74118303571427" type="qcurve" smooth="yes"/>
      <point x="-0.5331845238095241" y="-143.96473214285714"/>
      <point x="133.51763392857143" y="5.509858630952381"/>
      <point x="267.69397321428573" y="44.01971726190476" type="qcurve"/>
      <point x="283.71068218365974" y="30.984449404761904" type="line"/>
      <point x="192.72623277889784" y="-15.301860119047618"/>
      <point x="116.94084821428572" y="-151.61566220238095"/>
      <point x="116.94084821428572" y="-221.86670386904763" type="qcurve" smooth="yes"/>
      <point x="116.94084821428572" y="-325.9294642857143"/>
      <point x="249.8428199404762" y="-441.89419642857143"/>
      <point x="351.6114955357143" y="-441.89419642857143" type="qcurve" smooth="yes"/>
      <point x="461.0860863095238" y="-441.89419642857143"/>
      <point x="554.3293526785715" y="-318.9725074404762"/>
      <point x="554.3293526785715" y="-229.20383184523808" type="qcurve" smooth="yes"/>
      <point x="554.3293526785715" y="-155.75673363095237"/>
      <point x="453.9175223214286" y="-59.309635416666666"/>
      <point x="327.2743675595238" y="-29.70174851190476" type="qcurve" smooth="yes"/>
      <point x="184.49014136904762" y="2.8433779761904745"/>
      <point x="42.39257992511521" y="101.24326636904762"/>
      <point x="42.39257992511521" y="165.47459077380952" type="qcurve" smooth="yes"/>
      <point x="42.39257992511521" y="206.998781922043"/>
      <point x="100.81165904617896" y="286.9655289938556"/>
      <point x="171.09918664794546" y="324.36462053571427" type="qcurve"/>
      <point x="210.6509300595238" y="314.9450148809524" type="line"/>
      <point x="161.20383184523808" y="288.9450148809524"/>
      <point x="127.36462053571428" y="240.81949404761906"/>
      <point x="127.36462053571428" y="211.98028273809524" type="qcurve" smooth="yes"/>
      <point x="127.36462053571428" y="177.14107142857142"/>
      <point x="215.5809805827573" y="144.30963541666665"/>
      <point x="376.78375936059905" y="109.86253720238095" type="qcurve" smooth="yes"/>
      <point x="565.7940305179532" y="73.15662202380952"/>
      <point x="718.1285714285714" y="-44.619828869047616"/>
      <point x="718.1285714285714" y="-169.6628720238095" type="qcurve" smooth="yes"/>
      <point x="718.1285714285714" y="-301.73340773809525"/>
      <point x="534.8739211309523" y="-476.1255208333333"/>
      <point x="363.0036086309524" y="-476.1255208333333" type="qcurve" smooth="yes"/>
      <point x="192.16078869047618" y="-476.1255208333333"/>
      <point x="-0.5331845238095241" y="-332.2863095238095"/>
    </contour>
    <contour>
      <point x="40.21577380952381" y="594.8469866071429" type="qcurve" smooth="yes"/>
      <point x="40.21577380952381" y="747.1763392857143"/>
      <point x="203.3371279761905" y="959.9802827380952"/>
      <point x="347.5565104166667" y="959.9802827380952" type="qcurve" smooth="yes"/>
      <point x="491.7758928571428" y="959.9802827380952"/>
      <point x="659.3168526785714" y="771.1685639880952"/>
      <point x="659.7364583333333" y="613.7764508928572" type="qcurve" smooth="yes"/>
      <point x="661.3168526785714" y="465.6706473214286"/>
      <point x="490.5798363095238" y="256.5373511904762"/>
      <point x="351.39572172619046" y="256.5373511904762" type="qcurve" smooth="yes"/>
      <point x="204.49791666666667" y="256.5373511904762"/>
      <point x="40.21577380952381" y="448.0549851190476"/>
    </contour>
    <contour>
      <point x="236.52485119047617" y="607.427380952381" type="qcurve" smooth="yes"/>
      <point x="236.52485119047617" y="455.4668154761905"/>
      <point x="288.6348214285714" y="287.7411830357143"/>
      <point x="357.87808779761906" y="287.7411830357143" type="qcurve" smooth="yes"/>
      <point x="420.5762276785714" y="287.7411830357143"/>
      <point x="468.10580357142857" y="457.69036458333335"/>
      <point x="468.10580357142857" y="618.0980282738095" type="qcurve" smooth="yes"/>
      <point x="468.10580357142857" y="783.7920014880953"/>
      <point x="412.5762276785714" y="926.196056547619"/>
      <point x="343.8153273809524" y="926.196056547619" type="qcurve" smooth="yes"/>
      <point x="285.89363839285716" y="926.196056547619"/>
      <point x="236.52485119047617" y="760.4781994047619"/>
    </contour>
    <contour>
      <point x="455.02693452380953" y="906.9019717261905" type="line"/>
      <point x="451.6700892857143" y="929.8469866071429" type="line"/>
      <point x="681.4268229166667" y="983.7800595238095" type="line"/>
      <point x="681.4268229166667" y="895.2665922619047" type="line"/>
    </contour>
  </outline>
</glyph>
<glyph name="h" format="2">
  <advance width="870"/>
  <unicode hex="0068"/>
  <outline>
    <contour>
      <point x="24.251041666666666" y="0.0" type="line"/>
      <point x="24.251041666666666" y="28.945014880952378" type="line"/>
      <point x="99.20799851190476" y="56.36462053571428" type="line"/>
      <point x="101.78839285714285" y="461.6861979166667" type="line"/>
      <point x="91.78839285714285" y="1431.8941964285714" type="line"/>
      <point x="3.1882812499999993" y="1467.4745907738095" type="line"/>
      <point x="3.1882812499999993" y="1500.0" type="line"/>
      <point x="278.6151041666667" y="1505.4548735119047" type="line"/>
      <point x="299.6856398809524" y="1501.9725074404762" type="line"/>
      <point x="319.21104910714286" y="1467.9019717261904" type="line"/>
      <point x="312.95223214285716" y="797.7920014880953" type="line"/>
      <point x="333.95223214285716" y="855.4979166666667"/>
      <point x="463.2188244047619" y="958.3998883928572"/>
      <point x="571.42265625" y="958.3998883928572" type="qcurve" smooth="yes"/>
      <point x="680.0813616071429" y="958.3998883928572"/>
      <point x="787.3479538690476" y="826.5176339285714"/>
      <point x="787.3479538690476" y="726.9647321428571" type="qcurve" smooth="yes"/>
      <point x="787.3479538690476" y="679.6156622023809"/>
      <point x="785.3479538690476" y="542.9450148809524"/>
      <point x="785.3479538690476" y="539.8469866071429" type="qcurve" smooth="yes"/>
      <point x="788.6067708333334" y="55.94501488095238" type="line"/>
      <point x="862.3401785714286" y="28.945014880952378" type="line"/>
      <point x="862.3401785714286" y="0.0" type="line"/>
      <point x="504.5840029761905" y="0.0" type="line"/>
      <point x="504.5840029761905" y="26.007775297619048" type="line"/>
      <point x="559.8900297619048" y="53.00777529761905" type="line"/>
      <point x="563.050818452381" y="494.8667038690476" type="line"/>
      <point x="563.050818452381" y="686.5373511904762" type="line" smooth="yes"/>
      <point x="563.050818452381" y="787.4040550595238"/>
      <point x="512.9683407738095" y="852.3257440476191"/>
      <point x="458.7878348214286" y="852.3257440476191" type="qcurve" smooth="yes"/>
      <point x="408.92890625" y="852.3257440476191"/>
      <point x="331.17578125" y="795.8589285714286"/>
      <point x="317.1482886904762" y="754.8392113095238" type="qcurve"/>
      <point x="318.88947172619044" y="484.0980282738095" type="line"/>
      <point x="322.0502604166667" y="56.36462053571428" type="line"/>
      <point x="394.1327380952381" y="28.364620535714284" type="line"/>
      <point x="394.1327380952381" y="0.0" type="line"/>
    </contour>
  </outline>
</glyph>
<glyph name="i" format="2">
  <advance width="428"/>
  <unicode hex="0069"/>
  <outline>
    <contour>
      <point x="20.411830357142858" y="0.0" type="line"/>
      <point x="20.411830357142858" y="30.105803571428574" type="line"/>
      <point x="108.04720982142857" y="55.525409226190476" type="line"/>
      <point x="110.46681547619048" y="488.3293526785714" type="line"/>
      <point x="104.3060267857143" y="864.8667038690476" type="line"/>
      <point x="11.509858630952381" y="895.2235491071428" type="line"/>
      <point x="11.509858630952381" y="923.8469866071429" type="line"/>
      <point x="271.6151041666667" y="943.6234375" type="line"/>
      <point x="300.6934151785714" y="948.2390997023809" type="line"/>
      <point x="332.92473958333335" y="917.0430431547619" type="line"/>
      <point x="331.18355654761905" y="487.4901413690476" type="line"/>
      <point x="335.50513392857147" y="55.105803571428574" type="line"/>
      <point x="420.3013020833333" y="30.105803571428574" type="line"/>
      <point x="420.3013020833333" y="0.0" type="line"/>
    </contour>
    <contour>
      <point x="98.94918154761905" y="1229.1607886904762" type="qcurve" smooth="yes"/>
      <point x="98.94918154761905" y="1279.8900297619048"/>
      <point x="164.84698660714287" y="1355.921130952381"/>
      <point x="220.54873511904762" y="1355.921130952381" type="qcurve" smooth="yes"/>
      <point x="274.9916666666667" y="1355.921130952381"/>
      <point x="344.82671130952383" y="1285.246875"/>
      <point x="344.82671130952383" y="1229.1607886904762" type="qcurve" smooth="yes"/>
      <point x="344.82671130952383" y="1182.2079985119049"/>
      <point x="276.3485119047619" y="1108.9533482142856"/>
      <point x="221.3879464285714" y="1108.9533482142856" type="qcurve" smooth="yes"/>
      <point x="165.7842261904762" y="1108.9533482142856"/>
      <point x="98.94918154761905" y="1180.0472098214286"/>
    </contour>
  </outline>
</glyph>
<glyph name="l" format="2">
  <advance width="438"/>
  <unicode hex="006C"/>
  <outline>
    <contour>
      <point x="26.992224702380952" y="0.0" type="line"/>
      <point x="26.992224702380952" y="29.525409226190476" type="line"/>
      <point x="112.69036458333333" y="55.94501488095238" type="line"/>
      <point x="116.27075892857144" y="508.1177455357143" type="line"/>
      <point x="106.27075892857144" y="1433.0549851190476" type="line"/>
      <point x="18.090252976190477" y="1466.0549851190476" type="line"/>
      <point x="18.090252976190477" y="1500.0" type="line"/>
      <point x="292.5170758928571" y="1505.4548735119047" type="line"/>
      <point x="312.00721726190477" y="1501.9725074404762" type="line"/>
      <point x="333.11302083333334" y="1469.6431547619047" type="line"/>
      <point x="332.7914434523809" y="509.7961681547619" type="line"/>
      <point x="337.11302083333334" y="55.94501488095238" type="line"/>
      <point x="425.06997767857143" y="29.525409226190476" type="line"/>
      <point x="425.06997767857143" y="0.0" type="line"/>
    </contour>
  </outline>
</glyph>
<glyph name="p" format="2">
  <advance width="864"/>
  <unicode hex="0070"/>
  <outline>
    <contour>
      <point x="7.2510416666666675" y="-460.0" type="line"/>
      <point x="7.2510416666666675" y="-431.63537946428573" type="line"/>
      <point x="99.20799851190476" y="-400.6981398809524" type="line"/>
      <point x="101.20799851190476" y="389.0" type="line"/>
      <point x="97.46681547619048" y="863.1255208333333" type="line"/>
      <point x="14.027492559523811" y="892.3215773809524" type="line"/>
      <point x="14.027492559523811" y="923.2665922619047" type="line"/>
      <point x="298.6934151785714" y="949.0155505952381" type="line"/>
      <point x="312.95223214285716" y="943.8194940476191" type="line"/>
      <point x="313.7914434523809" y="830.7645089285714" type="line"/>
      <point x="335.7286830357143" y="879.5684523809524"/>
      <point x="454.82671130952383" y="959.8194940476191"/>
      <point x="544.0580357142858" y="959.8194940476191" type="qcurve" smooth="yes"/>
      <point x="661.7167410714286" y="959.8194940476191"/>
      <point x="831.7597842261905" y="742.9725074404762"/>
      <point x="831.7597842261905" y="491.29408482142856" type="qcurve" smooth="yes"/>
      <point x="831.7597842261905" y="233.26659226190475"/>
      <point x="645.806994047619" y="-9.294084821428571"/>
      <point x="519.8344866071428" y="-9.294084821428571" type="qcurve" smooth="yes"/>
      <point x="450.4071056547619" y="-9.294084821428571"/>
      <point x="349.7286830357143" y="28.67064732142857"/>
      <point x="320.7914434523809" y="59.50985863095238" type="qcurve"/>
      <point x="322.7914434523809" y="-400.6981398809524" type="line"/>
      <point x="449.0424851190476" y="-431.63537946428573" type="line"/>
      <point x="449.0424851190476" y="-460.0" type="line"/>
    </contour>
    <contour>
      <point x="319.37183779761904" y="109.32935267857142" type="line"/>
      <point x="338.23854166666666" y="78.56067708333333"/>
      <point x="405.0896949404762" y="46.14884672619048"/>
      <point x="442.34073660714284" y="46.14884672619048" type="qcurve" smooth="yes"/>
      <point x="519.3174107142858" y="46.14884672619048"/>
      <point x="597.3293526785715" y="199.62760416666666"/>
      <point x="597.3293526785715" y="475.93723958333334" type="qcurve" smooth="yes"/>
      <point x="597.3293526785715" y="736.6939732142857"/>
      <point x="529.6114955357143" y="888.3412946428572"/>
      <point x="453.36822916666665" y="888.3412946428572" type="qcurve" smooth="yes"/>
      <point x="402.5995535714286" y="888.3412946428572"/>
      <point x="328.97972470238096" y="807.2510416666667"/>
      <point x="315.0502604166667" y="772.5176339285714" type="qcurve"/>
      <point x="318.0502604166667" y="398.7136904761905" type="line"/>
    </contour>
  </outline>
</glyph>
<glyph name="s" format="2">
  <advance width="641"/>
  <unicode hex="0073"/>
  <outline>
    <contour>
      <point x="43.41183035714286" y="0.0" type="line"/>
      <point x="44.57261904761905" y="333.6234375" type="line"/>
      <point x="68.93723958333334" y="333.6234375" type="line"/>
      <point x="96.49014136904762" y="216.0274925595238" type="line" smooth="yes"/>
      <point x="118.81171875" y="119.19605654761905"/>
      <point x="230.0155505952381" y="16.588169642857142"/>
      <point x="296.95279017857143" y="16.007775297619048" type="qcurve" smooth="yes"/>
      <point x="365.5959449404762" y="15.427380952380952"/>
      <point x="442.07831101190476" y="102.41183035714286"/>
      <point x="442.07831101190476" y="171.18050595238094" type="qcurve" smooth="yes"/>
      <point x="442.07831101190476" y="238.1727306547619"/>
      <point x="349.1763392857143" y="342.3532366071429"/>
      <point x="268.3998883928571" y="400.4159970238095" type="qcurve" smooth="yes"/>
      <point x="147.99222470238095" y="471.8708705357143"/>
      <point x="51.69813988095238" y="614.6198288690476"/>
      <point x="51.69813988095238" y="718.0119419642857" type="qcurve" smooth="yes"/>
      <point x="51.69813988095238" y="822.5098586309524"/>
      <point x="190.89002976190477" y="963.8194940476191"/>
      <point x="320.5367931547619" y="963.8194940476191" type="qcurve" smooth="yes"/>
      <point x="383.34073660714284" y="963.8194940476191"/>
      <point x="475.22299107142857" y="914.246875"/>
      <point x="500.1327380952381" y="887.6037202380952" type="qcurve"/>
      <point x="535.0424851190476" y="959.1763392857143" type="line"/>
      <point x="559.4698660714286" y="959.1763392857143" type="line"/>
      <point x="559.4698660714286" y="616.0705357142857" type="line"/>
      <point x="528.6503720238095" y="616.0705357142857" type="line"/>
      <point x="515.3287946428571" y="708.572619047619" type="line" smooth="yes"/>
      <point x="499.2307663690476" y="813.1530133928571"/>
      <point x="408.35628720238094" y="931.0352678571429"/>
      <point x="338.38377976190475" y="931.0352678571429" type="qcurve" smooth="yes"/>
      <point x="268.96417410714287" y="931.0352678571429"/>
      <point x="208.03470982142858" y="852.3371279761905"/>
      <point x="208.03470982142858" y="799.0233258928572" type="qcurve" smooth="yes"/>
      <point x="208.03470982142858" y="735.8978050595238"/>
      <point x="291.83865327380954" y="643.7722842261904"/>
      <point x="382.7131324404762" y="586.4232142857143" type="qcurve" smooth="yes"/>
      <point x="500.44237351190475" y="518.066369047619"/>
      <point x="609.1638392857143" y="370.5409598214286"/>
      <point x="609.1638392857143" y="255.14884672619047" type="qcurve" smooth="yes"/>
      <point x="609.1638392857143" y="134.5959449404762"/>
      <point x="463.3915550595238" y="-16.035267857142856"/>
      <point x="329.16439732142857" y="-16.035267857142856" type="qcurve" smooth="yes"/>
      <point x="241.60372023809524" y="-16.035267857142856"/>
      <point x="123.71369047619048" y="45.85892857142857"/>
      <point x="100.0" y="74.78839285714285" type="qcurve"/>
      <point x="65.1607886904762" y="0.0" type="line"/>
    </contour>
  </outline>
</glyph>
<glyph name="t" format="2">
  <advance width="498"/>
  <unicode hex="0074"/>
  <outline>
    <contour>
      <point x="1.1530133928571438" y="869.5451264880952" type="line"/>
      <point x="1.1530133928571438" y="917.9175223214286" type="line"/>
      <point x="114.16856398809524" y="932.5331845238095"/>
      <point x="203.54095982142857" y="1059.0311011904762"/>
      <point x="233.64676339285714" y="1251.6114955357143" type="qcurve"/>
      <point x="315.17578125" y="1251.6114955357143" type="line"/>
      <point x="334.34434523809523" y="1197.7292410714285" type="line"/>
      <point x="329.92473958333335" y="920.3646205357143" type="line"/>
      <point x="511.02276785714287" y="920.3646205357143" type="line"/>
      <point x="511.02276785714287" y="873.2863095238096" type="line"/>
      <point x="329.08552827380953" y="873.2863095238096" type="line"/>
      <point x="331.08552827380953" y="487.4901413690476" type="line"/>
      <point x="334.44237351190475" y="190.3371279761905" type="line" smooth="yes"/>
      <point x="334.86197916666663" y="126.18411458333333"/>
      <point x="366.89724702380954" y="67.11357886904761"/>
      <point x="416.54817708333337" y="65.37239583333333" type="qcurve" smooth="yes"/>
      <point x="507.28158482142857" y="58.98805803571428" type="line"/>
      <point x="507.28158482142857" y="23.035267857142856" type="line"/>
      <point x="263.51346726190474" y="-10.937239583333334" type="line"/>
      <point x="197.52540922619048" y="-11.196056547619047"/>
      <point x="107.85115327380953" y="63.2038318452381"/>
      <point x="108.69036458333333" y="123.72924107142856" type="qcurve" smooth="yes"/>
      <point x="111.20799851190476" y="487.4901413690476" type="line"/>
      <point x="108.78839285714285" y="869.6078869047619" type="line"/>
    </contour>
  </outline>
</glyph>
<glyph name="v" format="2">
  <advance width="729"/>
  <unicode hex="0076"/>
  <outline>
    <contour>
      <point x="-17.86670386904762" y="910.6156622023809" type="line"/>
      <point x="-17.86670386904762" y="940.9802827380952" type="line"/>
      <point x="403.3521205357143" y="940.9802827380952" type="line"/>
      <point x="403.3521205357143" y="910.6156622023809" type="line"/>
      <point x="309.03831845238096" y="886.3568452380953" type="line"/>
      <point x="380.25409226190476" y="539.254650297619" type="line"/>
      <point x="461.2738095238095" y="154.70535714285714" type="line"/>
      <point x="545.1327380952381" y="544.7292410714285" type="line"/>
      <point x="614.544568452381" y="882.2940848214286" type="line"/>
      <point x="518.9091889880953" y="910.6156622023809" type="line"/>
      <point x="518.9091889880953" y="940.9802827380952" type="line"/>
      <point x="752.55234375" y="940.9802827380952" type="line"/>
      <point x="752.55234375" y="910.6156622023809" type="line"/>
      <point x="652.8816964285714" y="883.9725074404762" type="line"/>
      <point x="580.7914434523809" y="538.7920014880953" type="line"/>
      <point x="466.0502604166667" y="-2.9019717261904763" type="line"/>
      <point x="270.5373511904762" y="-2.9019717261904763" type="line"/>
      <point x="160.9569568452381" y="489.3293526785714" type="line"/>
      <point x="72.41183035714286" y="886.196056547619" type="line"/>
    </contour>
  </outline>
</glyph>
<glyph name="w" format="2">
  <advance width="1052"/>
  <unicode hex="0077"/>
  <outline>
    <contour>
      <point x="-13.286309523809525" y="910.0352678571429" type="line"/>
      <point x="-13.286309523809525" y="940.9802827380952" type="line"/>
      <point x="368.44237351190475" y="940.9802827380952" type="line"/>
      <point x="368.44237351190475" y="910.0352678571429" type="line"/>
      <point x="304.52068452380956" y="886.7764508928572" type="line"/>
      <point x="366.96778273809525" y="535.0938616071428" type="line"/>
      <point x="435.4776413690476" y="184.67786458333333" type="line"/>
      <point x="496.17578125" y="461.5684523809524" type="line"/>
      <point x="543.5601190476191" y="687.6587053571428" type="line"/>
      <point x="574.6384300595238" y="663.3646205357143" type="line"/>
      <point x="528.1560639880952" y="446.49791666666664" type="line"/>
      <point x="431.6384300595238" y="-2.9019717261904763" type="line"/>
      <point x="245.90197172619048" y="-2.9019717261904763" type="line"/>
      <point x="150.44709821428572" y="494.98028273809524" type="line"/>
      <point x="71.70591517857143" y="886.7764508928572" type="line"/>
    </contour>
    <contour>
      <point x="419.4345982142857" y="910.0352678571429" type="line"/>
      <point x="419.4345982142857" y="940.9802827380952" type="line"/>
      <point x="769.6534226190477" y="940.9802827380952" type="line"/>
      <point x="769.6534226190477" y="910.0352678571429" type="line"/>
      <point x="696.9827752976191" y="883.7411830357142" type="line"/>
      <point x="750.3318452380952" y="543.254650297619" type="line"/>
      <point x="809.9672247023809" y="187.77589285714285" type="line"/>
      <point x="872.3790550595238" y="533.6389880952381" type="line"/>
      <point x="931.0849702380953" y="882.5529017857143" type="line"/>
      <point x="836.8691964285714" y="910.0352678571429" type="line"/>
      <point x="836.8691964285714" y="940.9802827380952" type="line"/>
      <point x="1071.2535342261904" y="940.9802827380952" type="line"/>
      <point x="1071.2535342261904" y="910.0352678571429" type="line"/>
      <point x="971.5828869047618" y="884.81171875" type="line"/>
      <point x="907.8769717261905" y="526.7017485119047" type="line"/>
      <point x="815.0024925595238" y="-2.9019717261904763" type="line"/>
      <point x="628.0072172619048" y="-2.9019717261904763" type="line"/>
      <point x="539.5876116071429" y="505.98028273809524" type="line"/>
      <point x="470.3640625" y="887.7764508928572" type="line"/>
    </contour>
  </outline>
</glyph>
<glyph name="x" format="2">
  <advance width="731"/>
  <unicode hex="0078"/>
  <outline>
    <contour>
      <point x="-15.090252976190476" y="0.0" type="line"/>
      <point x="-15.090252976190476" y="28.945014880952378" type="line"/>
      <point x="91.1607886904762" y="57.72146577380953" type="line"/>
      <point x="307.246875" y="508.16856398809523" type="line"/>
      <point x="382.93668154761906" y="508.16856398809523" type="line"/>
      <point x="553.1405133928572" y="880.196056547619" type="line"/>
      <point x="458.96000744047615" y="911.196056547619" type="line"/>
      <point x="458.96000744047615" y="940.9802827380952" type="line"/>
      <point x="684.979724702381" y="940.9802827380952" type="line"/>
      <point x="684.979724702381" y="911.196056547619" type="line"/>
      <point x="589.79921875" y="879.9372395833333" type="line"/>
      <point x="404.26603422619047" y="481.7411830357143" type="line"/>
      <point x="333.1918898809524" y="481.7411830357143" type="line"/>
      <point x="134.11357886904761" y="59.14107142857143" type="line"/>
      <point x="233.77645089285716" y="28.945014880952378" type="line"/>
      <point x="233.77645089285716" y="0.0" type="line"/>
    </contour>
    <contour>
      <point x="-0.8039434523809526" y="911.196056547619" type="line"/>
      <point x="-0.8039434523809526" y="940.9802827380952" type="line"/>
      <point x="406.0580357142857" y="940.9802827380952" type="line"/>
      <point x="406.0580357142857" y="911.196056547619" type="line"/>
      <point x="324.8775297619047" y="884.1607886904762" type="line"/>
      <point x="468.234375" y="520.4196056547619" type="line"/>
      <point x="651.038318452381" y="59.72146577380953" type="line"/>
      <point x="744.603162202381" y="28.945014880952378" type="line"/>
      <point x="744.603162202381" y="0.0" type="line"/>
      <point x="320.1607886904762" y="0.0" type="line"/>
      <point x="320.1607886904762" y="28.945014880952378" type="line"/>
      <point x="406.8589285714286" y="54.30186011904762" type="line"/>
      <point x="249.47459077380952" y="457.1607886904762" type="line"/>
      <point x="81.9569568452381" y="882.0" type="line"/>
    </contour>
  </outline>
</glyph>
<glyph name="y" format="2">
  <advance width="719"/>
  <unicode hex="0079"/>
  <outline>
    <contour>
      <point x="-17.86670386904762" y="910.6156622023809" type="line"/>
      <point x="-17.286309523809525" y="940.9802827380952" type="line"/>
      <point x="394.96000744047615" y="940.9802827380952" type="line"/>
      <point x="394.96000744047615" y="910.6156622023809" type="line"/>
      <point x="301.22659970238095" y="886.3568452380953" type="line"/>
      <point x="374.02276785714287" y="536.8978050595238" type="line"/>
      <point x="449.39933035714284" y="182.62704613095238" type="line"/>
      <point x="531.8386532738095" y="542.4076636904762" type="line"/>
      <point x="605.9916666666667" y="880.5529017857143" type="line"/>
      <point x="508.7758928571428" y="910.6156622023809" type="line"/>
      <point x="508.7758928571428" y="940.9802827380952" type="line"/>
      <point x="744.740625" y="940.9802827380952" type="line"/>
      <point x="744.740625" y="910.6156622023809" type="line"/>
      <point x="647.4895833333334" y="882.81171875" type="line"/>
      <point x="566.17578125" y="536.7292410714285" type="line"/>
      <point x="461.0149925595238" y="63.607886904761905" type="line" smooth="yes"/>
      <point x="392.92473958333335" y="-235.83143601190477"/>
      <point x="218.01915922619048" y="-476.9725074404762"/>
      <point x="115.89780505952382" y="-476.9725074404762" type="qcurve"/>
      <point x="21.854761904761904" y="-426.96473214285714" type="line"/>
      <point x="21.854761904761904" y="-389.52957589285717" type="line"/>
      <point x="112.81532738095238" y="-392.4668154761905" type="line" smooth="yes"/>
      <point x="232.77589285714285" y="-395.8236607142857"/>
      <point x="348.35628720238094" y="-193.18828125"/>
      <point x="391.83865327380954" y="-58.36462053571428" type="qcurve" smooth="yes"/>
      <point x="407.45431547619046" y="0.0" type="line"/>
      <point x="271.92168898809524" y="0.0" type="line"/>
      <point x="164.2785342261905" y="485.9725074404762" type="line"/>
      <point x="72.41183035714286" y="886.196056547619" type="line"/>
    </contour>
  </outline>
</glyph>
<glyph name="z" format="2">
  <advance width="628"/>
  <unicode hex="007A"/>
  <outline>
    <contour>
      <point x="17.86670386904762" y="0.0" type="line"/>
      <point x="17.86670386904762" y="33.015550595238096" type="line"/>
      <point x="376.4745907738095" y="905.4823660714286" type="line"/>
      <point x="133.3646205357143" y="905.4823660714286" type="line"/>
      <point x="70.74895833333333" y="611.8314360119048" type="line"/>
      <point x="39.18828125" y="611.8314360119048" type="line"/>
      <point x="39.18828125" y="940.9802827380952" type="line"/>
      <point x="604.7717261904762" y="940.9802827380952" type="line"/>
      <point x="604.7717261904762" y="903.5451264880952" type="line"/>
      <point x="246.90502232142856" y="36.65870535714286" type="line"/>
      <point x="518.6581473214286" y="36.65870535714286" type="line"/>
      <point x="582.8267113095238" y="326.5056919642857" type="line"/>
      <point x="611.6462053571429" y="326.5056919642857" type="line"/>
      <point x="611.6462053571429" y="0.0" type="line"/>
    </contour>
  </outline>
</glyph>
<glyph name="braceleft" format="2">
  <advance width="612"/>
  <unicode hex="007B"/>
  <outline>
    <contour>
      <point x="61.545126488095235" y="720.0627604166667" type="line"/>
      <point x="61.545126488095235" y="747.7764508928572" type="line"/>
      <point x="150.90613839285714" y="750.3568452380953" type="line" smooth="yes"/>
      <point x="228.03943452380952" y="754.0352678571429"/>
      <point x="299.69036458333335" y="814.7764508928572"/>
      <point x="299.69036458333335" y="865.1685639880952" type="qcurve" smooth="yes"/>
      <point x="299.69036458333335" y="946.6509300595238"/>
      <point x="118.39627976190476" y="1178.4823660714285"/>
      <point x="118.39627976190476" y="1275.1255208333334" type="qcurve" smooth="yes"/>
      <point x="118.39627976190476" y="1388.5176339285715"/>
      <point x="279.5098586309524" y="1510.0"/>
      <point x="385.6431547619048" y="1510.0" type="qcurve" smooth="yes"/>
      <point x="448.5959449404762" y="1510.0"/>
      <point x="555.6623139880952" y="1503.8392113095238"/>
      <point x="570.8231026785714" y="1500.4196056547619" type="qcurve"/>
      <point x="569.9838913690476" y="1474.18828125" type="line"/>
      <point x="553.5642857142857" y="1476.18828125"/>
      <point x="523.4662574404762" y="1477.7686755952382"/>
      <point x="504.30546875" y="1477.7686755952382" type="qcurve" smooth="yes"/>
      <point x="396.05442708333334" y="1477.7686755952382"/>
      <point x="311.2152157738095" y="1386.7136904761905"/>
      <point x="311.2152157738095" y="1296.6509300595237" type="qcurve" smooth="yes"/>
      <point x="311.2152157738095" y="1180.7567336309523"/>
      <point x="457.48180803571427" y="976.1488467261905"/>
      <point x="457.48180803571427" y="898.7370163690476" type="qcurve" smooth="yes"/>
      <point x="457.48180803571427" y="832.6939732142857"/>
      <point x="379.82310267857144" y="757.6509300595238"/>
      <point x="300.1291294642857" y="741.7764508928572" type="qcurve"/>
      <point x="388.7878348214286" y="724.8392113095238"/>
      <point x="454.5798363095238" y="641.0824776785714"/>
      <point x="454.5798363095238" y="581.4943080357143" type="qcurve" smooth="yes"/>
      <point x="454.5798363095238" y="504.1296875"/>
      <point x="324.6975818452381" y="236.06276041666666"/>
      <point x="324.6975818452381" y="84.22354910714286" type="qcurve" smooth="yes"/>
      <point x="324.6975818452381" y="5.384337797619048"/>
      <point x="385.6700892857143" y="-94.73340773809524"/>
      <point x="474.6623139880952" y="-94.73340773809524" type="qcurve" smooth="yes"/>
      <point x="510.0191592261905" y="-94.73340773809524"/>
      <point x="542.0466517857143" y="-90.83143601190476"/>
      <point x="566.8231026785714" y="-86.09025297619047" type="qcurve"/>
      <point x="566.8231026785714" y="-111.90197172619048" type="line"/>
      <point x="545.7878348214285" y="-117.48236607142857"/>
      <point x="447.21160714285713" y="-125.0"/>
      <point x="392.7842261904762" y="-125.0" type="qcurve" smooth="yes"/>
      <point x="273.22354910714284" y="-125.0"/>
      <point x="132.45904017857143" y="10.83921130952381"/>
      <point x="132.45904017857143" y="124.49014136904762" type="qcurve" smooth="yes"/>
      <point x="132.45904017857143" y="243.74895833333332"/>
      <point x="292.85115327380953" y="523.0352678571429"/>
      <point x="292.2707589285714" y="665.0" type="qcurve"/>
      <point x="253.38433779761905" y="712.803943452381" type="line"/>
    </contour>
  </outline>
</glyph>
<glyph name="cent" format="2">
  <advance width="714"/>
  <unicode hex="00A2"/>
  <outline>
    <contour>
      <point x="70.7961681547619" y="511.05081845238095" type="qcurve" smooth="yes"/>
      <point x="70.7961681547619" y="737.4901413690476"/>
      <point x="293.2743675595238" y="985.7842261904761"/>
      <point x="419.68203125" y="985.7842261904761" type="qcurve" smooth="yes"/>
      <point x="507.03887648809524" y="985.7842261904761"/>
      <point x="581.0388764880952" y="941.4704241071429"/>
      <point x="604.7525669642857" y="913.1841145833333" type="qcurve"/>
      <point x="637.8505952380953" y="991.8822544642857" type="line"/>
      <point x="666.0896949404762" y="991.8822544642857" type="line"/>
      <point x="661.4740327380953" y="682.1763392857143" type="line"/>
      <point x="630.8153273809523" y="682.1763392857143" type="line"/>
      <point x="604.5212425595238" y="797.6234375" type="line" smooth="yes"/>
      <point x="586.9055803571429" y="874.2665922619047"/>
      <point x="506.6545386904762" y="946.2863095238096"/>
      <point x="448.5367931547619" y="946.2863095238096" type="qcurve" smooth="yes"/>
      <point x="376.48180803571427" y="946.2863095238096"/>
      <point x="286.6659226190476" y="770.4507068452381"/>
      <point x="286.6659226190476" y="512.5959449404762" type="qcurve" smooth="yes"/>
      <point x="286.6659226190476" y="286.58816964285717"/>
      <point x="387.9444568452381" y="105.58400297619048"/>
      <point x="475.544568452381" y="105.58400297619048" type="qcurve" smooth="yes"/>
      <point x="535.9563988095238" y="105.58400297619048"/>
      <point x="632.2702008928571" y="184.60372023809524"/>
      <point x="662.7878348214285" y="273.3723958333333" type="qcurve"/>
      <point x="686.6348214285714" y="257.6861979166667" type="line"/>
      <point x="662.4662574404762" y="155.87447916666667"/>
      <point x="522.4584821428572" y="36.819494047619045"/>
      <point x="431.06636904761905" y="36.819494047619045" type="qcurve" smooth="yes"/>
      <point x="277.0155505952381" y="36.819494047619045"/>
      <point x="70.7961681547619" y="281.3723958333333"/>
    </contour>
    <contour>
      <point x="444.5642857142857" y="-141.18050595238094" type="line"/>
      <point x="444.5642857142857" y="56.59594494047619" type="line"/>
      <point x="444.5642857142857" y="56.59594494047619" type="line"/>
      <point x="444.5642857142857" y="524.0155505952381" type="line"/>
      <point x="464.1171875" y="506.3921130952381" type="line"/>
      <point x="464.1171875" y="56.59594494047619" type="line"/>
      <point x="464.1171875" y="56.59594494047619" type="line"/>
      <point x="464.1171875" y="-145.31380208333334" type="line"/>
    </contour>
    <contour>
      <point x="444.5642857142857" y="1152.588169642857" type="line"/>
      <point x="464.1171875" y="1151.81171875" type="line"/>
      <point x="464.1171875" y="968.7136904761904" type="line"/>
      <point x="464.1171875" y="968.7136904761904" type="line"/>
      <point x="464.1171875" y="506.3921130952381" type="line"/>
      <point x="444.5642857142857" y="524.0155505952381" type="line"/>
      <point x="444.5642857142857" y="968.7136904761904" type="line"/>
      <point x="444.5642857142857" y="968.7136904761904" type="line"/>
    </contour>
  </outline>
</glyph>
<glyph name="sterling" format="2">
  <advance width="822"/>
  <unicode hex="00A3"/>
  <outline>
    <contour>
      <point x="538.4190476190477" y="433.2899181547619" type="qcurve" smooth="yes"/>
      <point x="538.4190476190477" y="301.29769345238094"/>
      <point x="401.76811755952383" y="136.17217261904761"/>
      <point x="295.9563988095238" y="111.01138392857143" type="qcurve"/>
      <point x="298.2152157738095" y="107.01138392857143" type="line"/>
      <point x="695.0113839285714" y="107.01138392857143" type="line"/>
      <point x="777.4662574404762" y="358.73701636904764" type="line"/>
      <point x="807.4740327380953" y="358.73701636904764" type="line"/>
      <point x="761.7603422619047" y="0.0" type="line"/>
      <point x="60.83921130952381" y="0.0" type="line"/>
      <point x="48.670647321428575" y="47.72924107142857" type="line"/>
      <point x="81.89419642857143" y="80.31741071428571" type="line"/>
      <point x="231.99222470238095" y="90.80755208333333"/>
      <point x="377.99222470238095" y="251.43515625"/>
      <point x="377.99222470238095" y="379.5529017857143" type="qcurve" smooth="yes"/>
      <point x="377.99222470238095" y="436.4901413690476"/>
      <point x="310.9569568452381" y="597.8392113095238"/>
      <point x="264.6981398809524" y="684.4823660714286" type="qcurve" smooth="yes"/>
      <point x="201.9569568452381" y="802.4118303571429"/>
      <point x="92.01971726190476" y="1053.7256324404761"/>
      <point x="92.01971726190476" y="1159.411830357143" type="qcurve" smooth="yes"/>
      <point x="92.01971726190476" y="1323.6706473214285"/>
      <point x="287.2313244047619" y="1511.4901413690477"/>
      <point x="444.83504464285716" y="1511.4901413690477" type="qcurve" smooth="yes"/>
      <point x="592.4309895833334" y="1511.4901413690477"/>
      <point x="743.4740327380953" y="1403.5254092261905"/>
      <point x="778.0622023809524" y="1324.4273809523809" type="qcurve"/>
      <point x="757.8308779761904" y="1297.5451264880953" type="line"/>
      <point x="721.5015252976191" y="1368.0902529761904"/>
      <point x="610.0269345238095" y="1449.753125"/>
      <point x="521.0699776785714" y="1449.753125" type="qcurve" smooth="yes"/>
      <point x="419.21104910714286" y="1449.753125"/>
      <point x="318.15606398809524" y="1305.0274925595238"/>
      <point x="318.15606398809524" y="1184.8392113095238" type="qcurve" smooth="yes"/>
      <point x="318.15606398809524" y="1088.18828125"/>
      <point x="391.6581473214286" y="867.2743675595239"/>
      <point x="443.6503720238095" y="750.7017485119047" type="qcurve" smooth="yes"/>
      <point x="484.19549851190476" y="657.2821428571428"/>
      <point x="538.4190476190477" y="499.16439732142857"/>
    </contour>
    <contour>
      <point x="85.44709821428572" y="662.1177455357143" type="line"/>
      <point x="73.05498511904761" y="719.7214657738095" type="line"/>
      <point x="750.0819196428572" y="719.7214657738095" type="line"/>
      <point x="741.109412202381" y="662.1177455357143" type="line"/>
    </contour>
  </outline>
</glyph>
<glyph name="dieresis" format="2">
  <advance width="896"/>
  <unicode hex="00A8"/>
  <outline>
    <contour>
      <point x="515.2588169642858" y="1080.9958333333334" type="qcurve" smooth="yes"/>
      <point x="515.2588169642858" y="1117.458482142857"/>
      <point x="564.1410714285714" y="1164.501525297619"/>
      <point x="599.4429315476191" y="1164.501525297619" type="qcurve" smooth="yes"/>
      <point x="636.485974702381" y="1164.501525297619"/>
      <point x="685.7878348214285" y="1119.3604538690477"/>
      <point x="685.7878348214285" y="1080.9958333333334" type="qcurve" smooth="yes"/>
      <point x="685.7878348214285" y="1044.3723958333333"/>
      <point x="635.1643973214286" y="995.4901413690476"/>
      <point x="599.4429315476191" y="995.4901413690476" type="qcurve" smooth="yes"/>
      <point x="563.5606770833333" y="995.4901413690476"/>
      <point x="515.2588169642858" y="1043.6312127976191"/>
    </contour>
    <contour>
      <point x="218.60427827380954" y="1080.9958333333334" type="qcurve" smooth="yes"/>
      <point x="218.60427827380954" y="1117.458482142857"/>
      <point x="268.64732142857144" y="1164.501525297619"/>
      <point x="304.94918154761905" y="1164.501525297619" type="qcurve" smooth="yes"/>
      <point x="340.83143601190477" y="1164.501525297619"/>
      <point x="389.5529017857143" y="1119.3604538690477"/>
      <point x="389.5529017857143" y="1080.9958333333334" type="qcurve" smooth="yes"/>
      <point x="389.5529017857143" y="1044.3723958333333"/>
      <point x="340.25104166666665" y="995.4901413690476"/>
      <point x="304.94918154761905" y="995.4901413690476" type="qcurve" smooth="yes"/>
      <point x="267.90613839285714" y="995.4901413690476"/>
      <point x="218.60427827380954" y="1043.6312127976191"/>
    </contour>
  </outline>
</glyph>
<glyph name="ordfeminine" format="2">
  <advance width="721"/>
  <unicode hex="00AA"/>
  <outline>
    <contour>
      <point x="71.85115327380953" y="924.1607886904762" type="qcurve" smooth="yes"/>
      <point x="71.85115327380953" y="1041.5529017857143"/>
      <point x="247.48236607142857" y="1180.2235491071428"/>
      <point x="437.90974702380953" y="1209.1255208333334" type="qcurve"/>
      <point x="438.4901413690476" y="1182.341294642857" type="line"/>
      <point x="339.1566220238095" y="1164.3765625"/>
      <point x="239.6975818452381" y="1041.8744791666666"/>
      <point x="239.6975818452381" y="948.0352678571429" type="qcurve" smooth="yes"/>
      <point x="239.6975818452381" y="884.3018601190477"/>
      <point x="273.3329613095238" y="801.4429315476191"/>
      <point x="315.68203125" y="801.4429315476191" type="qcurve" smooth="yes"/>
      <point x="351.7722842261905" y="801.4429315476191"/>
      <point x="394.8547619047619" y="840.2743675595239"/>
      <point x="409.9450148809524" y="876.1410714285714" type="qcurve"/>
      <point x="409.9450148809524" y="1274.145238095238" type="line" smooth="yes"/>
      <point x="409.9450148809524" y="1370.5923363095237"/>
      <point x="358.8822544642857" y="1473.3687872023809"/>
      <point x="294.26659226190475" y="1473.3687872023809" type="qcurve" smooth="yes"/>
      <point x="250.49791666666667" y="1473.3687872023809"/>
      <point x="206.47042410714286" y="1427.2785342261905"/>
      <point x="206.92529761904763" y="1406.5726190476191" type="qcurve"/>
      <point x="213.92529761904763" y="1400.2157738095239"/>
      <point x="247.05081845238095" y="1362.8589285714286"/>
      <point x="247.05081845238095" y="1339.9216889880952" type="qcurve" smooth="yes"/>
      <point x="247.05081845238095" y="1309.529575892857"/>
      <point x="210.10580357142857" y="1268.5218005952381"/>
      <point x="179.93723958333334" y="1268.5218005952381" type="qcurve" smooth="yes"/>
      <point x="146.67064732142856" y="1268.5218005952381"/>
      <point x="107.9844494047619" y="1308.529575892857"/>
      <point x="107.9844494047619" y="1349.180505952381" type="qcurve" smooth="yes"/>
      <point x="107.9844494047619" y="1416.3490699404763"/>
      <point x="225.3646205357143" y="1511.1607886904762"/>
      <point x="339.2624255952381" y="1511.1607886904762" type="qcurve" smooth="yes"/>
      <point x="458.28575148809523" y="1511.1607886904762"/>
      <point x="591.603162202381" y="1395.7686755952382"/>
      <point x="590.603162202381" y="1245.607886904762" type="qcurve" smooth="yes"/>
      <point x="588.183556547619" y="808.8194940476191" type="line"/>
      <point x="658.1130208333334" y="786.3018601190477" type="line"/>
      <point x="658.1130208333334" y="749.803943452381" type="line"/>
      <point x="424.8822544642857" y="749.803943452381" type="line"/>
      <point x="412.26659226190475" y="770.2863095238096" type="line"/>
      <point x="406.0705357142857" y="827.3843377976191" type="line"/>
      <point x="372.8744791666667" y="785.3843377976191"/>
      <point x="289.54512648809526" y="741.6431547619047"/>
      <point x="224.31380208333334" y="741.6431547619047" type="qcurve" smooth="yes"/>
      <point x="152.6628720238095" y="741.6431547619047"/>
      <point x="71.85115327380953" y="831.4470982142857"/>
    </contour>
  </outline>
</glyph>
<glyph name="guillemetleft" format="2">
  <advance width="943"/>
  <unicode hex="00AB"/>
  <outline>
    <contour>
      <point x="60.313802083333336" y="631.5254092261905" type="line"/>
      <point x="79.70591517857143" y="647.3018601190477"/>
      <point x="437.29408482142856" y="994.8941964285714"/>
      <point x="451.4626488095238" y="1009.6431547619047" type="qcurve" smooth="yes"/>
      <point x="462.43515625" y="1020.6156622023809"/>
      <point x="486.3174107142857" y="990.9294642857143"/>
      <point x="472.40766369047617" y="965.6903645833333" type="qcurve" smooth="yes"/>
      <point x="454.9252976190476" y="941.4315476190476"/>
      <point x="220.86614583333335" y="619.4901413690476"/>
      <point x="207.70535714285714" y="604.7136904761904" type="qcurve"/>
      <point x="218.86614583333335" y="588.9372395833333"/>
      <point x="456.43515625" y="287.7997767857143"/>
      <point x="483.3998883928571" y="254.54095982142857" type="qcurve" smooth="yes"/>
      <point x="498.3723958333333" y="230.75673363095237"/>
      <point x="481.9450148809524" y="192.81171875"/>
      <point x="461.19605654761904" y="209.94501488095239" type="qcurve" smooth="yes"/>
      <point x="424.93723958333334" y="242.00777529761905"/>
      <point x="107.12552083333334" y="535.3215773809524"/>
      <point x="60.313802083333336" y="581.2235491071428" type="qcurve"/>
    </contour>
    <contour>
      <point x="444.2349330357143" y="631.5254092261905" type="line"/>
      <point x="463.6270461309524" y="647.3018601190477"/>
      <point x="821.2152157738095" y="994.8941964285714"/>
      <point x="835.3837797619047" y="1009.6431547619047" type="qcurve" smooth="yes"/>
      <point x="846.3562872023809" y="1020.6156622023809"/>
      <point x="870.2385416666666" y="990.9294642857143"/>
      <point x="856.3287946428571" y="965.6903645833333" type="qcurve" smooth="yes"/>
      <point x="838.8464285714285" y="941.4315476190476"/>
      <point x="604.7872767857143" y="619.4901413690476"/>
      <point x="591.6264880952381" y="604.7136904761904" type="qcurve"/>
      <point x="602.7872767857143" y="588.9372395833333"/>
      <point x="840.3562872023809" y="287.7997767857143"/>
      <point x="867.3210193452381" y="254.54095982142857" type="qcurve" smooth="yes"/>
      <point x="882.2935267857142" y="230.75673363095237"/>
      <point x="865.8661458333333" y="192.81171875"/>
      <point x="845.1171875" y="209.94501488095239" type="qcurve" smooth="yes"/>
      <point x="808.8583705357142" y="242.00777529761905"/>
      <point x="491.0466517857143" y="535.3215773809524"/>
      <point x="444.2349330357143" y="581.2235491071428" type="qcurve"/>
    </contour>
  </outline>
</glyph>
<glyph name="registered" format="2">
  <advance width="1110"/>
  <unicode hex="00AE"/>
  <outline>
    <contour>
      <point x="71.21577380952381" y="1030.078869047619" type="qcurve" smooth="yes"/>
      <point x="71.21577380952381" y="1235.0041666666666"/>
      <point x="339.4626488095238" y="1514.8392113095238"/>
      <point x="550.5409598214286" y="1514.8392113095238" type="qcurve" smooth="yes"/>
      <point x="760.8780877976191" y="1514.8392113095238"/>
      <point x="1033.0896949404762" y="1249.5218005952381"/>
      <point x="1033.0896949404762" y="1042.5965029761905" type="qcurve" smooth="yes"/>
      <point x="1033.0896949404762" y="814.4751488095238"/>
      <point x="762.3957217261905" y="529.5068080357144"/>
      <point x="559.7017485119047" y="529.5068080357144" type="qcurve" smooth="yes"/>
      <point x="345.36462053571427" y="529.5068080357144"/>
      <point x="71.21577380952381" y="807.7967261904762"/>
    </contour>
    <contour>
      <point x="105.06276041666666" y="1030.3376860119047" type="qcurve" smooth="yes"/>
      <point x="105.06276041666666" y="819.0633184523809"/>
      <point x="355.1135788690476" y="557.7106398809524"/>
      <point x="553.4781994047619" y="557.7106398809524" type="qcurve" smooth="yes"/>
      <point x="748.2624255952381" y="557.7106398809524"/>
      <point x="1001.3407366071428" y="817.0005580357143"/>
      <point x="1001.3407366071428" y="1041.0161086309524" type="qcurve" smooth="yes"/>
      <point x="1001.3407366071428" y="1229.353236607143"/>
      <point x="754.1643973214286" y="1494.5726190476191"/>
      <point x="547.862537202381" y="1494.5726190476191" type="qcurve" smooth="yes"/>
      <point x="364.6234375" y="1494.5726190476191"/>
      <point x="105.06276041666666" y="1224.5140252976191"/>
    </contour>
    <contour>
      <point x="329.6001116071429" y="758.9341889880952" type="line"/>
      <point x="330.4393229166667" y="776.1027529761905" type="line"/>
      <point x="381.30602678571427" y="789.1380208333334" type="line"/>
      <point x="384.9844494047619" y="1063.282700892857" type="line"/>
      <point x="380.04720982142857" y="1275.9216889880952" type="line"/>
      <point x="332.4315476190476" y="1290.956956845238" type="line"/>
      <point x="333.85115327380953" y="1309.5451264880953" type="line"/>
      <point x="598.8075520833333" y="1309.5451264880953" type="line" smooth="yes"/>
      <point x="676.4309895833334" y="1309.5451264880953"/>
      <point x="763.3837797619047" y="1224.6903645833333"/>
      <point x="763.3837797619047" y="1152.737574404762" type="qcurve" smooth="yes"/>
      <point x="763.3837797619047" y="1095.282700892857"/>
      <point x="672.6270461309524" y="1004.0083333333333"/>
      <point x="600.289918154762" y="1004.0083333333333" type="qcurve" smooth="yes"/>
      <point x="575.4154389880953" y="1004.0083333333333"/>
      <point x="494.4507068452381" y="1004.8475446428572"/>
      <point x="478.99583333333334" y="1006.9455729166666" type="qcurve"/>
      <point x="478.1566220238095" y="1024.7572916666668" type="line"/>
      <point x="558.8900297619048" y="1024.7572916666668" type="line" smooth="yes"/>
      <point x="604.050818452381" y="1024.7572916666668"/>
      <point x="634.3646205357143" y="1083.7572916666668"/>
      <point x="634.3646205357143" y="1155.31796875" type="qcurve" smooth="yes"/>
      <point x="634.3646205357143" y="1214.2354910714287"/>
      <point x="608.1135788690476" y="1275.7883928571428"/>
      <point x="564.4429315476191" y="1275.7883928571428" type="qcurve" smooth="yes"/>
      <point x="518.8780877976191" y="1275.7883928571428" type="line"/>
      <point x="505.42321428571427" y="1271.3060267857143" type="line"/>
      <point x="502.90558035714287" y="1054.890587797619" type="line"/>
      <point x="507.0036086309524" y="785.7811755952381" type="line"/>
      <point x="561.5762276785714" y="772.7459077380952" type="line"/>
      <point x="561.5762276785714" y="758.9341889880952" type="line"/>
    </contour>
    <contour>
      <point x="562.3646205357143" y="1013.8828125" type="line"/>
      <point x="675.7328497023809" y="1033.086644345238" type="line"/>
      <point x="766.6073288690476" y="841.1810639880953" type="line" smooth="yes"/>
      <point x="784.2229910714286" y="801.8792038690476"/>
      <point x="818.0622023809524" y="785.1380208333334"/>
      <point x="837.544568452381" y="784.5576264880953" type="qcurve"/>
      <point x="836.124962797619" y="758.9341889880952" type="line"/>
      <point x="690.050818452381" y="758.9341889880952" type="line"/>
      <point x="675.2390997023809" y="766.4518229166666" type="line"/>
    </contour>
  </outline>
</glyph>
<glyph name="plusminus" format="2">
  <advance width="785"/>
  <unicode hex="00B1"/>
  <outline>
    <contour>
      <point x="73.72563244047619" y="654.7059151785714" type="line"/>
      <point x="73.72563244047619" y="756.4309895833334" type="line"/>
      <point x="711.9019717261905" y="756.4309895833334" type="line"/>
      <point x="711.9019717261905" y="654.7059151785714" type="line"/>
    </contour>
    <contour>
      <point x="336.8708705357143" y="293.3174107142857" type="line"/>
      <point x="336.8708705357143" y="1128.2116071428572" type="line"/>
      <point x="448.1763392857143" y="1128.2116071428572" type="line"/>
      <point x="448.1763392857143" y="293.3174107142857" type="line"/>
    </contour>
    <contour>
      <point x="73.72563244047619" y="10.090252976190476" type="line"/>
      <point x="73.72563244047619" y="115.87808779761905" type="line"/>
      <point x="711.9019717261905" y="115.87808779761905" type="line"/>
      <point x="711.9019717261905" y="10.090252976190476" type="line"/>
    </contour>
  </outline>
</glyph>
<glyph name="acute" format="2">
  <advance width="896"/>
  <unicode hex="00B4"/>
  <outline>
    <contour>
      <point x="630.3018601190477" y="1210.442931547619" type="qcurve" smooth="yes"/>
      <point x="630.3018601190477" y="1180.0783110119048"/>
      <point x="599.007775297619" y="1139.007775297619"/>
      <point x="560.4470982142857" y="1121.5529017857143" type="qcurve" smooth="yes"/>
      <point x="305.3335193452381" y="991.8194940476191" type="line"/>
      <point x="291.3610119047619" y="1008.2116071428571" type="line"/>
      <point x="455.6395461309524" y="1196.05859375" type="line" smooth="yes"/>
      <point x="480.03165922619047" y="1228.0036086309524"/>
      <point x="524.94140625" y="1270.7878348214285"/>
      <point x="560.2432663690477" y="1270.7878348214285" type="qcurve" smooth="yes"/>
      <point x="593.2863095238096" y="1270.7878348214285"/>
      <point x="630.3018601190477" y="1238.9055803571428"/>
    </contour>
  </outline>
</glyph>
<glyph name="periodcentered" format="2">
  <advance width="400"/>
  <unicode hex="00B7"/>
  <outline>
    <contour>
      <point x="93.06692708333333" y="684.9216889880952" type="qcurve" smooth="yes"/>
      <point x="93.06692708333333" y="724.6784226190476"/>
      <point x="152.57261904761904" y="783.7645089285714"/>
      <point x="198.68619791666666" y="783.7645089285714" type="qcurve" smooth="yes"/>
      <point x="245.7997767857143" y="783.7645089285714"/>
      <point x="306.7250744047619" y="724.6784226190476"/>
      <point x="306.7250744047619" y="684.9216889880952" type="qcurve" smooth="yes"/>
      <point x="306.7250744047619" y="642.4237723214286"/>
      <point x="245.7997767857143" y="582.9180803571428"/>
      <point x="198.68619791666666" y="582.9180803571428" type="qcurve" smooth="yes"/>
      <point x="152.57261904761904" y="582.9180803571428"/>
      <point x="93.06692708333333" y="642.4237723214286"/>
    </contour>
  </outline>
</glyph>
<glyph name="onesuperior" format="2">
  <advance width="586"/>
  <unicode hex="00B9"/>
  <outline>
    <contour>
      <point x="93.3490699404762" y="767.0" type="line"/>
      <point x="93.3490699404762" y="791.007775297619" type="line"/>
      <point x="239.37963049635178" y="819.8469866071429" type="line"/>
      <point x="240.63844746063748" y="1156.9019717261904" type="line"/>
      <point x="238.79923615111366" y="1417.5569631456412" type="line"/>
      <point x="81.3490699404762" y="1402.4587839621736" type="line"/>
      <point x="81.3490699404762" y="1436.588169642857" type="line"/>
      <point x="376.0160912298387" y="1508.5803943452381" type="line"/>
      <point x="386.9885986703149" y="1503.4470982142857" type="line"/>
      <point x="383.3101760512673" y="1156.9019717261904" type="line"/>
      <point x="384.14938736079114" y="819.8469866071429" type="line"/>
      <point x="523.0191592261905" y="791.007775297619" type="line"/>
      <point x="523.0191592261905" y="767.0" type="line"/>
    </contour>
  </outline>
</glyph>
<glyph name="guillemetright" format="2">
  <advance width="943"/>
  <unicode hex="00BB"/>
  <outline>
    <contour>
      <point x="882.4620907738096" y="581.9019717261905" type="line"/>
      <point x="863.0699776785714" y="566.1255208333333"/>
      <point x="505.48180803571427" y="218.53318452380952"/>
      <point x="491.31324404761904" y="203.7842261904762" type="qcurve" smooth="yes"/>
      <point x="480.34073660714284" y="192.81171875"/>
      <point x="456.4584821428571" y="222.49791666666667"/>
      <point x="470.36822916666665" y="247.7370163690476" type="qcurve" smooth="yes"/>
      <point x="487.85059523809525" y="271.99583333333334"/>
      <point x="721.9097470238095" y="593.9372395833333"/>
      <point x="735.0705357142857" y="608.7136904761904" type="qcurve"/>
      <point x="723.9097470238095" y="624.4901413690476"/>
      <point x="486.34073660714284" y="925.6276041666666"/>
      <point x="459.3760044642857" y="958.8864211309524" type="qcurve" smooth="yes"/>
      <point x="444.4034970238095" y="982.6706473214285"/>
      <point x="460.8308779761905" y="1020.6156622023809"/>
      <point x="481.5798363095238" y="1003.4823660714286" type="qcurve" smooth="yes"/>
      <point x="517.8386532738095" y="971.4196056547619"/>
      <point x="835.6503720238095" y="678.1058035714286"/>
      <point x="882.4620907738096" y="632.2038318452381" type="qcurve"/>
    </contour>
    <contour>
      <point x="498.5409598214286" y="581.9019717261905" type="line"/>
      <point x="479.14884672619047" y="566.1255208333333"/>
      <point x="121.56067708333333" y="218.53318452380952"/>
      <point x="107.3921130952381" y="203.7842261904762" type="qcurve" smooth="yes"/>
      <point x="96.41960565476191" y="192.81171875"/>
      <point x="72.53735119047619" y="222.49791666666667"/>
      <point x="86.44709821428572" y="247.7370163690476" type="qcurve" smooth="yes"/>
      <point x="103.92946428571429" y="271.99583333333334"/>
      <point x="337.98861607142857" y="593.9372395833333"/>
      <point x="351.14940476190475" y="608.7136904761904" type="qcurve"/>
      <point x="339.98861607142857" y="624.4901413690476"/>
      <point x="102.41960565476191" y="925.6276041666666"/>
      <point x="75.45487351190476" y="958.8864211309524" type="qcurve" smooth="yes"/>
      <point x="60.48236607142857" y="982.6706473214285"/>
      <point x="76.90974702380953" y="1020.6156622023809"/>
      <point x="97.65870535714285" y="1003.4823660714286" type="qcurve" smooth="yes"/>
      <point x="133.91752232142858" y="971.4196056547619"/>
      <point x="451.7292410714286" y="678.1058035714286"/>
      <point x="498.5409598214286" y="632.2038318452381" type="qcurve"/>
    </contour>
  </outline>
</glyph>
<glyph name="AE" format="2">
  <advance width="1330"/>
  <unicode hex="00C6"/>
  <outline>
    <contour>
      <point x="-39.321577380952384" y="0.0" type="line"/>
      <point x="-39.321577380952384" y="31.686197916666664" type="line"/>
      <point x="85.52540922619048" y="65.42738095238096" type="line"/>
      <point x="266.2313244047619" y="613.8194940476191" type="line"/>
      <point x="539.1177455357143" y="1438.600111607143" type="line"/>
      <point x="389.34906994047617" y="1468.411830357143" type="line"/>
      <point x="389.34906994047617" y="1500.0" type="line"/>
      <point x="1240.0227678571428" y="1500.0" type="line"/>
      <point x="1240.0227678571428" y="1129.0824776785714" type="line"/>
      <point x="1210.4973586309525" y="1129.0824776785714" type="line"/>
      <point x="1128.9091889880951" y="1464.3765625" type="line"/>
      <point x="851.438206845238" y="1464.3765625" type="line"/>
      <point x="833.3049107142857" y="1442.2432663690477" type="line"/>
      <point x="834.242150297619" y="784.5803943452381" type="line"/>
      <point x="831.7245163690476" y="63.36462053571428" type="line"/>
      <point x="865.04609375" y="34.2038318452381" type="line"/>
      <point x="1159.3915550595239" y="34.2038318452381" type="line"/>
      <point x="1271.0424851190476" y="402.10580357142857" type="line"/>
      <point x="1298.8267113095237" y="402.10580357142857" type="line"/>
      <point x="1269.6659226190477" y="0.0" type="line"/>
      <point x="495.442931547619" y="0.0" type="line"/>
      <point x="495.442931547619" y="29.525409226190476" type="line"/>
      <point x="603.1685639880952" y="61.105803571428574" type="line"/>
      <point x="606.3293526785715" y="784.0" type="line"/>
      <point x="604.3293526785715" y="1444.18828125" type="line"/>
      <point x="584.196056547619" y="1445.0274925595238" type="line"/>
      <point x="311.95279017857143" y="601.0430431547619" type="line"/>
      <point x="141.18411458333333" y="69.26659226190476" type="line"/>
      <point x="268.1566220238095" y="31.686197916666664" type="line"/>
      <point x="268.1566220238095" y="0.0" type="line"/>
    </contour>
    <contour>
      <point x="282.58816964285717" y="585.4901413690476" type="line"/>
      <point x="296.98028273809524" y="624.2116071428571" type="line"/>
      <point x="469.30963541666665" y="620.1135788690476" type="line"/>
      <point x="469.30963541666665" y="587.4901413690476" type="line"/>
    </contour>
    <contour>
      <point x="469.30963541666665" y="620.1135788690476" type="line"/>
      <point x="632.0705357142857" y="623.8900297619048" type="line"/>
      <point x="632.9097470238095" y="585.1685639880952" type="line"/>
      <point x="469.30963541666665" y="587.4901413690476" type="line"/>
    </contour>
    <contour>
      <point x="734.6778645833333" y="771.4470982142857" type="line"/>
      <point x="734.6778645833333" y="798.231324404762" type="line"/>
      <point x="1064.9169642857144" y="804.0705357142857" type="line"/>
      <point x="1133.4423735119049" y="1006.8392113095238" type="line"/>
      <point x="1158.9677827380951" y="1006.8392113095238" type="line"/>
      <point x="1158.9677827380951" y="559.9019717261905" type="line"/>
      <point x="1133.4423735119049" y="559.9019717261905" type="line"/>
      <point x="1064.9169642857144" y="768.5098586309524" type="line"/>
    </contour>
  </outline>
</glyph>
<glyph name="Thorn" format="2">
  <advance width="928"/>
  <unicode hex="00DE"/>
  <outline>
    <contour>
      <point x="14.866703869047619" y="0.0" type="line"/>
      <point x="14.866703869047619" y="28.525409226190476" type="line"/>
      <point x="119.91391369047619" y="61.94501488095238" type="line"/>
      <point x="121.91391369047619" y="758.6431547619047" type="line"/>
      <point x="119.91391369047619" y="1434.4745907738095" type="line"/>
      <point x="14.286309523809525" y="1468.4745907738095" type="line"/>
      <point x="14.286309523809525" y="1500.0" type="line"/>
      <point x="453.2582589285714" y="1500.0" type="line"/>
      <point x="453.2582589285714" y="1465.1177455357142" type="line"/>
      <point x="345.7914434523809" y="1436.1530133928572" type="line"/>
      <point x="346.95223214285716" y="1295.803943452381" type="line"/>
      <point x="510.3090773809524" y="1295.803943452381" type="line" smooth="yes"/>
      <point x="671.1560639880952" y="1295.803943452381"/>
      <point x="888.1716145833334" y="1089.607886904762"/>
      <point x="888.1716145833334" y="888.1530133928571" type="qcurve" smooth="yes"/>
      <point x="888.1716145833334" y="654.0747023809524"/>
      <point x="651.7836681547619" y="412.1452380952381"/>
      <point x="455.8033854166667" y="412.1452380952381" type="qcurve" smooth="yes"/>
      <point x="424.86614583333335" y="412.1452380952381"/>
      <point x="348.90918898809525" y="423.8864211309524"/>
      <point x="323.90918898809525" y="435.52957589285717" type="qcurve"/>
      <point x="327.00721726190477" y="472.89419642857143" type="line"/>
      <point x="354.9719494047619" y="462.7686755952381"/>
      <point x="426.5995535714286" y="452.70591517857144"/>
      <point x="458.1171875" y="452.70591517857144" type="qcurve" smooth="yes"/>
      <point x="551.6467633928571" y="452.70591517857144"/>
      <point x="652.6784226190476" y="609.3610119047619"/>
      <point x="652.6784226190476" y="879.4745907738095" type="qcurve" smooth="yes"/>
      <point x="652.6784226190476" y="1112.1410714285714"/>
      <point x="534.6114955357143" y="1245.0197172619048"/>
      <point x="434.6975818452381" y="1250.145238095238" type="qcurve"/>
      <point x="346.6306547619048" y="1249.7256324404761" type="line"/>
      <point x="349.9875" y="765.5803943452381" type="line"/>
      <point x="351.9875" y="66.52540922619048" type="line"/>
      <point x="466.3210193452381" y="29.525409226190476" type="line"/>
      <point x="466.3210193452381" y="0.0" type="line"/>
    </contour>
  </outline>
</glyph>
<glyph name="germandbls" format="2">
  <advance width="985"/>
  <unicode hex="00DF"/>
  <outline>
    <contour>
      <point x="680.0341517857142" y="1245.537351190476" type="qcurve" smooth="yes"/>
      <point x="680.0341517857142" y="1153.2157738095239"/>
      <point x="614.0341517857142" y="1011.4196056547619"/>
      <point x="578.7125744047619" y="958.6509300595238" type="qcurve" smooth="yes"/>
      <point x="547.3635044642857" y="909.9527901785714"/>
      <point x="521.1046875" y="845.827269345238"/>
      <point x="521.1046875" y="803.6389880952381" type="qcurve" smooth="yes"/>
      <point x="521.1046875" y="740.9330729166667"/>
      <point x="637.0222098214285" y="643.7722842261904"/>
      <point x="727.8966889880952" y="586.4232142857143" type="qcurve" smooth="yes"/>
      <point x="845.6259300595239" y="518.066369047619"/>
      <point x="954.3473958333334" y="370.5409598214286"/>
      <point x="954.3473958333334" y="255.14884672619047" type="qcurve" smooth="yes"/>
      <point x="954.3473958333334" y="134.5959449404762"/>
      <point x="808.5751116071428" y="-16.035267857142856"/>
      <point x="674.3479538690476" y="-16.035267857142856" type="qcurve" smooth="yes"/>
      <point x="586.7872767857143" y="-16.035267857142856"/>
      <point x="468.89724702380954" y="45.85892857142857"/>
      <point x="445.18355654761905" y="74.78839285714285" type="qcurve"/>
      <point x="410.34434523809523" y="0.0" type="line"/>
      <point x="388.5953869047619" y="0.0" type="line"/>
      <point x="389.7561755952381" y="333.6234375" type="line"/>
      <point x="414.1207961309524" y="333.6234375" type="line"/>
      <point x="441.6736979166667" y="216.0274925595238" type="line" smooth="yes"/>
      <point x="463.99527529761906" y="119.19605654761905"/>
      <point x="575.1991071428572" y="16.588169642857142"/>
      <point x="642.1363467261905" y="16.007775297619048" type="qcurve" smooth="yes"/>
      <point x="710.7795014880952" y="15.427380952380952"/>
      <point x="787.2618675595238" y="102.41183035714286"/>
      <point x="787.2618675595238" y="171.18050595238094" type="qcurve" smooth="yes"/>
      <point x="787.2618675595238" y="238.1727306547619"/>
      <point x="694.7795014880952" y="343.19244791666665"/>
      <point x="613.5834449404762" y="400.4159970238095" type="qcurve" smooth="yes"/>
      <point x="494.85420386904764" y="479.4237723214286"/>
      <point x="388.4895833333333" y="627.6276041666666"/>
      <point x="388.4895833333333" y="733.9569568452381" type="qcurve" smooth="yes"/>
      <point x="388.4895833333333" y="805.803943452381"/>
      <point x="432.88169642857144" y="912.8744791666667"/>
      <point x="463.00721726190477" y="967.5176339285714" type="qcurve" smooth="yes"/>
      <point x="487.9719494047619" y="1012.1607886904762"/>
      <point x="535.2504836309524" y="1163.4196056547619"/>
      <point x="535.2504836309524" y="1262.2235491071428" type="qcurve" smooth="yes"/>
      <point x="535.2504836309524" y="1368.5803943452381"/>
      <point x="488.8033854166667" y="1473.341294642857"/>
      <point x="428.06997767857143" y="1473.760900297619" type="qcurve" smooth="yes"/>
      <point x="379.9444568452381" y="1474.180505952381"/>
      <point x="323.92473958333335" y="1368.0274925595238"/>
      <point x="323.50513392857147" y="1134.8511532738096" type="qcurve" smooth="yes"/>
      <point x="322.08552827380953" y="477.0" type="line"/>
      <point x="327.82671130952383" y="26.0" type="line"/>
      <point x="308.21104910714286" y="-1.1607886904761906" type="line"/>
      <point x="15.901971726190476" y="0.0" type="line"/>
      <point x="15.901971726190476" y="29.525409226190476" type="line"/>
      <point x="106.08247767857142" y="58.14107142857143" type="line"/>
      <point x="111.43932291666667" y="477.0" type="line"/>
      <point x="107.69813988095238" y="1056.8392113095238" type="line" smooth="yes"/>
      <point x="106.11774553571428" y="1330.9372395833334"/>
      <point x="249.6939732142857" y="1522.2313244047618"/>
      <point x="407.6700892857143" y="1522.2313244047618" type="qcurve" smooth="yes"/>
      <point x="557.8422619047619" y="1522.2313244047618"/>
      <point x="680.0341517857142" y="1372.7334077380951"/>
    </contour>
  </outline>
</glyph>
<glyph name="eth" format="2">
  <advance width="806"/>
  <unicode hex="00F0"/>
  <outline>
    <contour>
      <point x="31.286309523809525" y="467.0980282738095" type="qcurve" smooth="yes"/>
      <point x="31.286309523809525" y="711.1058035714286"/>
      <point x="229.93307291666667" y="962.4823660714286"/>
      <point x="367.7250744047619" y="962.4823660714286" type="qcurve" smooth="yes"/>
      <point x="479.89363839285716" y="962.4823660714286"/>
      <point x="586.4112723214286" y="784.2940848214286"/>
      <point x="586.4112723214286" y="478.83143601190477" type="qcurve"/>
      <point x="550.2349330357143" y="476.5098586309524" type="line"/>
      <point x="547.9133556547619" y="768.9216889880952"/>
      <point x="458.0896949404762" y="932.6001116071428"/>
      <point x="401.3915550595238" y="932.6001116071428" type="qcurve" smooth="yes"/>
      <point x="338.9875" y="932.6001116071428"/>
      <point x="271.29713541666666" y="773.6742559523809"/>
      <point x="271.29713541666666" y="486.9019717261905" type="qcurve" smooth="yes"/>
      <point x="271.29713541666666" y="198.2002232142857"/>
      <point x="342.6306547619048" y="20.658705357142857"/>
      <point x="405.45431547619046" y="20.658705357142857" type="qcurve" smooth="yes"/>
      <point x="470.6975818452381" y="20.658705357142857"/>
      <point x="533.2271577380952" y="175.18050595238094"/>
      <point x="529.7447916666666" y="458.5606770833333" type="qcurve" smooth="yes"/>
      <point x="525.68203125" y="891.6037202380952"/>
      <point x="421.3921130952381" y="1408.2785342261905"/>
      <point x="220.3018601190476" y="1508.3765625" type="qcurve"/>
      <point x="247.76450892857144" y="1547.6784226190475" type="line"/>
      <point x="525.8739211309523" y="1435.537351190476"/>
      <point x="762.4340401785714" y="862.1058035714286"/>
      <point x="762.4340401785714" y="568.1058035714286" type="qcurve" smooth="yes"/>
      <point x="762.4340401785714" y="272.65093005952383"/>
      <point x="559.6814732142857" y="-13.741183035714286"/>
      <point x="404.19549851190476" y="-13.741183035714286" type="qcurve" smooth="yes"/>
      <point x="234.19966517857142" y="-13.741183035714286"/>
      <point x="31.286309523809525" y="242.25881696428573"/>
    </contour>
    <contour>
      <point x="221.94501488095239" y="1177.5529017857143" type="line"/>
      <point x="660.313244047619" y="1490.4196056547619" type="line"/>
      <point x="686.3210193452381" y="1453.760900297619" type="line"/>
      <point x="247.95279017857143" y="1140.0549851190476" type="line"/>
    </contour>
  </outline>
</glyph>
<glyph name="divide" format="2">
  <advance width="688"/>
  <unicode hex="00F7"/>
  <outline>
    <contour>
      <point x="54.73340773809524" y="581.94140625" type="line"/>
      <point x="54.73340773809524" y="682.05859375" type="line"/>
      <point x="631.9683407738095" y="682.05859375" type="line"/>
      <point x="631.9683407738095" y="581.94140625" type="line"/>
    </contour>
    <contour>
      <point x="260.1727306547619" y="406.93363095238095" type="qcurve" smooth="yes"/>
      <point x="260.1727306547619" y="438.3335193452381"/>
      <point x="306.80394345238096" y="489.48236607142854"/>
      <point x="342.72146577380954" y="489.48236607142854" type="qcurve" smooth="yes"/>
      <point x="378.6389880952381" y="489.48236607142854"/>
      <point x="425.27020089285713" y="438.3335193452381"/>
      <point x="425.27020089285713" y="406.93363095238095" type="qcurve" smooth="yes"/>
      <point x="425.27020089285713" y="375.1141369047619"/>
      <point x="378.6389880952381" y="323.80450148809524"/>
      <point x="342.72146577380954" y="323.80450148809524" type="qcurve" smooth="yes"/>
      <point x="306.80394345238096" y="323.80450148809524"/>
      <point x="260.1727306547619" y="375.1141369047619"/>
    </contour>
    <contour>
      <point x="260.1727306547619" y="858.2271577380952" type="qcurve" smooth="yes"/>
      <point x="260.1727306547619" y="890.0466517857143"/>
      <point x="306.80394345238096" y="940.3562872023809"/>
      <point x="342.72146577380954" y="940.3562872023809" type="qcurve" smooth="yes"/>
      <point x="378.6389880952381" y="940.3562872023809"/>
      <point x="425.27020089285713" y="890.0466517857143"/>
      <point x="425.27020089285713" y="858.2271577380952" type="qcurve" smooth="yes"/>
      <point x="425.27020089285713" y="826.827269345238"/>
      <point x="378.6389880952381" y="775.6784226190476"/>
      <point x="342.72146577380954" y="775.6784226190476" type="qcurve" smooth="yes"/>
      <point x="306.80394345238096" y="775.6784226190476"/>
      <point x="260.1727306547619" y="826.827269345238"/>
    </contour>
  </outline>
</glyph>
<glyph name="thorn" format="2">
  <advance width="867"/>
  <unicode hex="00FE"/>
  <outline>
    <contour>
      <point x="7.2510416666666675" y="-460.0" type="line"/>
      <point x="7.2510416666666675" y="-431.63537946428573" type="line"/>
      <point x="99.20799851190476" y="-400.6981398809524" type="line"/>
      <point x="101.20799851190476" y="389.0" type="line"/>
      <point x="100.50208333333333" y="1432.3138020833333" type="line"/>
      <point x="8.125520833333333" y="1467.8941964285714" type="line"/>
      <point x="8.125520833333333" y="1500.0" type="line"/>
      <point x="276.83865327380954" y="1500.8392113095238" type="line"/>
      <point x="299.5876116071429" y="1496.2588169642856" type="line"/>
      <point x="317.0149925595238" y="1468.1607886904762" type="line"/>
      <point x="313.7914434523809" y="830.7645089285714" type="line"/>
      <point x="335.7286830357143" y="879.5684523809524"/>
      <point x="454.82671130952383" y="959.8194940476191"/>
      <point x="544.0580357142858" y="959.8194940476191" type="qcurve" smooth="yes"/>
      <point x="661.7167410714286" y="959.8194940476191"/>
      <point x="831.7597842261905" y="742.9725074404762"/>
      <point x="831.7597842261905" y="491.29408482142856" type="qcurve" smooth="yes"/>
      <point x="831.7597842261905" y="233.26659226190475"/>
      <point x="645.806994047619" y="-9.294084821428571"/>
      <point x="519.8344866071428" y="-9.294084821428571" type="qcurve" smooth="yes"/>
      <point x="450.4071056547619" y="-9.294084821428571"/>
      <point x="349.7286830357143" y="28.67064732142857"/>
      <point x="320.7914434523809" y="59.50985863095238" type="qcurve"/>
      <point x="322.7914434523809" y="-400.6981398809524" type="line"/>
      <point x="449.0424851190476" y="-431.63537946428573" type="line"/>
      <point x="449.0424851190476" y="-460.0" type="line"/>
    </contour>
    <contour>
      <point x="319.37183779761904" y="109.32935267857142" type="line"/>
      <point x="338.23854166666666" y="78.56067708333333"/>
      <point x="405.0896949404762" y="46.14884672619048"/>
      <point x="442.34073660714284" y="46.14884672619048" type="qcurve" smooth="yes"/>
      <point x="519.3174107142858" y="46.14884672619048"/>
      <point x="597.3293526785715" y="199.62760416666666"/>
      <point x="597.3293526785715" y="475.93723958333334" type="qcurve" smooth="yes"/>
      <point x="597.3293526785715" y="736.6939732142857"/>
      <point x="524.9958333333333" y="887.5020833333333"/>
      <point x="449.5917782738095" y="887.5020833333333" type="qcurve" smooth="yes"/>
      <point x="405.5367931547619" y="887.5020833333333"/>
      <point x="328.14051339285714" y="813.1255208333333"/>
      <point x="314.6306547619048" y="772.5176339285714" type="qcurve"/>
      <point x="316.7914434523809" y="398.7136904761905" type="line"/>
    </contour>
  </outline>
</glyph>
<glyph name="idotless" format="2">
  <advance width="428"/>
  <unicode hex="0131"/>
  <outline>
    <contour>
      <point x="20.411830357142858" y="0.0" type="line"/>
      <point x="20.411830357142858" y="30.105803571428574" type="line"/>
      <point x="108.04720982142857" y="55.525409226190476" type="line"/>
      <point x="110.46681547619048" y="488.3293526785714" type="line"/>
      <point x="104.3060267857143" y="864.8667038690476" type="line"/>
      <point x="11.509858630952381" y="895.2235491071428" type="line"/>
      <point x="11.509858630952381" y="923.8469866071429" type="line"/>
      <point x="271.6151041666667" y="943.6234375" type="line"/>
      <point x="300.6934151785714" y="948.2390997023809" type="line"/>
      <point x="332.92473958333335" y="917.0430431547619" type="line"/>
      <point x="331.18355654761905" y="487.4901413690476" type="line"/>
      <point x="335.50513392857147" y="55.105803571428574" type="line"/>
      <point x="420.3013020833333" y="30.105803571428574" type="line"/>
      <point x="420.3013020833333" y="0.0" type="line"/>
    </contour>
  </outline>
</glyph>
<glyph name="kgreenlandic" format="2">
  <advance width="833"/>
  <unicode hex="0138"/>
  <outline>
    <contour>
      <point x="44.56484375" y="0.0" type="line"/>
      <point x="44.56484375" y="27.78422619047619" type="line"/>
      <point x="120.52180059523809" y="55.2038318452381" type="line"/>
      <point x="121.68258928571429" y="479.0980282738095" type="line"/>
      <point x="116.74534970238096" y="881.1607886904762" type="line"/>
      <point x="39.753125" y="909.6156622023809" type="line"/>
      <point x="39.753125" y="940.9802827380952" type="line"/>
      <point x="414.7131324404762" y="940.9802827380952" type="line"/>
      <point x="414.7131324404762" y="907.9372395833333" type="line"/>
      <point x="338.9444568452381" y="882.1607886904762" type="line"/>
      <point x="339.2032738095238" y="516.1763392857143" type="line"/>
      <point x="343.9444568452381" y="55.6234375" type="line"/>
      <point x="420.22299107142857" y="27.78422619047619" type="line"/>
      <point x="420.22299107142857" y="0.0" type="line"/>
    </contour>
    <contour>
      <point x="294.93668154761906" y="404.25104166666665" type="line"/>
      <point x="281.22299107142857" y="437.7136904761905" type="line"/>
      <point x="633.1363467261905" y="878.8744791666667" type="line"/>
      <point x="538.003050595238" y="910.0352678571429" type="line"/>
      <point x="538.5834449404762" y="940.9802827380952" type="line"/>
      <point x="791.7322916666667" y="940.9802827380952" type="line"/>
      <point x="791.7322916666667" y="914.6784226190476" type="line"/>
      <point x="685.5087425595239" y="875.9725074404762" type="line"/>
    </contour>
    <contour>
      <point x="384.5720610119048" y="546.94140625" type="line"/>
      <point x="547.1321800595238" y="719.3329613095239" type="line"/>
      <point x="804.1124627976191" y="55.94501488095238" type="line"/>
      <point x="881.1674479166667" y="27.78422619047619" type="line"/>
      <point x="881.1674479166667" y="0.0" type="line"/>
      <point x="511.10941220238095" y="0.0" type="line"/>
      <point x="508.5290178571429" y="28.588169642857142" type="line"/>
      <point x="569.8780877976191" y="55.78422619047619" type="line"/>
    </contour>
  </outline>
</glyph>
<glyph name="Schwa" format="2">
  <advance width="983"/>
  <unicode hex="018F"/>
  <outline>
    <contour>
      <point x="84.94501488095239" y="1271.537351190476" type="line"/>
      <point x="123.56845238095238" y="1352.7411830357144"/>
      <point x="311.5840029761905" y="1514.6784226190475"/>
      <point x="468.0466517857143" y="1514.6784226190475" type="qcurve" smooth="yes"/>
      <point x="666.8739211309523" y="1514.6784226190475"/>
      <point x="937.5129092261905" y="1120.6431547619047"/>
      <point x="937.5129092261905" y="704.0233258928572" type="qcurve" smooth="yes"/>
      <point x="937.5129092261905" y="336.73701636904764"/>
      <point x="704.6228794642857" y="-18.901971726190474"/>
      <point x="494.1171875" y="-18.32157738095238" type="qcurve" smooth="yes"/>
      <point x="296.75256696428573" y="-17.741183035714286"/>
      <point x="51.98028273809524" y="308.96473214285714"/>
      <point x="48.6234375" y="642.9647321428571" type="qcurve" smooth="yes"/>
      <point x="48.6234375" y="676.0" type="line"/>
      <point x="810.1369047619048" y="676.0" type="line"/>
      <point x="810.1369047619048" y="635.2510416666667" type="line"/>
      <point x="522.6856398809524" y="641.0549851190476" type="line"/>
      <point x="243.5559523809524" y="635.2510416666667" type="line"/>
      <point x="243.5559523809524" y="614.572619047619" type="line" smooth="yes"/>
      <point x="243.5559523809524" y="263.05137648809523"/>
      <point x="351.19549851190476" y="24.46264880952381"/>
      <point x="468.29769345238094" y="24.46264880952381" type="qcurve" smooth="yes"/>
      <point x="586.5606770833333" y="24.46264880952381"/>
      <point x="688.3962797619048" y="234.29825148809525"/>
      <point x="688.3962797619048" y="694.1607886904762" type="qcurve" smooth="yes"/>
      <point x="688.3962797619048" y="1188.521242559524"/>
      <point x="540.5881696428571" y="1462.3687872023809"/>
      <point x="427.2193824404762" y="1462.3687872023809" type="qcurve" smooth="yes"/>
      <point x="322.4507068452381" y="1462.3687872023809"/>
      <point x="151.50569196428572" y="1319.760900297619"/>
      <point x="114.05081845238095" y="1253.145238095238" type="qcurve"/>
    </contour>
  </outline>
</glyph>
<glyph name="florin" format="2">
  <advance width="522"/>
  <unicode hex="0192"/>
  <outline>
    <contour>
      <point x="352.32462797619047" y="86.38794642857142" type="line" smooth="yes"/>
      <point x="350.48541666666665" y="-51.886421130952385"/>
      <point x="230.8542038690476" y="-209.5803943452381"/>
      <point x="131.21521577380952" y="-209.5803943452381" type="qcurve" smooth="yes"/>
      <point x="65.4507068452381" y="-209.5803943452381"/>
      <point x="-28.839211309523808" y="-181.99222470238095"/>
      <point x="-46.90974702380952" y="-167.2157738095238" type="qcurve" smooth="yes"/>
      <point x="-60.65870535714286" y="-157.50208333333333" type="line"/>
      <point x="-45.686197916666664" y="-134.6198288690476" type="line"/>
      <point x="-40.58816964285714" y="-138.6198288690476" type="line" smooth="yes"/>
      <point x="-32.49014136904762" y="-145.94140625"/>
      <point x="4.705915178571429" y="-158.16495535714284"/>
      <point x="30.286309523809525" y="-158.16495535714284" type="qcurve" smooth="yes"/>
      <point x="66.31380208333333" y="-158.16495535714284"/>
      <point x="123.7686755952381" y="-84.56484375"/>
      <point x="125.18828125" y="0.04304315476190368" type="qcurve" smooth="yes"/>
      <point x="136.6078869047619" y="864.0472098214286" type="line"/>
      <point x="39.61566220238095" y="884.6353794642857" type="line"/>
      <point x="42.07053571428571" y="921.196056547619" type="line"/>
      <point x="140.22354910714284" y="931.4901413690476" type="line"/>
      <point x="141.12552083333333" y="1190.0041666666666" type="line" smooth="yes"/>
      <point x="139.6078869047619" y="1335.2432663690477"/>
      <point x="255.37239583333334" y="1528.8744791666666"/>
      <point x="378.6623139880952" y="1528.8744791666666" type="qcurve" smooth="yes"/>
      <point x="429.0347098214286" y="1528.8744791666666"/>
      <point x="506.6736979166667" y="1504.5803943452381"/>
      <point x="534.5481770833334" y="1494.1255208333334" type="qcurve" smooth="yes"/>
      <point x="543.9050223214285" y="1488.8667038690476" type="line"/>
      <point x="527.003050595238" y="1448.7883928571428" type="line"/>
      <point x="520.7442336309524" y="1452.7883928571428" type="line" smooth="yes"/>
      <point x="507.52068452380956" y="1462.0119419642858"/>
      <point x="481.29713541666666" y="1470.4943080357143"/>
      <point x="464.7795014880952" y="1470.4943080357143" type="qcurve" smooth="yes"/>
      <point x="420.22659970238095" y="1470.4943080357143"/>
      <point x="359.6462053571429" y="1385.9139136904762"/>
      <point x="360.06581101190477" y="1300.145238095238" type="qcurve" smooth="yes"/>
      <point x="362.58344494047617" y="925.4548735119048" type="line"/>
      <point x="501.41488095238094" y="923.7136904761904" type="line"/>
      <point x="501.41488095238094" y="879.0824776785714" type="line"/>
      <point x="362.58344494047617" y="877.2785342261905" type="line"/>
    </contour>
  </outline>
</glyph>
<glyph name="primemod" format="2">
  <advance width="381"/>
  <unicode hex="02B9"/>
  <outline>
    <contour>
      <point x="223.6078869047619" y="1502.0" type="line"/>
      <point x="388.7328497023809" y="1502.0" type="line"/>
      <point x="229.51346726190476" y="920.3257440476191" type="line"/>
      <point x="185.6234375" y="925.3257440476191" type="line"/>
    </contour>
  </outline>
</glyph>
<glyph name="breve" format="2">
  <advance width="896"/>
  <unicode hex="02D8"/>
  <outline>
    <contour>
      <point x="645.2940848214286" y="1238.674255952381" type="qcurve"/>
      <point x="668.1410714285714" y="1236.9330729166666" type="line"/>
      <point x="650.3371279761905" y="1155.8900297619048"/>
      <point x="540.5254092261905" y="1009.4901413690476"/>
      <point x="449.0" y="1009.4901413690476" type="qcurve" smooth="yes"/>
      <point x="357.4745907738095" y="1009.4901413690476"/>
      <point x="250.76090029761906" y="1149.3096354166667"/>
      <point x="232.05498511904761" y="1235.7722842261905" type="qcurve"/>
      <point x="256.5803943452381" y="1238.674255952381" type="line"/>
      <point x="283.32157738095236" y="1183.878087797619"/>
      <point x="379.9019717261905" y="1116.9408482142858"/>
      <point x="449.4196056547619" y="1118.68203125" type="qcurve" smooth="yes"/>
      <point x="526.4901413690476" y="1116.9408482142858"/>
      <point x="622.9725074404762" y="1186.0388764880952"/>
    </contour>
  </outline>
</glyph>
<glyph name="ring" format="2">
  <advance width="896"/>
  <unicode hex="02DA"/>
  <outline>
    <contour>
      <point x="285.0119419642857" y="1185.8858630952382" type="qcurve" smooth="yes"/>
      <point x="285.0119419642857" y="1257.1524553571428"/>
      <point x="377.89419642857143" y="1345.55234375"/>
      <point x="448.0" y="1345.55234375" type="qcurve" smooth="yes"/>
      <point x="523.9097470238095" y="1345.55234375"/>
      <point x="612.1488467261905" y="1254.8308779761905"/>
      <point x="612.1488467261905" y="1185.8858630952382" type="qcurve" smooth="yes"/>
      <point x="612.1488467261905" y="1117.3604538690477"/>
      <point x="518.1058035714286" y="1026.6389880952381"/>
      <point x="450.9019717261905" y="1026.6389880952381" type="qcurve" smooth="yes"/>
      <point x="377.89419642857143" y="1026.6389880952381"/>
      <point x="285.0119419642857" y="1115.0388764880952"/>
    </contour>
    <contour>
      <point x="364.58816964285717" y="1187.0466517857144" type="qcurve" smooth="yes"/>
      <point x="364.58816964285717" y="1147.921130952381"/>
      <point x="407.5529017857143" y="1095.6700892857143"/>
      <point x="450.9019717261905" y="1095.6700892857143" type="qcurve" smooth="yes"/>
      <point x="491.6078869047619" y="1095.6700892857143"/>
      <point x="531.992224702381" y="1144.921130952381"/>
      <point x="531.992224702381" y="1187.0466517857144" type="qcurve" smooth="yes"/>
      <point x="531.992224702381" y="1225.5917782738095"/>
      <point x="488.4470982142857" y="1278.262425595238"/>
      <point x="448.0" y="1278.262425595238" type="qcurve" smooth="yes"/>
      <point x="406.7136904761905" y="1278.262425595238"/>
      <point x="364.58816964285717" y="1229.0113839285714"/>
    </contour>
  </outline>
</glyph>
<glyph name="tilde" format="2">
  <advance width="896"/>
  <unicode hex="02DC"/>
  <outline>
    <contour>
      <point x="192.62760416666666" y="1068.3646205357143" type="line"/>
      <point x="209.20799851190475" y="1113.9252976190476"/>
      <point x="292.8589285714286" y="1197.7447916666667"/>
      <point x="348.70591517857144" y="1197.7447916666667" type="qcurve" smooth="yes"/>
      <point x="381.7686755952381" y="1197.7447916666667"/>
      <point x="437.32157738095236" y="1172.4232142857143"/>
      <point x="471.29408482142856" y="1155.4232142857143" type="qcurve" smooth="yes"/>
      <point x="503.5254092261905" y="1139.5840029761905"/>
      <point x="552.9097470238095" y="1114.297693452381"/>
      <point x="580.2665922619047" y="1114.297693452381" type="qcurve" smooth="yes"/>
      <point x="608.7842261904761" y="1114.297693452381"/>
      <point x="653.8469866071429" y="1146.0388764880952"/>
      <point x="675.2390997023809" y="1172.5917782738095" type="qcurve"/>
      <point x="693.631212797619" y="1160.1369047619048" type="line"/>
      <point x="675.7920014880953" y="1109.1918898809524"/>
      <point x="605.9450148809524" y="1023.9802827380952"/>
      <point x="552.8744791666667" y="1023.9802827380952" type="qcurve" smooth="yes"/>
      <point x="518.6509300595238" y="1023.9802827380952"/>
      <point x="459.3293526785714" y="1048.2665922619049"/>
      <point x="429.0980282738095" y="1061.6861979166667" type="qcurve" smooth="yes"/>
      <point x="397.70591517857144" y="1075.6861979166667"/>
      <point x="345.7411830357143" y="1106.1332961309524"/>
      <point x="314.80394345238096" y="1106.1332961309524" type="qcurve" smooth="yes"/>
      <point x="283.8667038690476" y="1106.1332961309524"/>
      <point x="227.5373511904762" y="1072.9097470238096"/>
      <point x="210.50208333333333" y="1053.1332961309524" type="qcurve"/>
    </contour>
  </outline>
</glyph>
<glyph name="hungarumlaut" format="2">
  <advance width="896"/>
  <unicode hex="02DD"/>
  <outline>
    <contour>
      <point x="598.9994419642857" y="1221.6037202380953" type="qcurve" smooth="yes"/>
      <point x="598.9994419642857" y="1195.3018601190477"/>
      <point x="568.4465401785715" y="1160.1332961309524"/>
      <point x="534.3682291666667" y="1144.9019717261904" type="qcurve" smooth="yes"/>
      <point x="311.30963541666665" y="1033.0274925595238" type="line"/>
      <point x="295.5959449404762" y="1051.1607886904762" type="line"/>
      <point x="437.81949404761906" y="1218.1135788690476" type="line" smooth="yes"/>
      <point x="459.30963541666665" y="1247.1566220238096"/>
      <point x="495.51346726190474" y="1282.9761160714286"/>
      <point x="529.6545386904762" y="1282.9761160714286" type="qcurve" smooth="yes"/>
      <point x="563.2779761904762" y="1282.9761160714286"/>
      <point x="598.9994419642857" y="1247.6114955357143"/>
    </contour>
    <contour>
      <point x="884.0813616071429" y="1220.442931547619" type="qcurve" smooth="yes"/>
      <point x="884.0813616071429" y="1194.1410714285714"/>
      <point x="852.3676711309524" y="1156.6509300595237"/>
      <point x="818.8697544642857" y="1142.0" type="qcurve" smooth="yes"/>
      <point x="594.0699776785714" y="1033.0274925595238" type="line"/>
      <point x="578.3562872023809" y="1051.1607886904762" type="line"/>
      <point x="721.1602306547619" y="1219.854761904762" type="line" smooth="yes"/>
      <point x="742.6503720238095" y="1248.8978050595238"/>
      <point x="785.371837797619" y="1284.717299107143"/>
      <point x="817.7717261904762" y="1284.717299107143" type="qcurve" smooth="yes"/>
      <point x="850.8147693452381" y="1284.717299107143"/>
      <point x="884.0813616071429" y="1247.6114955357143"/>
    </contour>
  </outline>
</glyph>
<glyph name="hookabovecomb" format="2">
  <advance width="896"/>
  <unicode hex="0309"/>
  <outline>
    <contour>
      <point x="365.6550967261905" y="977.1566220238095" type="line"/>
      <point x="364.4943080357143" y="1064.109412202381" type="line"/>
      <point x="387.20799851190475" y="1071.074144345238" type="line"/>
      <point x="396.69036458333335" y="1066.3329613095239"/>
      <point x="441.71785714285716" y="1056.8505952380951"/>
      <point x="464.5218005952381" y="1056.8505952380951" type="qcurve" smooth="yes"/>
      <point x="506.325744047619" y="1056.8505952380951"/>
      <point x="546.710081845238" y="1105.8428199404761"/>
      <point x="546.710081845238" y="1147.674255952381" type="qcurve" smooth="yes"/>
      <point x="546.710081845238" y="1192.2821428571428"/>
      <point x="499.00416666666666" y="1239.470424107143"/>
      <point x="453.8158854166667" y="1239.470424107143" type="qcurve" smooth="yes"/>
      <point x="410.3335193452381" y="1239.470424107143"/>
      <point x="338.557068452381" y="1212.7645089285713"/>
      <point x="319.0394345238095" y="1197.5409598214285" type="qcurve"/>
      <point x="308.5845610119048" y="1221.2271577380952" type="line"/>
      <point x="332.2982514880952" y="1245.4232142857143"/>
      <point x="433.76090029761906" y="1289.458482142857"/>
      <point x="491.9569568452381" y="1289.458482142857" type="qcurve" smooth="yes"/>
      <point x="573.2588169642858" y="1289.458482142857"/>
      <point x="660.8392113095238" y="1219.0311011904762"/>
      <point x="660.8392113095238" y="1155.6114955357143" type="qcurve" smooth="yes"/>
      <point x="660.8392113095238" y="1095.9330729166666"/>
      <point x="571.6706473214285" y="1014.6742559523809"/>
      <point x="487.4040550595238" y="1014.6742559523809" type="qcurve"/>
      <point x="461.78839285714287" y="1014.6742559523809"/>
      <point x="419.3412946428571" y="1020.4154389880953"/>
      <point x="404.8589285714286" y="1023.9958333333333" type="qcurve"/>
      <point x="404.8589285714286" y="977.1566220238095" type="line"/>
    </contour>
  </outline>
</glyph>
<glyph name="dotbelowcomb" format="2">
  <advance width="896"/>
  <unicode hex="0323"/>
  <outline>
    <contour>
      <point x="351.4943080357143" y="-157.81171875" type="qcurve" smooth="yes"/>
      <point x="351.4943080357143" y="-116.92946428571429"/>
      <point x="409.1177455357143" y="-62.20799851190476"/>
      <point x="448.0" y="-62.20799851190476" type="qcurve" smooth="yes"/>
      <point x="485.0430431547619" y="-62.20799851190476"/>
      <point x="541.0233258928572" y="-116.54512648809524"/>
      <point x="541.0233258928572" y="-157.81171875" type="qcurve" smooth="yes"/>
      <point x="541.0233258928572" y="-198.0155505952381"/>
      <point x="486.1410714285714" y="-253.7370163690476"/>
      <point x="448.0" y="-253.7370163690476" type="qcurve" smooth="yes"/>
      <point x="408.0549851190476" y="-253.7370163690476"/>
      <point x="351.4943080357143" y="-198.3371279761905"/>
    </contour>
  </outline>
</glyph>
<glyph name="commaaccentcomb" format="2">
  <advance width="896"/>
  <unicode hex="0326"/>
  <outline>
    <contour>
      <point x="345.8236607142857" y="-364.5959449404762" type="line"/>
      <point x="388.15301339285713" y="-340.23909970238094"/>
      <point x="458.8667038690476" y="-257.79200148809525"/>
      <point x="461.54512648809526" y="-213.50569196428572" type="qcurve"/>
      <point x="410.50208333333336" y="-219.56845238095238"/>
      <point x="349.94918154761905" y="-175.26659226190475"/>
      <point x="349.94918154761905" y="-136.35684523809525" type="qcurve" smooth="yes"/>
      <point x="349.94918154761905" y="-97.70591517857143"/>
      <point x="399.41183035714283" y="-47.43154761904762"/>
      <point x="440.45487351190474" y="-47.43154761904762" type="qcurve" smooth="yes"/>
      <point x="485.49791666666664" y="-47.43154761904762"/>
      <point x="534.5056919642857" y="-108.73340773809524"/>
      <point x="534.5056919642857" y="-159.70591517857142" type="qcurve" smooth="yes"/>
      <point x="534.5056919642857" y="-223.77645089285716"/>
      <point x="430.36462053571427" y="-356.05081845238095"/>
      <point x="362.57261904761907" y="-387.12135416666666" type="qcurve"/>
    </contour>
  </outline>
</glyph>
<glyph name="brevebelowcomb" format="2">
  <advance width="896"/>
  <unicode hex="032E"/>
  <outline>
    <contour>
      <point x="634.8469866071429" y="-56.737016369047616" type="qcurve"/>
      <point x="654.6587053571428" y="-58.05859375" type="line"/>
      <point x="642.6587053571428" y="-140.26242559523808"/>
      <point x="536.5881696428571" y="-280.8153273809524"/>
      <point x="449.0" y="-280.8153273809524" type="qcurve" smooth="yes"/>
      <point x="361.41183035714283" y="-280.8153273809524"/>
      <point x="250.76090029761906" y="-152.32518601190475"/>
      <point x="229.73340773809525" y="-65.86253720238095" type="qcurve"/>
      <point x="251.22354910714284" y="-62.54095982142857" type="line"/>
      <point x="279.8667038690476" y="-122.79200148809524"/>
      <point x="377.4470982142857" y="-184.81949404761906"/>
      <point x="449.4196056547619" y="-186.65870535714285" type="qcurve" smooth="yes"/>
      <point x="521.3921130952381" y="-188.49791666666667"/>
      <point x="617.4901413690476" y="-113.89002976190476"/>
    </contour>
  </outline>
</glyph>
<glyph name="Germandbls" format="2">
  <advance width="1161"/>
  <unicode hex="1E9E"/>
  <outline>
    <contour>
      <point x="113.78839285714285" y="708.6078869047619" type="line"/>
      <point x="110.62760416666667" y="1037.4315476190477" type="line" smooth="yes"/>
      <point x="108.04720982142857" y="1291.2707589285715"/>
      <point x="354.49791666666664" y="1562.0824776785714"/>
      <point x="579.7603422619047" y="1562.0824776785714" type="qcurve" smooth="yes"/>
      <point x="654.8386532738095" y="1562.0824776785714"/>
      <point x="809.6462053571429" y="1540.1099702380952"/>
      <point x="849.3246279761904" y="1531.2079985119049" type="qcurve"/>
      <point x="848.1638392857143" y="1474.1571800595239" type="line"/>
      <point x="695.3832217261904" y="1455.5845610119047"/>
      <point x="577.48125" y="1322.5451264880953"/>
      <point x="577.48125" y="1220.9802827380952" type="qcurve" smooth="yes"/>
      <point x="577.48125" y="1128.7017485119047"/>
      <point x="686.6575892857143" y="1011.1643973214286"/>
      <point x="853.3360119047619" y="882.8780877976191" type="qcurve" smooth="yes"/>
      <point x="1022.1399553571429" y="752.7878348214285"/>
      <point x="1143.8339285714285" y="529.9683407738095"/>
      <point x="1143.8339285714285" y="373.6037202380952" type="qcurve" smooth="yes"/>
      <point x="1143.8339285714285" y="195.11357886904761"/>
      <point x="948.48125" y="-24.901971726190474"/>
      <point x="809.9402901785714" y="-24.901971726190474" type="qcurve" smooth="yes"/>
      <point x="702.3443452380952" y="-24.901971726190474"/>
      <point x="558.9169642857142" y="61.15301339285715"/>
      <point x="520.2385416666666" y="126.01194196428571" type="qcurve"/>
      <point x="474.7209077380952" y="0.5803943452380953" type="line"/>
      <point x="451.2935267857143" y="0.5803943452380953" type="line"/>
      <point x="451.2935267857143" y="453.16856398809523" type="line"/>
      <point x="486.21104910714286" y="453.16856398809523" type="line"/>
      <point x="521.7209077380952" y="266.6664806547619" type="line" smooth="yes"/>
      <point x="543.2032738095238" y="146.49791666666667"/>
      <point x="671.9366815476191" y="12.239099702380951"/>
      <point x="754.4543154761905" y="12.239099702380951" type="qcurve" smooth="yes"/>
      <point x="836.2582589285714" y="12.239099702380951"/>
      <point x="950.4112723214286" y="163.44709821428572"/>
      <point x="950.4112723214286" y="285.01971726190476" type="qcurve" smooth="yes"/>
      <point x="950.4112723214286" y="401.85115327380953"/>
      <point x="858.9366815476191" y="554.6395461309523"/>
      <point x="720.9169642857142" y="669.7925595238096" type="qcurve" smooth="yes"/>
      <point x="555.0855282738096" y="809.3376860119048"/>
      <point x="435.6778645833333" y="997.3729538690476"/>
      <point x="435.6778645833333" y="1134.3807291666667" type="qcurve" smooth="yes"/>
      <point x="435.6778645833333" y="1276.8356026785714"/>
      <point x="622.1207961309524" y="1478.0394345238096"/>
      <point x="781.4345982142856" y="1496.1924479166667" type="qcurve"/>
      <point x="693.2702008928571" y="1498.5140252976191" type="line" smooth="yes"/>
      <point x="518.0699776785714" y="1515.925855654762"/>
      <point x="343.82671130952383" y="1330.956956845238"/>
      <point x="345.82671130952383" y="1090.1255208333334" type="qcurve" smooth="yes"/>
      <point x="348.82671130952383" y="737.9802827380952" type="line"/>
      <point x="346.7914434523809" y="-396.9019717261905" type="line"/>
      <point x="496.7603422619048" y="-437.7686755952381" type="line"/>
      <point x="496.7603422619048" y="-460.0" type="line"/>
      <point x="-2.4118303571428577" y="-460.0" type="line"/>
      <point x="-2.4118303571428577" y="-431.96473214285714" type="line"/>
      <point x="111.20799851190476" y="-399.80394345238096" type="line"/>
    </contour>
  </outline>
</glyph>
<glyph name="emdash" format="2">
  <advance width="2049"/>
  <unicode hex="2014"/>
  <outline>
    <contour>
      <point x="257.0" y="568.8158854166667" type="line"/>
      <point x="257.0" y="709.1643973214286" type="line"/>
      <point x="1025.3215773809525" y="709.1643973214286" type="line"/>
      <point x="1791.5803943452381" y="706.2271577380952" type="line"/>
      <point x="1791.5803943452381" y="568.8158854166667" type="line"/>
      <point x="1025.3215773809525" y="568.8158854166667" type="line"/>
    </contour>
  </outline>
</glyph>
<glyph name="horizontalbar" format="2">
  <advance width="806"/>
  <unicode hex="2015"/>
  <outline>
    <contour>
      <point x="334.9133556547619" y="746.2785342261905" type="line"/>
      <point x="72.49014136904762" y="746.2785342261905" type="line"/>
      <point x="79.84698660714285" y="798.2235491071428" type="line"/>
      <point x="330.4034970238095" y="798.2235491071428" type="line"/>
      <point x="581.8189360119047" y="798.2235491071428" type="line"/>
      <point x="579.3993303571428" y="746.2785342261905" type="line"/>
    </contour>
  </outline>
</glyph>
<glyph name="quoteleft" format="2">
  <advance width="355"/>
  <unicode hex="2018"/>
  <outline>
    <contour>
      <point x="311.6192708333333" y="1541.3687872023809" type="line"/>
      <point x="240.15662202380952" y="1490.6903645833333"/>
      <point x="165.02332589285714" y="1363.411830357143"/>
      <point x="150.2743675595238" y="1308.9139136904762" type="qcurve"/>
      <point x="214.35267857142856" y="1313.8786458333334"/>
      <point x="288.8858630952381" y="1253.345461309524"/>
      <point x="288.8858630952381" y="1200.2318824404763" type="qcurve" smooth="yes"/>
      <point x="288.8858630952381" y="1151.4751488095237"/>
      <point x="224.99583333333334" y="1093.816443452381"/>
      <point x="174.98028273809524" y="1093.816443452381" type="qcurve" smooth="yes"/>
      <point x="128.16078869047618" y="1093.816443452381"/>
      <point x="64.40405505952381" y="1158.286867559524"/>
      <point x="64.40405505952381" y="1220.8828125" type="qcurve" smooth="yes"/>
      <point x="64.40405505952381" y="1303.6395461309523"/>
      <point x="196.3646205357143" y="1506.4393229166667"/>
      <point x="294.80755208333335" y="1568.607886904762" type="qcurve"/>
    </contour>
  </outline>
</glyph>
<glyph name="quotesinglbase" format="2">
  <advance width="355"/>
  <unicode hex="201A"/>
  <outline>
    <contour>
      <point x="54.05498511904762" y="-218.86670386904763" type="line"/>
      <point x="125.51763392857143" y="-168.18828125"/>
      <point x="200.6509300595238" y="-40.90974702380952"/>
      <point x="215.39988839285715" y="13.588169642857142" type="qcurve"/>
      <point x="151.3215773809524" y="8.623437500000001"/>
      <point x="76.78839285714285" y="69.15662202380952"/>
      <point x="76.78839285714285" y="122.27020089285715" type="qcurve" smooth="yes"/>
      <point x="76.78839285714285" y="171.02693452380953"/>
      <point x="140.6784226190476" y="228.68563988095238"/>
      <point x="190.6939732142857" y="228.68563988095238" type="qcurve" smooth="yes"/>
      <point x="237.51346726190476" y="228.68563988095238"/>
      <point x="301.27020089285713" y="164.21521577380952"/>
      <point x="301.27020089285713" y="101.61927083333333" type="qcurve" smooth="yes"/>
      <point x="301.27020089285713" y="18.86253720238095"/>
      <point x="169.30963541666665" y="-183.93723958333334"/>
      <point x="70.86670386904763" y="-246.10580357142857" type="qcurve"/>
    </contour>
  </outline>
</glyph>
<glyph name="quotedblleft" format="2">
  <advance width="624"/>
  <unicode hex="201C"/>
  <outline>
    <contour>
      <point x="282.5995535714286" y="1541.3687872023809" type="line"/>
      <point x="216.94084821428572" y="1490.6903645833333"/>
      <point x="147.61149553571428" y="1363.411830357143"/>
      <point x="132.86253720238096" y="1308.9139136904762" type="qcurve"/>
      <point x="196.94084821428572" y="1313.8786458333334"/>
      <point x="271.4740327380952" y="1253.345461309524"/>
      <point x="271.4740327380952" y="1200.2318824404763" type="qcurve" smooth="yes"/>
      <point x="271.4740327380952" y="1151.4751488095237"/>
      <point x="207.58400297619048" y="1093.816443452381"/>
      <point x="157.56845238095238" y="1093.816443452381" type="qcurve" smooth="yes"/>
      <point x="110.74895833333333" y="1093.816443452381"/>
      <point x="46.99222470238095" y="1158.286867559524"/>
      <point x="46.99222470238095" y="1220.8828125" type="qcurve" smooth="yes"/>
      <point x="46.99222470238095" y="1303.6395461309523"/>
      <point x="173.14884672619047" y="1506.4393229166667"/>
      <point x="265.7878348214286" y="1568.607886904762" type="qcurve"/>
    </contour>
    <contour>
      <point x="574.9127976190476" y="1541.3687872023809" type="line"/>
      <point x="509.25409226190476" y="1490.6903645833333"/>
      <point x="439.92473958333335" y="1363.411830357143"/>
      <point x="425.17578125" y="1308.9139136904762" type="qcurve"/>
      <point x="489.25409226190476" y="1313.8786458333334"/>
      <point x="563.7872767857143" y="1253.345461309524"/>
      <point x="563.7872767857143" y="1200.2318824404763" type="qcurve" smooth="yes"/>
      <point x="563.7872767857143" y="1151.4751488095237"/>
      <point x="499.89724702380954" y="1093.816443452381"/>
      <point x="449.88169642857144" y="1093.816443452381" type="qcurve" smooth="yes"/>
      <point x="403.0622023809524" y="1093.816443452381"/>
      <point x="339.30546875" y="1158.286867559524"/>
      <point x="339.30546875" y="1220.8828125" type="qcurve" smooth="yes"/>
      <point x="339.30546875" y="1303.6395461309523"/>
      <point x="465.4620907738095" y="1506.4393229166667"/>
      <point x="558.1010788690476" y="1568.607886904762" type="qcurve"/>
    </contour>
  </outline>
</glyph>
<glyph name="quotedblright" format="2">
  <advance width="624"/>
  <unicode hex="201D"/>
  <outline>
    <contour>
      <point x="49.41183035714286" y="1105.2515997023809" type="line"/>
      <point x="117.97250744047619" y="1161.7339657738096"/>
      <point x="184.39988839285715" y="1283.208556547619"/>
      <point x="199.14884672619047" y="1337.7064732142858" type="qcurve"/>
      <point x="135.0705357142857" y="1332.7417410714286"/>
      <point x="60.53735119047619" y="1393.274925595238"/>
      <point x="60.53735119047619" y="1446.3885044642857" type="qcurve" smooth="yes"/>
      <point x="60.53735119047619" y="1495.145238095238"/>
      <point x="124.42738095238096" y="1552.803943452381"/>
      <point x="174.44293154761905" y="1552.803943452381" type="qcurve" smooth="yes"/>
      <point x="221.26242559523808" y="1552.803943452381"/>
      <point x="285.0191592261905" y="1488.333519345238"/>
      <point x="285.0191592261905" y="1425.737574404762" type="qcurve" smooth="yes"/>
      <point x="285.0191592261905" y="1342.9808407738096"/>
      <point x="161.76450892857144" y="1145.9850074404762"/>
      <point x="66.22354910714286" y="1078.0125" type="qcurve"/>
    </contour>
    <contour>
      <point x="341.7250744047619" y="1105.2515997023809" type="line"/>
      <point x="410.28575148809523" y="1161.7339657738096"/>
      <point x="476.7131324404762" y="1283.208556547619"/>
      <point x="491.4620907738095" y="1337.7064732142858" type="qcurve"/>
      <point x="427.38377976190475" y="1332.7417410714286"/>
      <point x="352.85059523809525" y="1393.274925595238"/>
      <point x="352.85059523809525" y="1446.3885044642857" type="qcurve" smooth="yes"/>
      <point x="352.85059523809525" y="1495.145238095238"/>
      <point x="416.740625" y="1552.803943452381"/>
      <point x="466.7561755952381" y="1552.803943452381" type="qcurve" smooth="yes"/>
      <point x="513.5756696428572" y="1552.803943452381"/>
      <point x="577.3324032738095" y="1488.333519345238"/>
      <point x="577.3324032738095" y="1425.737574404762" type="qcurve" smooth="yes"/>
      <point x="577.3324032738095" y="1342.9808407738096"/>
      <point x="454.0777529761905" y="1145.9850074404762"/>
      <point x="358.5367931547619" y="1078.0125" type="qcurve"/>
    </contour>
  </outline>
</glyph>
<glyph name="quotedblbase" format="2">
  <advance width="624"/>
  <unicode hex="201E"/>
  <outline>
    <contour>
      <point x="49.41183035714286" y="-224.67064732142856" type="line"/>
      <point x="117.97250744047619" y="-168.18828125"/>
      <point x="184.39988839285715" y="-46.71369047619048"/>
      <point x="199.14884672619047" y="7.78422619047619" type="qcurve"/>
      <point x="135.0705357142857" y="2.819494047619049"/>
      <point x="60.53735119047619" y="63.35267857142857"/>
      <point x="60.53735119047619" y="116.46625744047618" type="qcurve" smooth="yes"/>
      <point x="60.53735119047619" y="165.22299107142857"/>
      <point x="124.42738095238096" y="222.88169642857144"/>
      <point x="174.44293154761905" y="222.88169642857144" type="qcurve" smooth="yes"/>
      <point x="221.26242559523808" y="222.88169642857144"/>
      <point x="285.0191592261905" y="158.41127232142856"/>
      <point x="285.0191592261905" y="95.81532738095238" type="qcurve" smooth="yes"/>
      <point x="285.0191592261905" y="13.05859375"/>
      <point x="161.76450892857144" y="-183.93723958333334"/>
      <point x="66.22354910714286" y="-251.90974702380953" type="qcurve"/>
    </contour>
    <contour>
      <point x="341.7250744047619" y="-224.67064732142856" type="line"/>
      <point x="410.28575148809523" y="-168.18828125"/>
      <point x="476.7131324404762" y="-46.71369047619048"/>
      <point x="491.4620907738095" y="7.78422619047619" type="qcurve"/>
      <point x="427.38377976190475" y="2.819494047619049"/>
      <point x="352.85059523809525" y="63.35267857142857"/>
      <point x="352.85059523809525" y="116.46625744047618" type="qcurve" smooth="yes"/>
      <point x="352.85059523809525" y="165.22299107142857"/>
      <point x="416.740625" y="222.88169642857144"/>
      <point x="466.7561755952381" y="222.88169642857144" type="qcurve" smooth="yes"/>
      <point x="513.5756696428572" y="222.88169642857144"/>
      <point x="577.3324032738095" y="158.41127232142856"/>
      <point x="577.3324032738095" y="95.81532738095238" type="qcurve" smooth="yes"/>
      <point x="577.3324032738095" y="13.05859375"/>
      <point x="454.0777529761905" y="-183.93723958333334"/>
      <point x="358.5367931547619" y="-251.90974702380953" type="qcurve"/>
    </contour>
  </outline>
</glyph>
<glyph name="dagger" format="2">
  <advance width="748"/>
  <unicode hex="2020"/>
  <outline>
    <contour>
      <point x="357.6664806547619" y="-446.4315476190476" type="line"/>
      <point x="282.92168898809524" y="5.56845238095238" type="line"/>
      <point x="335.8272693452381" y="733.921130952381" type="line"/>
      <point x="336.9880580357143" y="934.196056547619" type="line"/>
      <point x="290.41183035714283" y="1438.6276041666667" type="line"/>
      <point x="332.1135788690476" y="1506.0" type="line"/>
      <point x="407.42321428571427" y="1506.0" type="line"/>
      <point x="450.28575148809523" y="1438.6276041666667" type="line"/>
      <point x="405.48597470238093" y="934.196056547619" type="line"/>
      <point x="405.48597470238093" y="733.921130952381" type="line"/>
      <point x="457.3915550595238" y="5.56845238095238" type="line"/>
      <point x="389.6467633928571" y="-446.4315476190476" type="line"/>
    </contour>
    <contour>
      <point x="47.80394345238095" y="869.803943452381" type="line"/>
      <point x="47.80394345238095" y="932.3018601190477" type="line"/>
      <point x="371.73701636904764" y="918.2038318452381" type="line"/>
      <point x="699.740625" y="932.3018601190477" type="line"/>
      <point x="699.740625" y="869.803943452381" type="line"/>
      <point x="371.73701636904764" y="884.9372395833333" type="line"/>
    </contour>
  </outline>
</glyph>
<glyph name="bullet" format="2">
  <advance width="697"/>
  <unicode hex="2022"/>
  <outline>
    <contour>
      <point x="131.14523809523808" y="738.3568452380953" type="qcurve" smooth="yes"/>
      <point x="131.14523809523808" y="825.9252976190476"/>
      <point x="252.3018601190476" y="953.2779761904762"/>
      <point x="350.3879464285714" y="953.2779761904762" type="qcurve" smooth="yes"/>
      <point x="443.4740327380952" y="953.2779761904762"/>
      <point x="565.6306547619048" y="825.9252976190476"/>
      <point x="565.6306547619048" y="738.3568452380953" type="qcurve" smooth="yes"/>
      <point x="565.6306547619048" y="651.6276041666666"/>
      <point x="443.4740327380952" y="524.2749255952381"/>
      <point x="350.3879464285714" y="524.2749255952381" type="qcurve" smooth="yes"/>
      <point x="252.3018601190476" y="524.2749255952381"/>
      <point x="131.14523809523808" y="651.6276041666666"/>
    </contour>
  </outline>
</glyph>
<glyph name="guilsinglleft" format="2">
  <advance width="563"/>
  <unicode hex="2039"/>
  <outline>
    <contour>
      <point x="60.313802083333336" y="631.5254092261905" type="line"/>
      <point x="79.70591517857143" y="647.3018601190477"/>
      <point x="437.29408482142856" y="994.8941964285714"/>
      <point x="451.4626488095238" y="1009.6431547619047" type="qcurve" smooth="yes"/>
      <point x="462.43515625" y="1020.6156622023809"/>
      <point x="490.51346726190474" y="982.5373511904762"/>
      <point x="476.6037202380952" y="957.2982514880953" type="qcurve" smooth="yes"/>
      <point x="459.12135416666666" y="933.0394345238095"/>
      <point x="229.25825892857142" y="619.4901413690476"/>
      <point x="216.09747023809524" y="604.7136904761904" type="qcurve"/>
      <point x="227.25825892857142" y="588.9372395833333"/>
      <point x="464.8272693452381" y="291.99583333333334"/>
      <point x="491.79200148809525" y="258.73701636904764" type="qcurve" smooth="yes"/>
      <point x="506.76450892857144" y="234.95279017857143"/>
      <point x="481.9450148809524" y="192.81171875"/>
      <point x="461.19605654761904" y="209.94501488095239" type="qcurve" smooth="yes"/>
      <point x="424.93723958333334" y="242.00777529761905"/>
      <point x="107.12552083333334" y="535.3215773809524"/>
      <point x="60.313802083333336" y="581.2235491071428" type="qcurve"/>
    </contour>
  </outline>
</glyph>
<glyph name="guilsinglright" format="2">
  <advance width="563"/>
  <unicode hex="203A"/>
  <outline>
    <contour>
      <point x="509.7017485119048" y="581.9019717261905" type="line"/>
      <point x="490.30963541666665" y="566.1255208333333"/>
      <point x="132.7214657738095" y="218.53318452380952"/>
      <point x="118.55290178571428" y="203.7842261904762" type="qcurve" smooth="yes"/>
      <point x="107.58039434523809" y="192.81171875"/>
      <point x="79.50208333333333" y="230.89002976190477"/>
      <point x="93.41183035714286" y="256.1291294642857" type="qcurve" smooth="yes"/>
      <point x="110.89419642857143" y="280.3879464285714"/>
      <point x="340.7572916666667" y="593.9372395833333"/>
      <point x="353.91808035714286" y="608.7136904761904" type="qcurve"/>
      <point x="342.7572916666667" y="624.4901413690476"/>
      <point x="105.18828125" y="921.4315476190476"/>
      <point x="78.22354910714286" y="954.6903645833333" type="qcurve" smooth="yes"/>
      <point x="63.251041666666666" y="978.4745907738095"/>
      <point x="88.07053571428571" y="1020.6156622023809"/>
      <point x="108.81949404761905" y="1003.4823660714286" type="qcurve" smooth="yes"/>
      <point x="145.07831101190476" y="971.4196056547619"/>
      <point x="462.89002976190477" y="678.1058035714286"/>
      <point x="509.7017485119048" y="632.2038318452381" type="qcurve"/>
    </contour>
  </outline>
</glyph>
<glyph name="commercialMinusSign" format="2">
  <advance width="920"/>
  <unicode hex="2052"/>
  <outline>
    <contour>
      <point x="173.79200148809525" y="-16.635379464285716" type="line"/>
      <point x="763.9486235119048" y="1512.615662202381" type="line"/>
      <point x="765.4895833333334" y="1498.3765625" type="line"/>
      <point x="175.75256696428573" y="-29.615662202380953" type="line"/>
    </contour>
    <contour>
      <point x="530.1566220238095" y="121.48597470238096" type="qcurve" smooth="yes"/>
      <point x="530.1566220238095" y="177.98389136904763"/>
      <point x="610.30546875" y="262.6503720238095"/>
      <point x="672.4818080357143" y="262.6503720238095" type="qcurve" smooth="yes"/>
      <point x="735.4973586309524" y="262.6503720238095"/>
      <point x="815.226599702381" y="177.98389136904763"/>
      <point x="815.226599702381" y="121.48597470238096" type="qcurve" smooth="yes"/>
      <point x="815.226599702381" y="64.98805803571429"/>
      <point x="735.4973586309524" y="-19.67842261904762"/>
      <point x="672.4818080357143" y="-19.67842261904762" type="qcurve" smooth="yes"/>
      <point x="610.30546875" y="-19.67842261904762"/>
      <point x="530.1566220238095" y="64.98805803571429"/>
    </contour>
    <contour>
      <point x="107.69036458333333" y="1376.8356026785714" type="qcurve" smooth="yes"/>
      <point x="107.69036458333333" y="1433.333519345238"/>
      <point x="187.4196056547619" y="1518.0"/>
      <point x="250.43515625" y="1518.0" type="qcurve" smooth="yes"/>
      <point x="313.0311011904762" y="1518.0"/>
      <point x="393.17994791666666" y="1433.333519345238"/>
      <point x="393.17994791666666" y="1376.8356026785714" type="qcurve" smooth="yes"/>
      <point x="393.17994791666666" y="1320.3376860119047"/>
      <point x="313.0311011904762" y="1235.6712053571428"/>
      <point x="250.43515625" y="1235.6712053571428" type="qcurve" smooth="yes"/>
      <point x="187.4196056547619" y="1235.6712053571428"/>
      <point x="107.69036458333333" y="1320.3376860119047"/>
    </contour>
  </outline>
</glyph>
<glyph name="dong" format="2">
  <advance width="811"/>
  <unicode hex="20AB"/>
  <outline>
    <contour>
      <point x="27.22354910714286" y="473.4901413690476" type="qcurve" smooth="yes"/>
      <point x="27.22354910714286" y="730.0783110119048"/>
      <point x="217.96056547619048" y="956.5606770833333"/>
      <point x="342.5212425595238" y="956.5606770833333" type="qcurve" smooth="yes"/>
      <point x="402.29769345238094" y="956.5606770833333"/>
      <point x="486.2624255952381" y="906.3449032738096"/>
      <point x="502.1016369047619" y="879.5762276785714" type="qcurve"/>
      <point x="497.5212425595238" y="1432.6353794642857" type="line"/>
      <point x="379.92113095238096" y="1466.2157738095239" type="line"/>
      <point x="379.92113095238096" y="1500.0" type="line"/>
      <point x="679.1518973214286" y="1506.7764508928572" type="line"/>
      <point x="697.061644345238" y="1503.2940848214287" type="line"/>
      <point x="717.0066592261904" y="1469.4823660714285" type="line"/>
      <point x="710.3909970238095" y="514.2510416666667" type="line"/>
      <point x="712.489025297619" y="55.94501488095238" type="line"/>
      <point x="780.2577008928572" y="28.945014880952378" type="line"/>
      <point x="780.2577008928572" y="0.0" type="line"/>
      <point x="506.87808779761906" y="0.0" type="line"/>
      <point x="498.03887648809524" y="12.517633928571428" type="line"/>
      <point x="497.78005952380954" y="82.74118303571429" type="line"/>
      <point x="484.78005952380954" y="52.44709821428572"/>
      <point x="377.38017113095236" y="-10.16078869047619"/>
      <point x="299.89002976190477" y="-10.16078869047619" type="qcurve" smooth="yes"/>
      <point x="180.6939732142857" y="-10.16078869047619"/>
      <point x="27.22354910714286" y="214.45487351190476"/>
    </contour>
    <contour>
      <point x="256.7442336309524" y="472.7842261904762" type="qcurve" smooth="yes"/>
      <point x="256.7442336309524" y="217.6078869047619"/>
      <point x="316.6659226190476" y="46.18411458333333"/>
      <point x="392.55234375" y="46.18411458333333" type="qcurve" smooth="yes"/>
      <point x="429.86614583333335" y="46.18411458333333"/>
      <point x="487.689806547619" y="90.91752232142858"/>
      <point x="499.87808779761906" y="124.79200148809524" type="qcurve"/>
      <point x="501.6192708333333" y="503.70591517857144" type="line"/>
      <point x="503.6192708333333" y="812.1332961309524" type="line"/>
      <point x="496.0741443452381" y="847.7764508928572"/>
      <point x="439.2504836309524" y="906.0274925595238"/>
      <point x="391.9994419642857" y="905.6078869047619" type="qcurve" smooth="yes"/>
      <point x="320.49735863095236" y="905.18828125"/>
      <point x="256.7442336309524" y="714.6664806547619"/>
    </contour>
    <contour>
      <point x="94.07053571428571" y="-163.246875" type="line"/>
      <point x="94.07053571428571" y="-118.39988839285715" type="line"/>
      <point x="417.38377976190475" y="-118.39988839285715" type="line"/>
      <point x="759.089136904762" y="-118.39988839285715" type="line"/>
      <point x="759.089136904762" y="-163.246875" type="line"/>
      <point x="418.38377976190475" y="-163.246875" type="line"/>
    </contour>
    <contour>
      <point x="182.6981398809524" y="1198.3962797619047" type="line"/>
      <point x="183.6981398809524" y="1238.0824776785714" type="line"/>
      <point x="551.4034970238096" y="1238.0824776785714" type="line"/>
      <point x="813.91640625" y="1238.0824776785714" type="line"/>
      <point x="813.91640625" y="1198.3962797619047" type="line"/>
      <point x="550.4034970238096" y="1198.3962797619047" type="line"/>
    </contour>
  </outline>
</glyph>
<glyph name="cedi" format="2">
  <advance width="630"/>
  <unicode hex="20B5"/>
  <outline>
    <contour>
      <point x="41.607886904761905" y="764.0" type="qcurve" smooth="yes"/>
      <point x="41.607886904761905" y="1110.615662202381"/>
      <point x="217.93307291666667" y="1518.4196056547619"/>
      <point x="363.76811755952383" y="1518.4196056547619" type="qcurve" smooth="yes"/>
      <point x="470.6503720238095" y="1518.4196056547619"/>
      <point x="588.7011904761905" y="1302.0"/>
      <point x="602.4776413690477" y="1093.0" type="qcurve"/>
      <point x="577.7639508928571" y="1088.0" type="line"/>
      <point x="564.5051339285715" y="1289.4196056547619"/>
      <point x="451.93668154761906" y="1489.803943452381"/>
      <point x="378.4895833333333" y="1489.803943452381" type="qcurve" smooth="yes"/>
      <point x="307.5953869047619" y="1489.803943452381"/>
      <point x="245.9875" y="1210.0502604166668"/>
      <point x="245.9875" y="753.0" type="qcurve" smooth="yes"/>
      <point x="245.9875" y="295.5104166666667"/>
      <point x="317.6856398809524" y="17.196056547619047"/>
      <point x="391.81116071428573" y="17.196056547619047" type="qcurve" smooth="yes"/>
      <point x="459.06997767857143" y="17.196056547619047"/>
      <point x="568.1207961309524" y="180.19605654761904"/>
      <point x="594.1913318452381" y="286.7567336309524" type="qcurve"/>
      <point x="615.4854166666667" y="274.7567336309524" type="line"/>
      <point x="591.6736979166667" y="172.42738095238096"/>
      <point x="473.748400297619" y="-13.0"/>
      <point x="375.8308779761905" y="-13.0" type="qcurve" smooth="yes"/>
      <point x="240.90558035714287" y="-13.0"/>
      <point x="41.607886904761905" y="368.16856398809523"/>
    </contour>
    <contour>
      <point x="260.5093005952381" y="-99.98028273809524" type="line"/>
      <point x="286.02693452380953" y="73.2313244047619" type="line"/>
      <point x="286.86614583333335" y="72.3921130952381" type="line"/>
      <point x="372.22299107142857" y="780.0" type="line"/>
      <point x="393.35628720238094" y="762.8392113095238" type="line"/>
      <point x="308.4190476190476" y="42.22354910714286" type="line"/>
      <point x="308.4190476190476" y="41.38433779761905" type="line"/>
      <point x="290.83865327380954" y="-97.98028273809524" type="line"/>
    </contour>
    <contour>
      <point x="466.7053571428571" y="1606.0" type="line"/>
      <point x="496.0347098214286" y="1606.0" type="line"/>
      <point x="478.7131324404762" y="1466.6509300595237" type="line"/>
      <point x="478.7131324404762" y="1466.6509300595237" type="line"/>
      <point x="393.35628720238094" y="762.8392113095238" type="line"/>
      <point x="372.22299107142857" y="780.0" type="line"/>
      <point x="451.38377976190475" y="1477.1685639880952" type="line"/>
      <point x="451.38377976190475" y="1477.1685639880952" type="line"/>
    </contour>
  </outline>
</glyph>
<glyph name="rupeeIndian" format="2">
  <advance width="727"/>
  <unicode hex="20B9"/>
  <outline>
    <contour>
      <point x="-14.552901785714287" y="1495.8392113095238" type="line"/>
      <point x="293.76450892857144" y="1495.0" type="line"/>
      <point x="688.68203125" y="1498.7411830357144" type="line"/>
      <point x="671.3957217261905" y="1468.9294642857142" type="line"/>
      <point x="322.4465401785714" y="1473.607886904762" type="line"/>
      <point x="413.2779761904762" y="1454.2863095238095"/>
      <point x="537.1171875" y="1289.6509300595237"/>
      <point x="537.1171875" y="1144.2665922619049" type="qcurve" smooth="yes"/>
      <point x="537.1171875" y="992.6234375"/>
      <point x="346.0191592261905" y="814.2038318452381"/>
      <point x="206.7878348214286" y="802.5881696428571" type="qcurve"/>
      <point x="326.7603422619048" y="784.427380952381"/>
      <point x="478.35628720238094" y="585.81171875"/>
      <point x="517.8739211309523" y="363.72146577380954" type="qcurve" smooth="yes"/>
      <point x="556.168005952381" y="152.9725074404762"/>
      <point x="632.5876116071429" y="36.098028273809526"/>
      <point x="733.5093005952381" y="44.61566220238095" type="qcurve"/>
      <point x="734.7681175595238" y="17.482366071428572" type="line"/>
      <point x="551.246875" y="-15.231324404761905" type="line"/>
      <point x="472.89002976190477" y="-12.909747023809524"/>
      <point x="360.09025297619047" y="120.92946428571429"/>
      <point x="317.69036458333335" y="346.1566220238095" type="qcurve" smooth="yes"/>
      <point x="274.90613839285714" y="585.109412202381"/>
      <point x="181.5923363095238" y="788.4823660714286"/>
      <point x="79.41960565476191" y="785.2588169642858" type="qcurve" smooth="yes"/>
      <point x="48.251041666666666" y="786.0980282738095" type="line"/>
      <point x="40.02749255952381" y="815.5881696428571" type="line"/>
      <point x="125.9569568452381" y="817.2665922619047" type="line" smooth="yes"/>
      <point x="201.9569568452381" y="818.9450148809524"/>
      <point x="317.21994047619046" y="982.2588169642858"/>
      <point x="317.21994047619046" y="1144.8469866071428" type="qcurve" smooth="yes"/>
      <point x="317.21994047619046" y="1317.3018601190477"/>
      <point x="217.8983630952381" y="1472.7059151785713"/>
      <point x="69.99222470238095" y="1472.7059151785713" type="qcurve" smooth="yes"/>
      <point x="-12.196056547619047" y="1472.7059151785713" type="line"/>
    </contour>
    <contour>
      <point x="447.48597470238093" y="1131.7920014880951" type="line"/>
      <point x="447.48597470238093" y="1131.7920014880951" type="line"/>
      <point x="664.921130952381" y="1134.1135788690476" type="line"/>
      <point x="654.5995535714286" y="1102.043043154762" type="line"/>
      <point x="450.28214285714284" y="1102.043043154762" type="line"/>
      <point x="450.28214285714284" y="1102.043043154762" type="line"/>
      <point x="17.741183035714286" y="1102.043043154762" type="line"/>
      <point x="11.32157738095238" y="1133.5331845238095" type="line"/>
    </contour>
  </outline>
</glyph>
<glyph name="liraTurkish" format="2">
  <advance width="770"/>
  <unicode hex="20BA"/>
  <outline>
    <contour>
      <point x="137.71785714285716" y="-23.803943452380953" type="line"/>
      <point x="116.74534970238096" y="-2.6628720238095234" type="line"/>
      <point x="127.08247767857142" y="23.56845238095238" type="line"/>
      <point x="127.92168898809524" y="754.0" type="line"/>
      <point x="125.92168898809524" y="1430.6353794642857" type="line"/>
      <point x="10.866703869047619" y="1469.992224702381" type="line"/>
      <point x="10.866703869047619" y="1497.2235491071428" type="line"/>
      <point x="233.4781994047619" y="1493.0274925595238" type="line"/>
      <point x="466.23854166666666" y="1499.2235491071428" type="line"/>
      <point x="467.97972470238096" y="1467.2157738095239" type="line"/>
      <point x="346.4071056547619" y="1427.600111607143" type="line"/>
      <point x="344.4071056547619" y="754.0" type="line"/>
      <point x="348.1482886904762" y="74.2899181547619" type="line"/>
      <point x="363.11302083333334" y="66.8703125" type="line"/>
      <point x="525.4698660714286" y="150.7722842261905"/>
      <point x="649.4698660714286" y="379.7722842261905"/>
      <point x="681.0424851190476" y="540.5212425595238" type="qcurve"/>
      <point x="703.55234375" y="679.9880580357143" type="line"/>
      <point x="730.1052455357143" y="679.9880580357143" type="line"/>
      <point x="742.2110491071428" y="391.1177455357143" type="line"/>
      <point x="675.371837797619" y="274.8392113095238"/>
      <point x="421.22715773809523" y="55.12552083333333"/>
      <point x="234.68619791666666" y="-0.866703869047619" type="qcurve" smooth="yes"/>
    </contour>
    <contour>
      <point x="28.552901785714287" y="562.7059151785714" type="line"/>
      <point x="14.294084821428571" y="603.2940848214286" type="line"/>
      <point x="266.3760044642857" y="705.3646205357143" type="line"/>
      <point x="266.3760044642857" y="703.6234375" type="line"/>
      <point x="576.1991071428572" y="842.1410714285714" type="line"/>
      <point x="580.4854166666667" y="801.0352678571429" type="line"/>
      <point x="270.15245535714286" y="662.6156622023809" type="line"/>
      <point x="270.15245535714286" y="661.0352678571429" type="line"/>
    </contour>
    <contour>
      <point x="29.13329613095238" y="799.0" type="line"/>
      <point x="14.294084821428571" y="836.427380952381" type="line"/>
      <point x="260.9838913690476" y="933.1410714285714" type="line"/>
      <point x="260.9838913690476" y="930.9802827380952" type="line"/>
      <point x="608.0658110119048" y="1081.5606770833333" type="line"/>
      <point x="610.6736979166667" y="1039.7764508928572" type="line"/>
      <point x="265.34073660714284" y="893.1332961309524" type="line"/>
      <point x="265.34073660714284" y="891.5529017857143" type="line"/>
    </contour>
  </outline>
</glyph>
<glyph name="ruble" format="2">
  <advance width="761"/>
  <unicode hex="20BD"/>
  <outline>
    <contour>
      <point x="14.866703869047619" y="0.0" type="line"/>
      <point x="14.866703869047619" y="28.525409226190476" type="line"/>
      <point x="98.3060267857143" y="61.94501488095238" type="line"/>
      <point x="100.88642113095239" y="758.6431547619047" type="line"/>
      <point x="98.88642113095239" y="1434.4745907738095" type="line"/>
      <point x="14.286309523809525" y="1468.4745907738095" type="line"/>
      <point x="14.286309523809525" y="1500.0" type="line"/>
      <point x="431.6384300595238" y="1500.0" type="line" smooth="yes"/>
      <point x="569.7597842261905" y="1500.0"/>
      <point x="740.2027157738096" y="1301.7764508928572"/>
      <point x="740.2027157738096" y="1101.1607886904762" type="qcurve" smooth="yes"/>
      <point x="740.2027157738096" y="866.6628720238095"/>
      <point x="547.4501488095239" y="632.7059151785714"/>
      <point x="397.6934151785714" y="632.7059151785714" type="qcurve" smooth="yes"/>
      <point x="278.5642857142857" y="632.7059151785714"/>
      <point x="98.09802827380952" y="679.7411830357142"/>
      <point x="27.949181547619048" y="717.4548735119048" type="qcurve"/>
      <point x="37.36878720238096" y="754.5331845238095" type="line"/>
      <point x="103.70591517857143" y="711.3998883928572"/>
      <point x="268.0311011904762" y="665.7136904761904"/>
      <point x="360.1446800595238" y="665.7136904761904" type="qcurve" smooth="yes"/>
      <point x="439.34073660714284" y="665.7136904761904"/>
      <point x="516.4584821428572" y="810.2002232142858"/>
      <point x="516.4584821428572" y="1104.2313244047618" type="qcurve" smooth="yes"/>
      <point x="516.4584821428572" y="1306.6861979166667"/>
      <point x="450.4190476190476" y="1464.3765625"/>
      <point x="380.7836681547619" y="1462.6353794642857" type="qcurve" smooth="yes"/>
      <point x="337.1482886904762" y="1461.4745907738095" type="line"/>
      <point x="319.9875" y="1440.18828125" type="line"/>
      <point x="319.9875" y="753.8314360119048" type="line"/>
      <point x="321.9875" y="66.52540922619048" type="line"/>
      <point x="418.90918898809525" y="29.525409226190476" type="line"/>
      <point x="418.90918898809525" y="0.0" type="line"/>
    </contour>
    <contour>
      <point x="35.01971726190476" y="435.4315476190476" type="line"/>
      <point x="31.40405505952381" y="474.01971726190476" type="line"/>
      <point x="605.6264880952381" y="462.41183035714283" type="line"/>
      <point x="599.1363467261905" y="426.23549107142856" type="line"/>
    </contour>
  </outline>
</glyph>
<glyph name="numero" format="2">
  <advance width="1397"/>
  <unicode hex="2116"/>
  <outline>
    <contour>
      <point x="21.831436011904763" y="0.0" type="line"/>
      <point x="21.831436011904763" y="28.945014880952378" type="line"/>
      <point x="116.36878720238096" y="73.97250744047619" type="line"/>
      <point x="120.36878720238096" y="716.2354910714286" type="line"/>
      <point x="122.46681547619048" y="1429.6706473214285" type="line"/>
      <point x="20.70591517857143" y="1468.3138020833333" type="line"/>
      <point x="20.70591517857143" y="1500.0" type="line"/>
      <point x="312.2935267857143" y="1500.0" type="line"/>
      <point x="510.0191592261905" y="838.5565104166667" type="line"/>
      <point x="687.1918898809524" y="246.32462797619047" type="line"/>
      <point x="682.1918898809524" y="787.2821428571428" type="line"/>
      <point x="674.0311011904762" y="1423.8667038690476" type="line"/>
      <point x="558.9838913690476" y="1468.3138020833333" type="line"/>
      <point x="558.9838913690476" y="1500.0" type="line"/>
      <point x="819.0938616071428" y="1500.0" type="line"/>
      <point x="819.0938616071428" y="1468.3138020833333" type="line"/>
      <point x="720.5290178571429" y="1423.8667038690476" type="line"/>
      <point x="721.689806547619" y="786.0233258928572" type="line"/>
      <point x="727.1721726190476" y="-4.0" type="line"/>
      <point x="549.31796875" y="-4.0" type="line"/>
      <point x="346.0119419642857" y="683.7375744047619" type="line"/>
      <point x="160.18828125" y="1312.028050595238" type="line"/>
      <point x="159.0274925595238" y="717.0747023809524" type="line"/>
      <point x="161.0274925595238" y="73.97250744047619" type="line"/>
      <point x="258.9844494047619" y="28.945014880952378" type="line"/>
      <point x="258.9844494047619" y="0.0" type="line"/>
    </contour>
    <contour>
      <point x="858.007775297619" y="1128.5020833333333" type="qcurve" smooth="yes"/>
      <point x="858.007775297619" y="1289.9725074404762"/>
      <point x="998.254650297619" y="1507.2235491071428"/>
      <point x="1099.8153273809523" y="1507.2235491071428" type="qcurve" smooth="yes"/>
      <point x="1201.3760044642856" y="1507.2235491071428"/>
      <point x="1337.587611607143" y="1290.4548735119047"/>
      <point x="1337.587611607143" y="1131.9216889880952" type="qcurve" smooth="yes"/>
      <point x="1337.587611607143" y="965.2629836309524"/>
      <point x="1204.7681175595237" y="742.8786458333334"/>
      <point x="1098.49375" y="742.8786458333334" type="qcurve" smooth="yes"/>
      <point x="992.2193824404762" y="742.8786458333334"/>
      <point x="858.007775297619" y="961.2277157738096"/>
    </contour>
    <contour>
      <point x="1010.5798363095238" y="1130.2785342261905" type="qcurve" smooth="yes"/>
      <point x="1010.5798363095238" y="951.4943080357143"/>
      <point x="1055.2074404761904" y="773.6628720238095"/>
      <point x="1098.8153273809523" y="773.6628720238095" type="qcurve" smooth="yes"/>
      <point x="1145.4232142857143" y="773.6628720238095"/>
      <point x="1188.7920014880951" y="935.4590401785714"/>
      <point x="1188.7920014880951" y="1121.2432663690477" type="qcurve" smooth="yes"/>
      <point x="1188.7920014880951" y="1298.607886904762"/>
      <point x="1143.4232142857143" y="1471.2432663690477"/>
      <point x="1100.2349330357142" y="1471.2432663690477" type="qcurve" smooth="yes"/>
      <point x="1053.2074404761904" y="1471.2432663690477"/>
      <point x="1010.9994419642857" y="1298.6431547619047"/>
    </contour>
    <contour>
      <point x="885.254650297619" y="649.9139136904762" type="qcurve" smooth="yes"/>
      <point x="885.254650297619" y="663.0824776785714"/>
      <point x="917.9330729166667" y="652.6706473214285"/>
      <point x="1100.2349330357142" y="652.6706473214285" type="qcurve" smooth="yes"/>
      <point x="1283.1171875" y="652.6706473214285"/>
      <point x="1312.6348214285715" y="663.0824776785714"/>
      <point x="1312.6348214285715" y="649.9139136904762" type="qcurve" smooth="yes"/>
      <point x="1312.6348214285715" y="640.5845610119047"/>
      <point x="1283.1171875" y="643.7375744047619"/>
      <point x="1100.2349330357142" y="643.7375744047619" type="qcurve" smooth="yes"/>
      <point x="917.9330729166667" y="643.7375744047619"/>
      <point x="885.254650297619" y="640.5845610119047"/>
    </contour>
  </outline>
</glyph>
<glyph name="trademark" format="2">
  <advance width="1181"/>
  <unicode hex="2122"/>
  <outline>
    <contour>
      <point x="16.741183035714286" y="1299.8236607142858" type="line"/>
      <point x="22.54512648809524" y="1500.0" type="line"/>
      <point x="442.8547619047619" y="1500.0" type="line"/>
      <point x="454.4626488095238" y="1299.8236607142858" type="line"/>
      <point x="426.6861979166667" y="1299.8236607142858" type="line"/>
      <point x="390.4901413690476" y="1464.5098586309523" type="line"/>
      <point x="297.73701636904764" y="1464.5098586309523" type="line"/>
      <point x="289.4781994047619" y="1450.992224702381" type="line"/>
      <point x="288.3174107142857" y="1196.0" type="line"/>
      <point x="292.73701636904764" y="939.2940848214286" type="line"/>
      <point x="367.28214285714284" y="920.0980282738095" type="line"/>
      <point x="367.28214285714284" y="894.7059151785714" type="line"/>
      <point x="107.43932291666667" y="894.7059151785714" type="line"/>
      <point x="107.43932291666667" y="920.0980282738095" type="line"/>
      <point x="181.18050595238094" y="939.2940848214286" type="line"/>
      <point x="182.85892857142858" y="1196.0" type="line"/>
      <point x="182.85892857142858" y="1450.992224702381" type="line"/>
      <point x="176.3765625" y="1464.5098586309523" type="line"/>
      <point x="76.07053571428571" y="1464.5098586309523" type="line"/>
      <point x="43.35684523809524" y="1299.8236607142858" type="line"/>
    </contour>
    <contour>
      <point x="467.05081845238095" y="895.7059151785714" type="line"/>
      <point x="467.05081845238095" y="919.0980282738095" type="line"/>
      <point x="536.3018601190477" y="937.2940848214286" type="line"/>
      <point x="538.3018601190477" y="1172.0" type="line"/>
      <point x="536.3018601190477" y="1456.0197172619048" type="line"/>
      <point x="473.95279017857143" y="1473.411830357143" type="line"/>
      <point x="473.95279017857143" y="1500.0" type="line"/>
      <point x="648.5290178571429" y="1500.0" type="line"/>
      <point x="807.05859375" y="1014.6114955357143" type="line"/>
      <point x="966.2940848214286" y="1500.0" type="line"/>
      <point x="1160.9486235119048" y="1500.0" type="line"/>
      <point x="1160.9486235119048" y="1473.411830357143" type="line"/>
      <point x="1095.6623139880953" y="1450.2157738095239" type="line"/>
      <point x="1093.2427083333332" y="1211.0" type="line"/>
      <point x="1095.6623139880953" y="935.2940848214286" type="line"/>
      <point x="1160.9486235119048" y="917.0980282738095" type="line"/>
      <point x="1160.9486235119048" y="894.7059151785714" type="line"/>
      <point x="897.8822544642857" y="894.7059151785714" type="line"/>
      <point x="897.8822544642857" y="917.0980282738095" type="line"/>
      <point x="976.007775297619" y="935.2940848214286" type="line"/>
      <point x="978.427380952381" y="1211.0" type="line"/>
      <point x="979.2665922619047" y="1431.6276041666667" type="line"/>
      <point x="802.5762276785714" y="895.6431547619047" type="line"/>
      <point x="739.3843377976191" y="895.6431547619047" type="line"/>
      <point x="568.9880580357143" y="1397.5690104166667" type="line"/>
      <point x="565.9880580357143" y="1172.0" type="line"/>
      <point x="567.9880580357143" y="937.2940848214286" type="line"/>
      <point x="648.2390997023809" y="919.0980282738095" type="line"/>
      <point x="648.2390997023809" y="895.7059151785714" type="line"/>
    </contour>
  </outline>
</glyph>
<glyph name="bulletoperator" format="2">
  <advance width="647"/>
  <unicode hex="2219"/>
  <outline>
    <contour>
      <point x="203.3018601190476" y="664.9216889880952" type="qcurve" smooth="yes"/>
      <point x="203.3018601190476" y="710.6784226190476"/>
      <point x="270.80755208333335" y="778.7645089285714"/>
      <point x="322.92113095238096" y="778.7645089285714" type="qcurve" smooth="yes"/>
      <point x="376.0347098214286" y="778.7645089285714"/>
      <point x="443.96000744047615" y="710.6784226190476"/>
      <point x="443.96000744047615" y="664.9216889880952" type="qcurve" smooth="yes"/>
      <point x="443.96000744047615" y="619.4237723214286"/>
      <point x="376.0347098214286" y="550.9180803571428"/>
      <point x="322.92113095238096" y="550.9180803571428" type="qcurve" smooth="yes"/>
      <point x="270.80755208333335" y="550.9180803571428"/>
      <point x="203.3018601190476" y="619.4237723214286"/>
    </contour>
  </outline>
</glyph>
